STARTFONT 2.1
COMMENT
COMMENT Converted from OpenType font "NimbusSans-Regular.otf" by "otf2bdf 3.0".
COMMENT
FONT -FreeType-Nimbus Sans-Medium-R-Normal--83-600-100-100-P-432-ISO10646-1
SIZE 60 100 100
FONTBOUNDINGBOX 103 115 -17 -25
STARTPROPERTIES 19
FOUNDRY "FreeType"
FAMILY_NAME "Nimbus Sans"
WEIGHT_NAME "Medium"
SLANT "R"
SETWIDTH_NAME "Normal"
ADD_STYLE_NAME ""
PIXEL_SIZE 83
POINT_SIZE 600
RESOLUTION_X 100
RESOLUTION_Y 100
SPACING "P"
AVERAGE_WIDTH 432
CHARSET_REGISTRY "ISO10646"
CHARSET_ENCODING "1"
FONT_ASCENT 60
FONT_DESCENT 22
COPYRIGHT "(URW)++,Copyright 2014 by (URW)++ Design & Development"
_OTF_FONTFILE "NimbusSans-Regular.otf"
_OTF_PSNAME "NimbusSans-Regular"
ENDPROPERTIES
CHARS 854
STARTCHAR 0020
ENCODING 32
SWIDTH 276 0
DWIDTH 23 0
BBX 0 0 0 0
BITMAP
ENDCHAR
STARTCHAR 0021
ENCODING 33
SWIDTH 276 0
DWIDTH 23 0
BBX 7 61 10 0
BITMAP
FE
FE
FE
FE
FE
FE
FE
FE
FE
FE
FE
FE
FE
FE
FE
FE
FE
FE
FE
FE
FE
FE
FE
FE
FE
FE
FE
FE
FE
7E
7E
7E
7E
7E
7E
7E
7E
7C
7C
7C
3C
3C
3C
3C
3C
3C
3C
00
00
00
00
00
FE
FE
FE
FE
FE
FE
FE
FE
FE
ENDCHAR
STARTCHAR 0022
ENCODING 34
SWIDTH 360 0
DWIDTH 30 0
BBX 21 20 4 39
BITMAP
FF03F8
FF03F8
FF03F8
FF03F8
FF03F8
FF03F8
FF03F8
FF03F8
FF03F8
FF03F8
7F03F8
7F03F8
7E03F8
7E01F8
7E01F0
3E01F0
3E01F0
3C01F0
3C00F0
3C00E0
ENDCHAR
STARTCHAR 0023
ENCODING 35
SWIDTH 552 0
DWIDTH 46 0
BBX 44 60 1 -2
BITMAP
0000FE007E00
0000FC007E00
0000FC007E00
0000FC00FE00
0001FC00FE00
0001FC00FC00
0001F800FC00
0001F800FC00
0001F801FC00
0001F801FC00
0003F801F800
0003F801F800
0003F001F800
0003F001F800
0003F003F800
0007F003F800
1FFFFFFFFFF0
1FFFFFFFFFF0
1FFFFFFFFFF0
1FFFFFFFFFF0
1FFFFFFFFFF0
1FFFFFFFFFF0
000FE007E000
000FC007E000
000FC007E000
000FC00FE000
001FC00FE000
001FC00FC000
001FC00FC000
001F800FC000
001F800FC000
001F801FC000
003F801FC000
003F801F8000
003F001F8000
003F001F8000
003F003F8000
FFFFFFFFFF80
FFFFFFFFFF80
FFFFFFFFFF80
FFFFFFFFFF80
FFFFFFFFFF80
FFFFFFFFFF80
00FE007F0000
00FE007E0000
00FC007E0000
00FC007E0000
00FC00FE0000
00FC00FE0000
01FC00FC0000
01FC00FC0000
01F800FC0000
01F800FC0000
01F801FC0000
03F801FC0000
03F801F80000
03F001F80000
03F001F80000
03F003F80000
07F003F80000
ENDCHAR
STARTCHAR 0024
ENCODING 36
SWIDTH 552 0
DWIDTH 46 0
BBX 41 74 3 -10
BITMAP
00003E000000
00003E000000
00003E000000
00003E000000
00007F000000
0007FFF80000
003FFFFE0000
00FFFFFF8000
01FFFFFFC000
03FFFFFFE000
07FFBE7FF000
0FF83E1FF000
0FF03E07F800
1FE03E03FC00
1FC03E01FC00
3F803E01FC00
3F803E00FE00
3F003E00FE00
3F003E00FE00
7F003E00FE00
7F003E00FE00
7F003E000000
7F003E000000
3F803E000000
3F803E000000
3FC03E000000
3FE03E000000
1FF03E000000
1FF83E000000
0FFE3E000000
0FFFFE000000
07FFFF800000
03FFFFF00000
00FFFFFE0000
007FFFFF8000
000FFFFFE000
0001FFFFF000
00003FFFF800
00003FFFFC00
00003E3FFE00
00003E07FE00
00003E03FF00
00003E00FF00
00003E00FF00
00003E007F80
00003E007F80
00003E003F80
FE003E003F80
FE003E003F80
FE003E003F80
FE003E003F80
7F003E003F00
7F003E007F00
7F003E007F00
7F003E00FF00
3F803E00FE00
3FC03E01FE00
3FE03E03FC00
1FF83E07FC00
0FFE3E3FF800
07FFFFFFF000
03FFFFFFE000
01FFFFFFC000
00FFFFFF0000
001FFFFC0000
0003FFC00000
00003E000000
00003E000000
00003E000000
00003E000000
00003E000000
00003E000000
00003E000000
00003E000000
ENDCHAR
STARTCHAR 0025
ENCODING 37
SWIDTH 888 0
DWIDTH 74 0
BBX 70 61 2 -2
BITMAP
0000000000007C0000
000000000000FC0000
000FC0000001F80000
007FF8000001F00000
01FFFC000003F00000
03FFFF000003E00000
0FFFFF800007E00000
0FFFFFC00007C00000
1FF07FC0000FC00000
3FC01FE0000F800000
3F8007F0001F800000
7F0007F0001F000000
7E0003F0003F000000
7E0001F8003E000000
7C0001F8007C000000
FC0001F800FC000000
FC0001F800F8000000
FC0001F801F8000000
7C0001F801F0000000
7E0001F803F0000000
7E0003F003E0000000
7F0003F007E0000000
3F8007F007C0000000
3FC01FE00FC0000000
1FF03FC00F80000000
0FFFFFC01F80000000
0FFFFF803F00000000
07FFFF003E00000000
01FFFC007E00000000
007FF8007C00000000
000FC000FC00000000
00000000F800000000
00000001F8000FC000
00000001F0007FF800
00000003F000FFFE00
00000003E003FFFF80
00000007E007FFFFC0
00000007C00FFFFFE0
0000000F800FF03FE0
0000001F801FE00FF0
0000001F001F8007F0
0000003F003F8003F8
0000003E003F0001F8
0000007E007E0001F8
0000007C007E0000F8
000000FC007E0000FC
000000F8007E0000FC
000001F8007E0000FC
000001F0007E0000F8
000003F0007E0001F8
000003E0003F0001F8
000007C0003F0003F8
00000FC0003F8003F0
00000F80001FC00FF0
00001F80001FF01FE0
00001F00000FFFFFE0
00003F000007FFFFC0
00003E000003FFFF80
00007E000001FFFE00
00007C0000007FFC00
0000FC0000000FE000
ENDCHAR
STARTCHAR 0026
ENCODING 38
SWIDTH 672 0
DWIDTH 56 0
BBX 49 61 4 -2
BITMAP
00007F80000000
0001FFF0000000
0007FFFC000000
000FFFFE000000
001FFFFF000000
003FFFFF800000
007FC0FF800000
00FF003FC00000
00FE001FC00000
00FE000FE00000
01FC000FE00000
01FC000FE00000
01FC000FE00000
01FC000FE00000
01FC000FE00000
01FC000FE00000
00FE001FE00000
00FE001FC00000
00FF003FC00000
007F807F800000
007FC0FF800000
003FC3FF000000
001FE7FE000000
001FFFFC000000
000FFFF0000000
0007FFE0000000
0003FF80000000
000FFF00000000
001FFF00000000
007FFF80000000
00FFFFC0000000
01FFBFE007F000
03FE1FE007F000
0FFC1FF007F000
0FF80FF807F000
1FE007FC07E000
3FC003FE0FE000
3FC001FF0FE000
7F8001FF0FE000
7F0000FF9FC000
7F00007FDFC000
7F00003FFFC000
FE00001FFF8000
FE00001FFF8000
FE00000FFF0000
FF000007FE0000
FF000003FE0000
7F000001FF0000
7F000003FF8000
7F800007FF8000
7FC0000FFFC000
3FE0001FFFE000
3FF0007FFFF000
1FFC01FFCFF800
1FFFFFFF8FF800
0FFFFFFF07FC00
07FFFFFE03FE00
03FFFFF801FF00
00FFFFF000FF80
003FFFC0000000
0007FC00000000
ENDCHAR
STARTCHAR 0027
ENCODING 39
SWIDTH 192 0
DWIDTH 16 0
BBX 8 20 4 39
BITMAP
FF
FF
FF
FF
FF
FF
FF
FF
FF
FF
FF
FE
7E
7E
7E
7E
7C
3C
3C
3C
ENDCHAR
STARTCHAR 0028
ENCODING 40
SWIDTH 336 0
DWIDTH 28 0
BBX 18 78 6 -17
BITMAP
0007C0
000780
000F80
001F00
001F00
003E00
007E00
007C00
00FC00
00F800
01F800
01F000
03F000
03F000
07E000
07E000
07E000
0FC000
0FC000
0FC000
1F8000
1F8000
1F8000
3F8000
3F0000
3F0000
3F0000
7F0000
7F0000
7F0000
7E0000
7E0000
7E0000
FE0000
FE0000
FE0000
FE0000
FE0000
FE0000
FE0000
FE0000
FE0000
FE0000
FE0000
FE0000
FE0000
7E0000
7E0000
7F0000
7F0000
7F0000
7F0000
3F0000
3F0000
3F8000
3F8000
1F8000
1F8000
1FC000
0FC000
0FC000
0FE000
07E000
07E000
03F000
03F000
01F000
01F800
01F800
00FC00
007C00
007E00
003E00
003F00
001F00
000F80
000F80
0007C0
ENDCHAR
STARTCHAR 0029
ENCODING 41
SWIDTH 336 0
DWIDTH 28 0
BBX 18 78 3 -17
BITMAP
F80000
7C0000
3E0000
3E0000
1F0000
1F8000
0F8000
0FC000
07C000
07E000
03E000
03F000
03F000
01F800
01F800
01FC00
00FC00
00FC00
00FE00
007E00
007E00
007F00
003F00
003F00
003F00
003F80
003F80
001F80
001F80
001FC0
001FC0
001FC0
001FC0
001FC0
001FC0
001FC0
000FC0
000FC0
000FC0
000FC0
000FC0
000FC0
000FC0
001FC0
001FC0
001FC0
001FC0
001FC0
001FC0
001F80
001F80
001F80
003F80
003F80
003F00
003F00
007F00
007E00
007E00
007E00
00FC00
00FC00
00FC00
01F800
01F800
01F000
03F000
03E000
07E000
07C000
07C000
0F8000
0F8000
1F0000
1F0000
3E0000
7C0000
780000
ENDCHAR
STARTCHAR 002A
ENCODING 42
SWIDTH 384 0
DWIDTH 32 0
BBX 24 24 4 37
BITMAP
007E00
007E00
007C00
007C00
003C00
003C00
403C02
F83C1E
FE3C7F
FFFFFF
FFFFFF
7FFFFE
0FFFF0
00FF00
00FF00
01FF80
03FFC0
07E7E0
07C7E0
0FC3F0
1F81F8
1F01F8
0700E0
020040
ENDCHAR
STARTCHAR 002B
ENCODING 43
SWIDTH 588 0
DWIDTH 49 0
BBX 40 40 4 -1
BITMAP
00007E0000
00007E0000
00007E0000
00007E0000
00007E0000
00007E0000
00007E0000
00007E0000
00007E0000
00007E0000
00007E0000
00007E0000
00007E0000
00007E0000
00007E0000
00007E0000
00007E0000
FFFFFFFFFF
FFFFFFFFFF
FFFFFFFFFF
FFFFFFFFFF
FFFFFFFFFF
FFFFFFFFFF
00007E0000
00007E0000
00007E0000
00007E0000
00007E0000
00007E0000
00007E0000
00007E0000
00007E0000
00007E0000
00007E0000
00007E0000
00007E0000
00007E0000
00007E0000
00007E0000
00007E0000
ENDCHAR
STARTCHAR 002C
ENCODING 44
SWIDTH 276 0
DWIDTH 23 0
BBX 9 21 7 -12
BITMAP
FF80
FF80
FF80
FF80
FF80
FF80
FF80
FF80
FF80
0780
0780
0780
0780
0780
0780
0700
0F00
1E00
FE00
FC00
F000
ENDCHAR
STARTCHAR 002D
ENCODING 45
SWIDTH 336 0
DWIDTH 28 0
BBX 20 6 4 20
BITMAP
FFFFF0
FFFFF0
FFFFF0
FFFFF0
FFFFF0
FFFFF0
ENDCHAR
STARTCHAR 002E
ENCODING 46
SWIDTH 276 0
DWIDTH 23 0
BBX 9 9 7 0
BITMAP
FF80
FF80
FF80
FF80
FF80
FF80
FF80
FF80
FF80
ENDCHAR
STARTCHAR 002F
ENCODING 47
SWIDTH 276 0
DWIDTH 23 0
BBX 25 63 -1 -2
BITMAP
00000F80
00000F00
00001F00
00001F00
00001E00
00003E00
00003E00
00003C00
00007C00
00007C00
00007800
0000F800
0000F800
0000F000
0000F000
0001F000
0001E000
0001E000
0003E000
0003E000
0003C000
0007C000
0007C000
00078000
000F8000
000F8000
000F0000
001F0000
001F0000
001E0000
001E0000
003E0000
003C0000
003C0000
007C0000
007C0000
00780000
00F80000
00F80000
00F00000
01F00000
01F00000
01E00000
03E00000
03E00000
03C00000
03C00000
07C00000
07800000
07800000
0F800000
0F800000
0F000000
1F000000
1F000000
1E000000
3E000000
3E000000
3C000000
7C000000
7C000000
78000000
F8000000
ENDCHAR
STARTCHAR 0030
ENCODING 48
SWIDTH 552 0
DWIDTH 46 0
BBX 38 62 4 -2
BITMAP
0001FE0000
000FFFC000
003FFFF000
007FFFFC00
01FFFFFE00
03FFFFFF00
07FFFFFF00
07FE01FF80
0FF8007FC0
0FF0003FC0
1FE0001FE0
1FE0001FE0
3FC0000FF0
3FC0000FF0
3F800007F0
7F800007F8
7F800007F8
7F000003F8
7F000003F8
FF000003F8
FF000003FC
FF000003FC
FF000003FC
FE000003FC
FE000001FC
FE000001FC
FE000001FC
FE000001FC
FE000001FC
FE000001FC
FE000001FC
FE000001FC
FE000001FC
FE000001FC
FE000001FC
FE000001FC
FE000001FC
FE000001FC
FE000003FC
FF000003FC
FF000003FC
FF000003FC
FF000003F8
7F000003F8
7F000003F8
7F800007F8
7F800007F8
3F800007F0
3FC0000FF0
3FC0000FF0
1FC0001FE0
1FE0001FE0
0FF0003FC0
0FF8007FC0
07FC00FF80
07FF03FF00
03FFFFFF00
01FFFFFE00
00FFFFF800
003FFFF000
001FFFC000
0003FE0000
ENDCHAR
STARTCHAR 0031
ENCODING 49
SWIDTH 552 0
DWIDTH 46 0
BBX 21 60 8 0
BITMAP
0000F8
0000F8
0001F8
0001F8
0001F8
0003F8
0003F8
0007F8
000FF8
003FF8
00FFF8
1FFFF8
FFFFF8
FFFFF8
FFFFF8
FFFFF8
FFFFF8
0003F8
0003F8
0003F8
0003F8
0003F8
0003F8
0003F8
0003F8
0003F8
0003F8
0003F8
0003F8
0003F8
0003F8
0003F8
0003F8
0003F8
0003F8
0003F8
0003F8
0003F8
0003F8
0003F8
0003F8
0003F8
0003F8
0003F8
0003F8
0003F8
0003F8
0003F8
0003F8
0003F8
0003F8
0003F8
0003F8
0003F8
0003F8
0003F8
0003F8
0003F8
0003F8
0003F8
ENDCHAR
STARTCHAR 0032
ENCODING 50
SWIDTH 552 0
DWIDTH 46 0
BBX 40 60 3 0
BITMAP
0000FFC000
000FFFF800
003FFFFE00
00FFFFFF80
01FFFFFFC0
03FFFFFFE0
07FFF7FFF0
07FE003FF8
0FFC001FF8
1FF00007FC
1FE00003FC
1FE00003FE
3FC00001FE
3FC00001FE
3F800000FE
3F800000FE
7F800000FF
7F800000FF
7F800000FF
7F800000FE
7F800000FE
00000001FE
00000001FE
00000001FE
00000003FC
00000007FC
0000000FF8
0000001FF8
0000003FF0
000000FFE0
000001FFC0
000007FF80
00001FFF00
00003FFC00
0000FFF800
0003FFE000
0007FFC000
001FFF0000
003FFC0000
007FF00000
01FFC00000
03FF800000
03FE000000
07FC000000
0FF8000000
1FF0000000
1FE0000000
3FC0000000
3FC0000000
3F80000000
7F80000000
7F00000000
7F00000000
7FFFFFFFFE
FFFFFFFFFE
FFFFFFFFFE
FFFFFFFFFE
FFFFFFFFFE
FFFFFFFFFE
FFFFFFFFFE
ENDCHAR
STARTCHAR 0033
ENCODING 51
SWIDTH 552 0
DWIDTH 46 0
BBX 39 62 3 -2
BITMAP
0003FF8000
001FFFF000
007FFFFC00
00FFFFFF00
03FFFFFF80
07FFFFFFC0
07FFEFFFE0
0FFC007FE0
1FF0003FF0
1FE0001FF0
3FC0000FF8
3FC00007F8
3F800007F8
3F800003F8
7F800003F8
7F800003F8
7F000003F8
7F000003F8
7F000003F8
00000003F8
00000007F8
00000007F8
0000000FF0
0000000FF0
0000003FE0
000000FFC0
0001FFFF80
0001FFFF00
0001FFFC00
0001FFFE00
0001FFFF80
0001FFFFC0
000007FFE0
0000003FF0
0000000FF8
00000007FC
00000003FC
00000003FC
00000001FE
00000001FE
00000001FE
00000000FE
00000000FE
FE000000FE
FE000000FE
FE000000FE
FF000001FE
FF000001FE
FF000001FE
7F800003FC
7F800003FC
7FC00007FC
3FE0000FF8
3FF0001FF8
1FFC007FF0
0FFFEFFFE0
0FFFFFFFC0
07FFFFFF80
01FFFFFF00
00FFFFFC00
003FFFF000
0003FF0000
ENDCHAR
STARTCHAR 0034
ENCODING 52
SWIDTH 552 0
DWIDTH 46 0
BBX 41 60 2 0
BITMAP
0000001F8000
0000003F8000
0000007F8000
0000007F8000
000000FF8000
000001FF8000
000001FF8000
000003FF8000
000007FF8000
00000FFF8000
00000FFF8000
00001FFF8000
00003FFF8000
00003F7F8000
00007F7F8000
0000FE7F8000
0001FC7F8000
0001FC7F8000
0003F87F8000
0007F07F8000
0007F07F8000
000FE07F8000
001FC07F8000
003FC07F8000
003F807F8000
007F007F8000
00FE007F8000
00FE007F8000
01FC007F8000
03F8007F8000
03F8007F8000
07F0007F8000
0FE0007F8000
1FE0007F8000
1FC0007F8000
3F80007F8000
7F00007F8000
7F00007F8000
FE00007F8000
FFFFFFFFFF80
FFFFFFFFFF80
FFFFFFFFFF80
FFFFFFFFFF80
FFFFFFFFFF80
FFFFFFFFFF80
FFFFFFFFFF80
0000007F8000
0000007F8000
0000007F8000
0000007F8000
0000007F8000
0000007F8000
0000007F8000
0000007F8000
0000007F8000
0000007F8000
0000007F8000
0000007F8000
0000007F8000
0000007F8000
ENDCHAR
STARTCHAR 0035
ENCODING 53
SWIDTH 552 0
DWIDTH 46 0
BBX 40 61 3 -2
BITMAP
03FFFFFFF8
03FFFFFFF8
03FFFFFFF8
03FFFFFFF8
03FFFFFFF8
07FFFFFFF8
07FFFFFFF8
07F0000000
07F0000000
07F0000000
07F0000000
07E0000000
0FE0000000
0FE0000000
0FE0000000
0FE0000000
0FE0000000
0FE0000000
0FC0000000
1FC0000000
1FC0FF8000
1FC7FFF800
1FDFFFFE00
1FFFFFFF00
1FFFFFFFC0
1FFFFFFFE0
1FFFFFFFE0
3FFC007FF0
3FF0001FF8
3FE0000FF8
3FC00007FC
3F800003FC
00000003FE
00000001FE
00000001FE
00000000FE
00000000FF
00000000FF
00000000FF
00000000FF
00000000FF
00000000FF
00000000FF
00000000FF
00000000FE
FF000000FE
FF000001FE
7F000001FE
7F800001FC
7F800003FC
3FC00007F8
3FE0000FF8
3FF0001FF0
1FFC007FE0
0FFFEFFFE0
07FFFFFFC0
03FFFFFF80
01FFFFFE00
007FFFFC00
001FFFF000
0003FF0000
ENDCHAR
STARTCHAR 0036
ENCODING 54
SWIDTH 552 0
DWIDTH 46 0
BBX 39 62 4 -2
BITMAP
00007F8000
0007FFF000
001FFFFC00
003FFFFE00
007FFFFF00
01FFFFFF80
01FFFFFFC0
03FF007FE0
07FC003FE0
0FF8001FF0
0FF0000FF0
1FE00007F8
1FE00007F8
3FC00003F8
3FC00003F8
3F800003F8
7F80000000
7F80000000
7F00000000
7F00000000
7F00000000
FF00000000
FF00000000
FE00FF8000
FE07FFF000
FE1FFFFC00
FE3FFFFF00
FE7FFFFF80
FEFFFFFFC0
FFFFFFFFE0
FFFE007FE0
FFF8003FF0
FFE0000FF8
FFC00007F8
FFC00007FC
FF800003FC
FF800003FC
FF000001FC
FF000001FE
FF000001FE
FF000001FE
FF000001FE
FF000001FE
FF000001FE
7F000001FE
7F000001FC
7F000001FC
7F000003FC
3F800003FC
3F800003F8
3FC00007F8
1FE0000FF8
1FF0001FF0
0FF8003FF0
07FE00FFE0
07FFEFFFC0
03FFFFFF80
01FFFFFF00
00FFFFFE00
003FFFF800
000FFFE000
0001FF0000
ENDCHAR
STARTCHAR 0037
ENCODING 55
SWIDTH 552 0
DWIDTH 46 0
BBX 39 59 4 0
BITMAP
FFFFFFFFFE
FFFFFFFFFE
FFFFFFFFFE
FFFFFFFFFE
FFFFFFFFFE
FFFFFFFFFE
FFFFFFFFFE
00000000FC
00000001FC
00000003F8
00000003F0
00000007E0
0000000FE0
0000000FC0
0000001F80
0000003F80
0000003F00
0000007F00
000000FE00
000000FC00
000001FC00
000003F800
000003F800
000007F000
000007E000
00000FE000
00000FC000
00001FC000
00001F8000
00003F8000
00007F0000
00007F0000
0000FE0000
0000FE0000
0000FE0000
0001FC0000
0001FC0000
0003F80000
0003F80000
0007F80000
0007F00000
0007F00000
000FF00000
000FE00000
000FE00000
001FE00000
001FC00000
001FC00000
003FC00000
003F800000
003F800000
007F800000
007F800000
007F000000
007F000000
00FF000000
00FF000000
00FF000000
00FE000000
ENDCHAR
STARTCHAR 0038
ENCODING 56
SWIDTH 552 0
DWIDTH 46 0
BBX 40 62 3 -2
BITMAP
0001FF8000
000FFFF000
003FFFFC00
00FFFFFF00
01FFFFFF80
03FFFFFFC0
07FFFFFFE0
07FE007FE0
0FF8001FF0
0FF0000FF0
1FE0000FF8
1FE00007F8
1FC00003F8
3FC00003F8
3FC00003FC
3FC00003FC
3FC00003FC
3FC00003FC
3FC00003FC
3FC00003F8
1FE00007F8
1FE00007F8
0FF0000FF0
0FF8001FF0
07FC003FE0
03FF81FFC0
01FFFFFF80
00FFFFFE00
003FFFFC00
007FFFFE00
01FFFFFF80
03FFFFFFC0
07FF00FFE0
0FF8003FF0
1FF0000FF8
3FE00007FC
3FC00003FC
7F800001FE
7F800001FE
7F000000FE
FF000000FF
FF000000FF
FF000000FF
FF000000FF
FF000000FF
FF000000FF
FF000000FF
FF000000FE
7F000001FE
7F800001FE
7FC00003FC
3FC00003FC
3FE00007FC
1FF8001FF8
0FFE007FF0
0FFFFFFFE0
07FFFFFFE0
03FFFFFF80
00FFFFFF00
007FFFFC00
001FFFF000
0001FF8000
ENDCHAR
STARTCHAR 0039
ENCODING 57
SWIDTH 552 0
DWIDTH 46 0
BBX 39 62 3 -2
BITMAP
0001FF0000
000FFFE000
003FFFF800
00FFFFFE00
01FFFFFF00
03FFFFFF80
07FFEFFFC0
0FFC00FFC0
1FF8003FE0
1FF0001FF0
3FE0000FF0
3FC00007F8
7F800003F8
7F800003F8
7F000003FC
7F000001FC
FF000001FC
FF000001FC
FF000001FE
FF000001FE
FF000001FE
FF000001FE
FF000001FE
FF000001FE
7F000001FE
7F800003FE
7F800003FE
7FC00007FE
3FC00007FE
3FE0000FFE
1FF0003FFE
1FFC00FFFE
0FFFFFFFFE
07FFFFFEFE
03FFFFFCFE
01FFFFF8FE
007FFFE0FE
001FFFC0FE
0003FE00FE
00000001FE
00000001FE
00000001FE
00000001FC
00000001FC
00000003FC
00000003FC
7F800003F8
3F800007F8
3F800007F8
3FC0000FF0
3FC0000FF0
1FE0001FE0
1FF0003FE0
0FF8007FC0
0FFC01FF80
07FFFFFF80
03FFFFFF00
01FFFFFE00
00FFFFF800
007FFFF000
001FFFC000
0003FC0000
ENDCHAR
STARTCHAR 003A
ENCODING 58
SWIDTH 276 0
DWIDTH 23 0
BBX 9 44 9 0
BITMAP
FF80
FF80
FF80
FF80
FF80
FF80
FF80
FF80
FF80
0000
0000
0000
0000
0000
0000
0000
0000
0000
0000
0000
0000
0000
0000
0000
0000
0000
0000
0000
0000
0000
0000
0000
0000
0000
0000
FF80
FF80
FF80
FF80
FF80
FF80
FF80
FF80
FF80
ENDCHAR
STARTCHAR 003B
ENCODING 59
SWIDTH 276 0
DWIDTH 23 0
BBX 9 56 9 -12
BITMAP
FF80
FF80
FF80
FF80
FF80
FF80
FF80
FF80
FF80
0000
0000
0000
0000
0000
0000
0000
0000
0000
0000
0000
0000
0000
0000
0000
0000
0000
0000
0000
0000
0000
0000
0000
0000
0000
0000
FF80
FF80
FF80
FF80
FF80
FF80
FF80
FF80
FF80
0780
0780
0780
0780
0780
0700
0700
0F00
1E00
FE00
FC00
F000
ENDCHAR
STARTCHAR 003C
ENCODING 60
SWIDTH 588 0
DWIDTH 49 0
BBX 40 40 4 -1
BITMAP
0000000001
000000000F
000000003F
00000000FF
00000007FF
0000001FFF
0000007FFF
000003FFFC
00000FFFE0
00007FFF80
0001FFFC00
0007FFF000
003FFF8000
00FFFE0000
03FFF80000
1FFFC00000
7FFF000000
FFF8000000
FFE0000000
FF00000000
FF80000000
FFF0000000
FFFC000000
7FFF800000
0FFFE00000
03FFF80000
007FFF0000
001FFFC000
0007FFF800
0000FFFE00
00003FFF80
00000FFFF0
000001FFFC
0000007FFF
0000001FFF
00000003FF
00000000FF
000000001F
0000000007
0000000001
ENDCHAR
STARTCHAR 003D
ENCODING 61
SWIDTH 588 0
DWIDTH 49 0
BBX 40 20 4 9
BITMAP
FFFFFFFFFF
FFFFFFFFFF
FFFFFFFFFF
FFFFFFFFFF
FFFFFFFFFF
FFFFFFFFFF
0000000000
0000000000
0000000000
0000000000
0000000000
0000000000
0000000000
0000000000
FFFFFFFFFF
FFFFFFFFFF
FFFFFFFFFF
FFFFFFFFFF
FFFFFFFFFF
FFFFFFFFFF
ENDCHAR
STARTCHAR 003E
ENCODING 62
SWIDTH 588 0
DWIDTH 49 0
BBX 41 40 4 -1
BITMAP
C00000000000
F00000000000
FE0000000000
FF8000000000
FFE000000000
FFFC00000000
7FFF00000000
1FFFC0000000
07FFF8000000
00FFFE000000
003FFFC00000
0007FFF00000
0001FFFC0000
00007FFF8000
00000FFFE000
000003FFF800
0000007FFF00
0000001FFF80
00000007FF80
00000000FF80
00000000FF80
00000007FF80
0000001FFF80
000000FFFE00
000003FFF800
00000FFFC000
00007FFF0000
0001FFFC0000
000FFFE00000
003FFF800000
01FFFE000000
07FFF0000000
3FFFC0000000
FFFF00000000
FFF800000000
FFE000000000
FF0000000000
FC0000000000
F00000000000
800000000000
ENDCHAR
STARTCHAR 003F
ENCODING 63
SWIDTH 552 0
DWIDTH 46 0
BBX 36 62 6 0
BITMAP
0003FF0000
003FFFE000
00FFFFF800
01FFFFFE00
07FFFFFF00
07FFFFFF80
0FFFFFFFC0
1FF801FFC0
1FE0007FE0
3FC0003FE0
3F80001FF0
7F80000FF0
7F00000FF0
7F000007F0
7F000007F0
7F000007F0
7F000007F0
FF000007F0
FF000007F0
FE00000FF0
0000000FF0
0000001FF0
0000001FE0
0000003FE0
0000007FC0
000000FF80
000001FF80
000003FF00
000007FE00
00000FFC00
00001FF800
00003FF000
00007FC000
0000FF8000
0000FF0000
0001FF0000
0001FE0000
0003FC0000
0003FC0000
0003FC0000
0003FC0000
0003F80000
0003F80000
0003F80000
0003F80000
0000000000
0000000000
0000000000
0000000000
0000000000
0000000000
0000000000
0000000000
0003F80000
0003F80000
0003F80000
0003F80000
0003F80000
0003F80000
0003F80000
0003F80000
0003F80000
ENDCHAR
STARTCHAR 0040
ENCODING 64
SWIDTH 1020 0
DWIDTH 85 0
BBX 76 74 3 -12
BITMAP
000000001FFE00000000
00000003FFFFF0000000
0000001FFFFFFE000000
000000FFFFFFFF800000
000003FFFFFFFFE00000
00000FFFFFFFFFF80000
00001FFFFC7FFFFE0000
00007FFE0000FFFF0000
0000FFF000001FFF8000
0003FFC0000007FFC000
0007FF00000001FFE000
000FFC000000007FF000
001FF8000000001FF800
003FF0000000000FFC00
007FC00000000007FE00
007F800000000003FF00
00FF000000000001FF00
01FE000000000000FF80
03FC00000FF000007F80
03FC00007FFC00007FC0
07F80001FFFE0FE03FC0
07F00003FFFF0FE03FE0
0FF0000FFFFF9FC01FE0
0FE0001FFE7FDFC01FE0
1FC0003FE00FDFC00FF0
1FC0007FC003FFC00FF0
3FC000FF8003FF800FF0
3F8000FF0001FF8007F0
3F8001FE0001FF8007F0
7F0003FC0000FF0007F0
7F0003FC0000FF0007F0
7F0007F80000FF0007F0
7F0007F00000FE0007F0
FE000FF00000FE0007F0
FE000FF00001FE0007F0
FE000FE00001FC0007F0
FE000FE00001FC0007F0
FE001FE00001FC000FE0
FE001FE00003F8000FE0
FE001FE00003F8000FE0
FE001FE00003F8001FC0
FE001FC00007F0001FC0
FE001FE00007F0003FC0
FE001FE00007F0003F80
FF001FE0000FE0007F80
FF001FE0001FE000FF00
7F000FF0001FE000FE00
7F000FF0003FE001FE00
7F800FF8007FE003FC00
7F8007FC00FFF00FF800
3FC007FE01FFF83FF000
3FC003FF8FF7FFFFE000
3FE001FFFFE7FFFFC000
1FE000FFFFC7FFFF8000
1FF0007FFF03FFFE0000
0FF8003FFE01FFF80000
0FF80007F0003FC00000
07FC0000000000000000
03FE0000000000000000
01FF0000000000000000
01FF8000000000000000
00FFE000000000000000
007FF000000000000000
003FFC00000000000000
001FFF00000000000000
0007FFC000000E000000
0003FFFC0000FE000000
0001FFFFF0FFFE000000
00007FFFFFFFFF000000
00001FFFFFFFFF000000
000007FFFFFFFF800000
000001FFFFFFFC000000
0000003FFFFFC0000000
00000001FFF800000000
ENDCHAR
STARTCHAR 0041
ENCODING 65
SWIDTH 672 0
DWIDTH 56 0
BBX 52 61 2 0
BITMAP
000007FE000000
000007FF000000
00000FFF000000
00000FFF000000
00001FFF800000
00001FFF800000
00001FFF800000
00003FFFC00000
00003FFFC00000
00003FFFC00000
00007F9FE00000
00007F9FE00000
00007F1FE00000
0000FF0FF00000
0000FF0FF00000
0000FE0FF80000
0001FE07F80000
0001FE07F80000
0001FC07FC0000
0003FC03FC0000
0003FC03FC0000
0007F803FE0000
0007F801FE0000
0007F801FE0000
000FF001FF0000
000FF000FF0000
000FE000FF0000
001FE000FF8000
001FE0007F8000
001FC0007F8000
003FC0007FC000
003FC0003FC000
003F80003FC000
007F80003FE000
007F80001FE000
00FF00001FF000
00FFFFFFFFF000
00FFFFFFFFF000
01FFFFFFFFF800
01FFFFFFFFF800
01FFFFFFFFF800
03FFFFFFFFFC00
03FC000007FC00
03FC000003FC00
07F8000003FE00
07F8000003FE00
07F8000001FE00
0FF0000001FF00
0FF0000001FF00
1FF0000000FF00
1FE0000000FF80
1FE00000007F80
3FE00000007F80
3FC00000007FC0
3FC00000003FC0
7FC00000003FE0
7F800000003FE0
7F800000001FE0
FF800000001FF0
FF000000001FF0
FF000000000FF0
ENDCHAR
STARTCHAR 0042
ENCODING 66
SWIDTH 672 0
DWIDTH 56 0
BBX 45 61 7 0
BITMAP
FFFFFFFC0000
FFFFFFFF8000
FFFFFFFFE000
FFFFFFFFF800
FFFFFFFFFC00
FFFFFFFFFE00
FFFFFFFFFE00
FE00000FFF00
FE000003FF80
FE000000FF80
FE0000007FC0
FE0000007FC0
FE0000003FC0
FE0000003FC0
FE0000003FC0
FE0000003FC0
FE0000003FC0
FE0000003FC0
FE0000003FC0
FE0000003FC0
FE0000003FC0
FE0000007F80
FE0000007F80
FE000000FF00
FE000003FE00
FE00000FFC00
FFFFFFFFF800
FFFFFFFFF000
FFFFFFFFC000
FFFFFFFFF000
FFFFFFFFFC00
FFFFFFFFFE00
FFFFFFFFFF80
FE000003FFC0
FE000000FFC0
FE0000003FE0
FE0000001FF0
FE0000000FF0
FE0000000FF0
FE00000007F8
FE00000007F8
FE00000007F8
FE00000007F8
FE00000007F8
FE00000007F8
FE00000007F8
FE00000007F8
FE00000007F8
FE0000000FF0
FE0000000FF0
FE0000001FF0
FE0000003FE0
FE0000007FE0
FE000001FFC0
FFFFFFFFFF80
FFFFFFFFFF80
FFFFFFFFFF00
FFFFFFFFFE00
FFFFFFFFF800
FFFFFFFFE000
FFFFFFFF0000
ENDCHAR
STARTCHAR 0043
ENCODING 67
SWIDTH 720 0
DWIDTH 60 0
BBX 52 64 4 -2
BITMAP
000003FFC00000
00003FFFFC0000
0000FFFFFF0000
0003FFFFFFC000
000FFFFFFFE000
001FFFFFFFF000
003FFFFFFFF800
007FFC00FFFC00
00FFE0001FFE00
01FF800007FF00
03FF000001FF00
03FE000000FF80
07FC000000FF80
0FF80000007F80
0FF00000003FC0
1FF00000003FC0
1FE00000003FC0
1FE00000001FE0
3FC00000001FE0
3FC00000001FE0
3F800000000000
7F800000000000
7F800000000000
7F800000000000
7F000000000000
7F000000000000
FF000000000000
FF000000000000
FF000000000000
FF000000000000
FF000000000000
FF000000000000
FF000000000000
FF000000000000
FF000000000000
FF000000000000
FF000000000000
FF000000000000
FF000000000000
7F000000000000
7F800000000FF0
7F800000000FF0
7F800000000FF0
7F800000000FF0
3FC00000000FF0
3FC00000001FE0
3FE00000001FE0
1FE00000003FE0
1FF00000003FE0
0FF00000003FC0
0FF80000007FC0
07FC000000FF80
07FE000001FF80
03FF000003FF00
01FFC00007FF00
01FFF0001FFE00
00FFFC007FFC00
007FFFFFFFF800
003FFFFFFFF000
000FFFFFFFE000
0007FFFFFFC000
0001FFFFFF0000
00007FFFF80000
000007FF800000
ENDCHAR
STARTCHAR 0044
ENCODING 68
SWIDTH 720 0
DWIDTH 60 0
BBX 49 61 7 0
BITMAP
FFFFFFF8000000
FFFFFFFF800000
FFFFFFFFE00000
FFFFFFFFF80000
FFFFFFFFFC0000
FFFFFFFFFF0000
FFFFFFFFFF8000
FF00000FFFC000
FF000001FFC000
FF000000FFE000
FF0000003FF000
FF0000001FF000
FF0000000FF800
FF00000007F800
FF00000007FC00
FF00000003FC00
FF00000003FE00
FF00000001FE00
FF00000001FE00
FF00000001FE00
FF00000000FF00
FF00000000FF00
FF00000000FF00
FF00000000FF00
FF00000000FF00
FF000000007F00
FF000000007F00
FF000000007F80
FF000000007F80
FF000000007F80
FF000000007F80
FF000000007F80
FF000000007F80
FF000000007F80
FF000000007F00
FF000000007F00
FF000000007F00
FF00000000FF00
FF00000000FF00
FF00000000FF00
FF00000000FF00
FF00000001FE00
FF00000001FE00
FF00000001FE00
FF00000003FC00
FF00000003FC00
FF00000007FC00
FF00000007F800
FF0000000FF800
FF0000001FF000
FF0000003FF000
FF0000007FE000
FF000001FFC000
FF00000FFF8000
FFFFFFFFFF0000
FFFFFFFFFE0000
FFFFFFFFFC0000
FFFFFFFFF80000
FFFFFFFFE00000
FFFFFFFF800000
FFFFFFF8000000
ENDCHAR
STARTCHAR 0045
ENCODING 69
SWIDTH 672 0
DWIDTH 56 0
BBX 44 61 7 0
BITMAP
FFFFFFFFFFE0
FFFFFFFFFFE0
FFFFFFFFFFE0
FFFFFFFFFFE0
FFFFFFFFFFE0
FFFFFFFFFFE0
FFFFFFFFFFE0
FF0000000000
FF0000000000
FF0000000000
FF0000000000
FF0000000000
FF0000000000
FF0000000000
FF0000000000
FF0000000000
FF0000000000
FF0000000000
FF0000000000
FF0000000000
FF0000000000
FF0000000000
FF0000000000
FF0000000000
FF0000000000
FF0000000000
FFFFFFFFFF80
FFFFFFFFFF80
FFFFFFFFFF80
FFFFFFFFFF80
FFFFFFFFFF80
FFFFFFFFFF80
FFFFFFFFFF80
FF0000000000
FF0000000000
FF0000000000
FF0000000000
FF0000000000
FF0000000000
FF0000000000
FF0000000000
FF0000000000
FF0000000000
FF0000000000
FF0000000000
FF0000000000
FF0000000000
FF0000000000
FF0000000000
FF0000000000
FF0000000000
FF0000000000
FF0000000000
FF0000000000
FFFFFFFFFFF0
FFFFFFFFFFF0
FFFFFFFFFFF0
FFFFFFFFFFF0
FFFFFFFFFFF0
FFFFFFFFFFF0
FFFFFFFFFFF0
ENDCHAR
STARTCHAR 0046
ENCODING 70
SWIDTH 612 0
DWIDTH 51 0
BBX 41 61 7 0
BITMAP
FFFFFFFFFF80
FFFFFFFFFF80
FFFFFFFFFF80
FFFFFFFFFF80
FFFFFFFFFF80
FFFFFFFFFF80
FFFFFFFFFF80
FF0000000000
FF0000000000
FF0000000000
FF0000000000
FF0000000000
FF0000000000
FF0000000000
FF0000000000
FF0000000000
FF0000000000
FF0000000000
FF0000000000
FF0000000000
FF0000000000
FF0000000000
FF0000000000
FF0000000000
FF0000000000
FF0000000000
FFFFFFFFF800
FFFFFFFFF800
FFFFFFFFF800
FFFFFFFFF800
FFFFFFFFF800
FFFFFFFFF800
FFFFFFFFF800
FF0000000000
FF0000000000
FF0000000000
FF0000000000
FF0000000000
FF0000000000
FF0000000000
FF0000000000
FF0000000000
FF0000000000
FF0000000000
FF0000000000
FF0000000000
FF0000000000
FF0000000000
FF0000000000
FF0000000000
FF0000000000
FF0000000000
FF0000000000
FF0000000000
FF0000000000
FF0000000000
FF0000000000
FF0000000000
FF0000000000
FF0000000000
FF0000000000
ENDCHAR
STARTCHAR 0047
ENCODING 71
SWIDTH 780 0
DWIDTH 65 0
BBX 55 64 4 -2
BITMAP
000001FFE00000
00001FFFFE0000
0000FFFFFFC000
0003FFFFFFF000
000FFFFFFFF800
001FFFFFFFFE00
003FFFFFFFFF00
007FFE003FFF80
00FFF00007FF80
01FFC00001FFC0
03FF8000007FE0
03FE0000003FF0
07FC0000001FF0
0FF80000000FF8
0FF80000000FF8
1FF000000007F8
1FE000000007FC
3FE000000003FC
3FC000000003FC
3FC000000003FC
7F800000000000
7F800000000000
7F800000000000
7F000000000000
FF000000000000
FF000000000000
FF000000000000
FF000000000000
FF000000000000
FF000000000000
FE000003FFFFFE
FE000003FFFFFE
FE000003FFFFFE
FE000003FFFFFE
FF000003FFFFFE
FF000003FFFFFE
FF000003FFFFFE
FF0000000000FE
FF0000000000FE
FF0000000000FE
FF8000000000FE
7F8000000000FE
7F8000000000FE
7F8000000000FE
7FC000000001FE
3FC000000001FE
3FE000000001FE
1FE000000003FE
1FF000000003FE
0FF800000007FE
0FF80000000FFE
07FC0000001FFE
07FE0000003FFE
03FF8000007FFE
01FFC00000FFFE
00FFF00003FEFE
007FFF001FFC7E
003FFFFFFFF87E
001FFFFFFFF07E
000FFFFFFFC07E
0003FFFFFF803E
0000FFFFFE003E
00003FFFF80000
000003FF800000
ENDCHAR
STARTCHAR 0048
ENCODING 72
SWIDTH 720 0
DWIDTH 60 0
BBX 47 61 7 0
BITMAP
FF00000001FE
FF00000001FE
FF00000001FE
FF00000001FE
FF00000001FE
FF00000001FE
FF00000001FE
FF00000001FE
FF00000001FE
FF00000001FE
FF00000001FE
FF00000001FE
FF00000001FE
FF00000001FE
FF00000001FE
FF00000001FE
FF00000001FE
FF00000001FE
FF00000001FE
FF00000001FE
FF00000001FE
FF00000001FE
FF00000001FE
FF00000001FE
FF00000001FE
FF00000001FE
FFFFFFFFFFFE
FFFFFFFFFFFE
FFFFFFFFFFFE
FFFFFFFFFFFE
FFFFFFFFFFFE
FFFFFFFFFFFE
FFFFFFFFFFFE
FF00000001FE
FF00000001FE
FF00000001FE
FF00000001FE
FF00000001FE
FF00000001FE
FF00000001FE
FF00000001FE
FF00000001FE
FF00000001FE
FF00000001FE
FF00000001FE
FF00000001FE
FF00000001FE
FF00000001FE
FF00000001FE
FF00000001FE
FF00000001FE
FF00000001FE
FF00000001FE
FF00000001FE
FF00000001FE
FF00000001FE
FF00000001FE
FF00000001FE
FF00000001FE
FF00000001FE
FF00000001FE
ENDCHAR
STARTCHAR 0049
ENCODING 73
SWIDTH 276 0
DWIDTH 23 0
BBX 8 61 8 0
BITMAP
FF
FF
FF
FF
FF
FF
FF
FF
FF
FF
FF
FF
FF
FF
FF
FF
FF
FF
FF
FF
FF
FF
FF
FF
FF
FF
FF
FF
FF
FF
FF
FF
FF
FF
FF
FF
FF
FF
FF
FF
FF
FF
FF
FF
FF
FF
FF
FF
FF
FF
FF
FF
FF
FF
FF
FF
FF
FF
FF
FF
FF
ENDCHAR
STARTCHAR 004A
ENCODING 74
SWIDTH 504 0
DWIDTH 42 0
BBX 34 63 1 -2
BITMAP
0000001FC0
0000001FC0
0000001FC0
0000001FC0
0000001FC0
0000001FC0
0000001FC0
0000001FC0
0000001FC0
0000001FC0
0000001FC0
0000001FC0
0000001FC0
0000001FC0
0000001FC0
0000001FC0
0000001FC0
0000001FC0
0000001FC0
0000001FC0
0000001FC0
0000001FC0
0000001FC0
0000001FC0
0000001FC0
0000001FC0
0000001FC0
0000001FC0
0000001FC0
0000001FC0
0000001FC0
0000001FC0
0000001FC0
0000001FC0
0000001FC0
0000001FC0
0000001FC0
0000001FC0
0000001FC0
0000001FC0
0000001FC0
FF00001FC0
FF00001FC0
FF00001FC0
FF00001FC0
FF00001FC0
FF00001FC0
FF00001FC0
FF80003FC0
7F80003FC0
7F80003FC0
7F80003FC0
7FC0007F80
3FE000FF80
3FF001FF80
1FF803FF00
1FFFBFFE00
0FFFFFFE00
07FFFFFC00
03FFFFF800
01FFFFE000
007FFF8000
000FFC0000
ENDCHAR
STARTCHAR 004B
ENCODING 75
SWIDTH 672 0
DWIDTH 56 0
BBX 47 61 7 0
BITMAP
FE00000007FE
FE0000000FFC
FE0000001FF8
FE0000003FF0
FE0000007FE0
FE000000FFC0
FE000001FF80
FE000003FF00
FE000007FE00
FE00000FFC00
FE00001FF800
FE00003FF000
FE00007FE000
FE0000FFC000
FE0001FF8000
FE0003FF0000
FE0007FE0000
FE000FFC0000
FE001FF80000
FE003FF00000
FE003FE00000
FE007FC00000
FE00FF800000
FE01FF000000
FE03FE000000
FE07FE000000
FE0FFF000000
FE1FFF800000
FE3FFF800000
FE7FFFC00000
FEFF3FE00000
FFFE3FE00000
FFFC1FF00000
FFF80FF80000
FFF00FFC0000
FFE007FC0000
FFC003FE0000
FF8001FF0000
FF0001FF0000
FF0000FF8000
FE00007FC000
FE00007FC000
FE00003FE000
FE00001FF000
FE00001FF000
FE00000FF800
FE000007FC00
FE000007FE00
FE000003FE00
FE000001FF00
FE000001FF80
FE000000FF80
FE0000007FC0
FE0000003FE0
FE0000003FE0
FE0000001FF0
FE0000000FF8
FE0000000FF8
FE00000007FC
FE00000003FE
FE00000003FE
ENDCHAR
STARTCHAR 004C
ENCODING 76
SWIDTH 552 0
DWIDTH 46 0
BBX 37 61 7 0
BITMAP
FE00000000
FE00000000
FE00000000
FE00000000
FE00000000
FE00000000
FE00000000
FE00000000
FE00000000
FE00000000
FE00000000
FE00000000
FE00000000
FE00000000
FE00000000
FE00000000
FE00000000
FE00000000
FE00000000
FE00000000
FE00000000
FE00000000
FE00000000
FE00000000
FE00000000
FE00000000
FE00000000
FE00000000
FE00000000
FE00000000
FE00000000
FE00000000
FE00000000
FE00000000
FE00000000
FE00000000
FE00000000
FE00000000
FE00000000
FE00000000
FE00000000
FE00000000
FE00000000
FE00000000
FE00000000
FE00000000
FE00000000
FE00000000
FE00000000
FE00000000
FE00000000
FE00000000
FE00000000
FE00000000
FFFFFFFFF8
FFFFFFFFF8
FFFFFFFFF8
FFFFFFFFF8
FFFFFFFFF8
FFFFFFFFF8
FFFFFFFFF8
ENDCHAR
STARTCHAR 004D
ENCODING 77
SWIDTH 828 0
DWIDTH 69 0
BBX 57 61 6 0
BITMAP
FFE000000003FF80
FFF000000003FF80
FFF000000003FF80
FFF000000007FF80
FFF800000007FF80
FFF800000007FF80
FFF80000000FFF80
FFFC0000000FFF80
FFFC0000000FFF80
FFFC0000001FFF80
FFFE0000001FFF80
FFFE0000001FFF80
FFFE0000003FBF80
FF7F0000003FBF80
FF7F0000003FBF80
FF7F0000007F3F80
FF3F8000007F3F80
FF3F8000007F3F80
FF3F800000FE3F80
FF1FC00000FE3F80
FF1FC00000FE3F80
FF1FC00000FC3F80
FF0FE00001FC3F80
FF0FE00001FC3F80
FF0FE00001F83F80
FF07F00003F83F80
FF07F00003F83F80
FF03F00003F03F80
FF03F80007F03F80
FF03F80007F03F80
FF01F80007E03F80
FF01FC000FE03F80
FF01FC000FE03F80
FF00FC000FC03F80
FF00FE001FC03F80
FF00FE001FC03F80
FF007E001F803F80
FF007F003F803F80
FF007F003F803F80
FF003F003F003F80
FF003F807F003F80
FF003F807F003F80
FF001F807E003F80
FF001FC0FE003F80
FF001FC0FE003F80
FF000FC0FC003F80
FF000FE1FC003F80
FF000FE1FC003F80
FF0007E1F8003F80
FF0007F3F8003F80
FF0007F3F0003F80
FF0003F3F0003F80
FF0003FFF0003F80
FF0003FFE0003F80
FF0001FFE0003F80
FF0001FFE0003F80
FF0001FFC0003F80
FF0000FFC0003F80
FF0000FFC0003F80
FF0000FF80003F80
FF00007F80003F80
ENDCHAR
STARTCHAR 004E
ENCODING 78
SWIDTH 720 0
DWIDTH 60 0
BBX 48 61 6 0
BITMAP
FF80000000FF
FFC0000000FF
FFC0000000FF
FFE0000000FF
FFF0000000FF
FFF0000000FF
FFF8000000FF
FFFC000000FF
FFFC000000FF
FFFE000000FF
FFFE000000FF
FFFF000000FF
FFFF800000FF
FF7F800000FF
FF3FC00000FF
FF3FE00000FF
FF1FE00000FF
FF1FF00000FF
FF0FF80000FF
FF07F80000FF
FF07FC0000FF
FF03FC0000FF
FF01FE0000FF
FF01FF0000FF
FF00FF0000FF
FF007F8000FF
FF007FC000FF
FF003FC000FF
FF003FE000FF
FF001FF000FF
FF000FF000FF
FF000FF800FF
FF0007F800FF
FF0003FC00FF
FF0003FE00FF
FF0001FE00FF
FF0001FF00FF
FF0000FF80FF
FF00007F80FF
FF00007FC0FF
FF00003FE0FF
FF00001FE0FF
FF00001FF0FF
FF00000FF0FF
FF000007F8FF
FF000007FCFF
FF000003FCFF
FF000003FEFF
FF000001FFFF
FF000000FFFF
FF000000FFFF
FF0000007FFF
FF0000003FFF
FF0000003FFF
FF0000001FFF
FF0000000FFF
FF0000000FFF
FF00000007FF
FF00000007FF
FF00000003FF
FF00000001FF
ENDCHAR
STARTCHAR 004F
ENCODING 79
SWIDTH 780 0
DWIDTH 65 0
BBX 59 64 3 -2
BITMAP
000000FFE0000000
00000FFFFE000000
00007FFFFFC00000
0001FFFFFFF00000
0007FFFFFFFC0000
000FFFFFFFFE0000
001FFFFFFFFF0000
003FFF001FFFC000
007FF80003FFE000
00FFE00000FFE000
01FF8000003FF000
03FF0000001FF800
07FE0000000FFC00
07FC00000007FC00
0FF800000003FE00
0FF000000003FE00
1FF000000001FF00
1FE000000000FF00
3FE000000000FF80
3FC0000000007F80
3FC0000000007F80
3FC0000000007FC0
7F80000000003FC0
7F80000000003FC0
7F80000000003FC0
7F80000000003FC0
7F00000000001FE0
FF00000000001FE0
FF00000000001FE0
FF00000000001FE0
FF00000000001FE0
FF00000000001FE0
FF00000000001FE0
FF00000000001FE0
FF00000000001FE0
FF00000000001FE0
FF00000000001FE0
7F00000000001FE0
7F80000000001FC0
7F80000000003FC0
7F80000000003FC0
7F80000000003FC0
7FC0000000003F80
3FC0000000007F80
3FC0000000007F80
3FE000000000FF80
1FE000000000FF00
1FF000000001FF00
0FF800000001FE00
0FF800000003FE00
07FC00000007FC00
07FE0000000FFC00
03FF0000001FF800
01FFC000003FF000
00FFE00000FFE000
007FF80003FFE000
007FFF001FFFC000
001FFFFFFFFF0000
000FFFFFFFFE0000
0007FFFFFFFC0000
0001FFFFFFF00000
00007FFFFFC00000
00000FFFFE000000
000000FFE0000000
ENDCHAR
STARTCHAR 0050
ENCODING 80
SWIDTH 672 0
DWIDTH 56 0
BBX 43 61 8 0
BITMAP
FFFFFFFC0000
FFFFFFFFC000
FFFFFFFFF000
FFFFFFFFF800
FFFFFFFFFC00
FFFFFFFFFE00
FFFFFFFFFF00
FE00000FFF80
FE000001FF80
FE000000FFC0
FE0000007FC0
FE0000003FE0
FE0000003FE0
FE0000001FE0
FE0000001FE0
FE0000001FE0
FE0000001FE0
FE0000001FE0
FE0000001FE0
FE0000001FE0
FE0000001FE0
FE0000001FE0
FE0000003FE0
FE0000003FE0
FE0000007FC0
FE000000FFC0
FE000001FFC0
FE00000FFF80
FFFFFFFFFF00
FFFFFFFFFE00
FFFFFFFFFC00
FFFFFFFFF800
FFFFFFFFF000
FFFFFFFFC000
FFFFFFFE0000
FE0000000000
FE0000000000
FE0000000000
FE0000000000
FE0000000000
FE0000000000
FE0000000000
FE0000000000
FE0000000000
FE0000000000
FE0000000000
FE0000000000
FE0000000000
FE0000000000
FE0000000000
FE0000000000
FE0000000000
FE0000000000
FE0000000000
FE0000000000
FE0000000000
FE0000000000
FE0000000000
FE0000000000
FE0000000000
FE0000000000
ENDCHAR
STARTCHAR 0051
ENCODING 81
SWIDTH 780 0
DWIDTH 65 0
BBX 59 67 3 -5
BITMAP
000000FFE0000000
00000FFFFE000000
00007FFFFFC00000
0001FFFFFFF00000
0007FFFFFFFC0000
000FFFFFFFFE0000
001FFFFFFFFF0000
003FFF001FFFC000
007FF80003FFE000
00FFE00000FFE000
01FF8000007FF000
03FF0000001FF800
07FE0000000FFC00
07FC00000007FC00
0FF800000003FE00
0FF000000003FE00
1FF000000001FF00
1FE000000000FF00
3FE000000000FF80
3FC0000000007F80
3FC0000000007F80
3FC0000000007FC0
7F80000000003FC0
7F80000000003FC0
7F80000000003FC0
7F80000000001FC0
7F00000000001FE0
FF00000000001FE0
FF00000000001FE0
FF00000000001FE0
FF00000000001FE0
FF00000000001FE0
FF00000000001FE0
FF00000000001FE0
FF00000000001FE0
FF00000000001FE0
FF00000000001FE0
7F00000000001FE0
7F80000000001FC0
7F80000000003FC0
7F80000000003FC0
7F80000000003FC0
3FC0000000003FC0
3FC0000000007F80
3FC0000000007F80
3FE000000400FF80
1FE000000E00FF00
1FF000001F01FF00
0FF800003F81FE00
0FF800007FE3FE00
07FC00003FF7FC00
07FE00001FFFFC00
03FF000007FFF800
01FF800003FFF000
00FFE00001FFE000
007FF80003FFC000
003FFF001FFFE000
001FFFFFFFFFF000
000FFFFFFFFFFC00
0007FFFFFFFFFE00
0001FFFFFFF3FF00
00007FFFFFC1FF80
00000FFFFE007FC0
000000FFE0003F80
0000000000001F00
0000000000000E00
0000000000000200
ENDCHAR
STARTCHAR 0052
ENCODING 82
SWIDTH 720 0
DWIDTH 60 0
BBX 49 61 8 0
BITMAP
FFFFFFFF800000
FFFFFFFFF80000
FFFFFFFFFE0000
FFFFFFFFFF8000
FFFFFFFFFFC000
FFFFFFFFFFE000
FFFFFFFFFFF000
FE000000FFF000
FE0000003FF800
FE0000001FF800
FE0000000FF800
FE00000007FC00
FE00000007FC00
FE00000003FC00
FE00000003FC00
FE00000003FC00
FE00000003FC00
FE00000003FC00
FE00000003FC00
FE00000003FC00
FE00000003FC00
FE00000003FC00
FE00000007F800
FE00000007F800
FE0000000FF000
FE0000001FF000
FE0000003FE000
FE000001FFC000
FFFFFFFFFF8000
FFFFFFFFFE0000
FFFFFFFFFC0000
FFFFFFFFFC0000
FFFFFFFFFF0000
FFFFFFFFFF8000
FFFFFFFFFFC000
FE000000FFE000
FE0000003FE000
FE0000001FF000
FE0000000FF000
FE0000000FF000
FE00000007F800
FE00000007F800
FE00000007F800
FE00000007F800
FE00000007F800
FE00000007F800
FE00000007F800
FE00000007F800
FE00000007F800
FE00000007F800
FE00000007F800
FE00000007F800
FE00000007F800
FE00000003F800
FE00000003FC00
FE00000003FC00
FE00000003FC00
FE00000003FE00
FE00000003FF00
FE00000001FF80
FE00000001FF80
ENDCHAR
STARTCHAR 0053
ENCODING 83
SWIDTH 672 0
DWIDTH 56 0
BBX 48 64 4 -2
BITMAP
00003FFC0000
0003FFFFC000
001FFFFFF000
003FFFFFFC00
00FFFFFFFE00
01FFFFFFFF00
03FFFFFFFF80
07FF8003FFC0
0FFE0000FFE0
0FF800003FF0
1FF000001FF0
1FE000000FF0
1FE0000007F8
3FC0000007F8
3FC0000003F8
3FC0000003FC
3FC0000003FC
3FC0000003FC
3FC0000003FC
3FC000000000
3FC000000000
3FE000000000
3FF000000000
1FFC00000000
1FFF00000000
0FFFC0000000
0FFFFC000000
07FFFFC00000
03FFFFF80000
00FFFFFF8000
007FFFFFF800
000FFFFFFE00
0001FFFFFF80
00001FFFFFC0
000003FFFFE0
0000003FFFF0
00000003FFF8
000000007FFC
000000001FFC
0000000007FE
0000000003FE
0000000001FE
0000000001FF
FE00000000FF
FE00000000FF
FF00000000FF
FF00000000FF
FF00000000FF
7F00000000FE
7F80000001FE
7F80000001FE
7FC0000003FE
3FE0000003FC
3FF0000007FC
1FF800000FF8
0FFE00003FF8
0FFFC001FFF0
07FFFFFFFFE0
03FFFFFFFFC0
00FFFFFFFF80
007FFFFFFE00
001FFFFFF800
0003FFFFE000
00003FFC0000
ENDCHAR
STARTCHAR 0054
ENCODING 84
SWIDTH 612 0
DWIDTH 51 0
BBX 47 61 2 0
BITMAP
FFFFFFFFFFFE
FFFFFFFFFFFE
FFFFFFFFFFFE
FFFFFFFFFFFE
FFFFFFFFFFFE
FFFFFFFFFFFE
FFFFFFFFFFFE
00000FE00000
00000FE00000
00000FE00000
00000FE00000
00000FE00000
00000FE00000
00000FE00000
00000FE00000
00000FE00000
00000FE00000
00000FE00000
00000FE00000
00000FE00000
00000FE00000
00000FE00000
00000FE00000
00000FE00000
00000FE00000
00000FE00000
00000FE00000
00000FE00000
00000FE00000
00000FE00000
00000FE00000
00000FE00000
00000FE00000
00000FE00000
00000FE00000
00000FE00000
00000FE00000
00000FE00000
00000FE00000
00000FE00000
00000FE00000
00000FE00000
00000FE00000
00000FE00000
00000FE00000
00000FE00000
00000FE00000
00000FE00000
00000FE00000
00000FE00000
00000FE00000
00000FE00000
00000FE00000
00000FE00000
00000FE00000
00000FE00000
00000FE00000
00000FE00000
00000FE00000
00000FE00000
00000FE00000
ENDCHAR
STARTCHAR 0055
ENCODING 85
SWIDTH 720 0
DWIDTH 60 0
BBX 47 63 7 -2
BITMAP
FF00000001FE
FF00000001FE
FF00000001FE
FF00000001FE
FF00000001FE
FF00000001FE
FF00000001FE
FF00000001FE
FF00000001FE
FF00000001FE
FF00000001FE
FF00000001FE
FF00000001FE
FF00000001FE
FF00000001FE
FF00000001FE
FF00000001FE
FF00000001FE
FF00000001FE
FF00000001FE
FF00000001FE
FF00000001FE
FF00000001FE
FF00000001FE
FF00000001FE
FF00000001FE
FF00000001FE
FF00000001FE
FF00000001FE
FF00000001FE
FF00000001FE
FF00000001FE
FF00000001FE
FF00000001FE
FF00000001FE
FF00000001FE
FF00000001FE
FF00000001FE
FF00000001FE
FF00000001FE
FF00000001FE
FF00000001FE
FF00000001FE
FF00000001FE
FF00000001FE
FF00000001FE
FF00000001FC
7F00000003FC
7F80000003FC
7F80000007FC
7FC0000007F8
3FE000000FF8
3FF000001FF0
1FF800003FF0
1FFE0000FFE0
0FFFC007FFC0
07FFFFFFFFC0
03FFFFFFFF00
01FFFFFFFE00
007FFFFFFC00
001FFFFFF000
0007FFFF8000
00007FF80000
ENDCHAR
STARTCHAR 0056
ENCODING 86
SWIDTH 672 0
DWIDTH 56 0
BBX 51 61 3 0
BITMAP
FF000000003FE0
FF000000003FC0
FF800000003FC0
7F800000007FC0
7F800000007F80
7FC00000007F80
3FC0000000FF00
3FC0000000FF00
1FE0000000FF00
1FE0000001FE00
1FE0000001FE00
0FF0000001FE00
0FF0000003FC00
0FF8000003FC00
07F8000003FC00
07F8000007F800
07FC000007F800
03FC000007F800
03FC00000FF000
03FE00000FF000
01FE00000FF000
01FE00001FE000
00FF00001FE000
00FF00001FE000
00FF00001FC000
007F80003FC000
007F80003FC000
007F80003F8000
003FC0007F8000
003FC0007F8000
003FC0007F0000
001FE000FF0000
001FE000FF0000
001FE000FE0000
000FF001FE0000
000FF001FC0000
0007F001FC0000
0007F803FC0000
0007F803F80000
0003F803F80000
0003FC07F80000
0003FC07F00000
0001FE07F00000
0001FE0FF00000
0001FE0FE00000
0000FF0FE00000
0000FF1FE00000
0000FF1FC00000
00007F9FC00000
00007FBFC00000
00003FBF800000
00003FFF800000
00003FFF800000
00001FFF000000
00001FFF000000
00001FFF000000
00000FFE000000
00000FFE000000
00000FFE000000
000007FC000000
000007FC000000
ENDCHAR
STARTCHAR 0057
ENCODING 87
SWIDTH 948 0
DWIDTH 79 0
BBX 75 61 2 0
BITMAP
FF8000007FC000001FE0
FF8000007FC000003FE0
FF8000007FC000003FE0
7F800000FFE000003FE0
7FC00000FFE000003FC0
7FC00000FFE000007FC0
7FC00000FFF000007FC0
3FC00001FFF000007FC0
3FC00001FFF000007F80
3FE00001FFF000007F80
3FE00001FFF80000FF80
1FE00003FBF80000FF00
1FE00003FBF80000FF00
1FF00003FBFC0000FF00
0FF00007FBFC0001FF00
0FF00007F1FC0001FE00
0FF00007F1FC0001FE00
0FF80007F1FE0001FE00
07F8000FE0FE0001FE00
07F8000FE0FE0003FC00
07F8000FE0FE0003FC00
07F8000FE0FF0003FC00
03FC001FC07F0003FC00
03FC001FC07F0007F800
03FC001FC07F8007F800
03FC003FC03F8007F800
01FE003F803F8007F800
01FE003F803F8007F000
01FE003F803FC00FF000
01FE007F001FC00FF000
00FF007F001FC00FF000
00FF007F001FE00FE000
00FF007F000FE01FE000
00FF00FE000FE01FE000
007F00FE000FE01FE000
007F80FE000FF01FC000
007F81FE0007F01FC000
007F81FC0007F03FC000
003F81FC0007F83FC000
003FC1FC0007F83F8000
003FC3F80003F83F8000
003FC3F80003F87F8000
001FC3F80003FC7F8000
001FE3F80001FC7F0000
001FE7F00001FC7F0000
001FE7F00001FCFF0000
000FE7F00001FEFF0000
000FEFF00000FEFE0000
000FFFE00000FEFE0000
000FFFE00000FFFE0000
0007FFE000007FFE0000
0007FFC000007FFC0000
0007FFC000007FFC0000
0007FFC000007FFC0000
0003FFC000003FFC0000
0003FF8000003FF80000
0003FF8000003FF80000
0003FF8000003FF80000
0001FF8000001FF80000
0001FF0000001FF00000
0001FF0000001FF00000
ENDCHAR
STARTCHAR 0058
ENCODING 88
SWIDTH 672 0
DWIDTH 56 0
BBX 52 61 2 0
BITMAP
7FE00000007FE0
3FF00000007FC0
1FF0000000FF80
0FF8000000FF80
0FFC000001FF00
07FC000003FE00
03FE000003FE00
03FE000007FC00
01FF00000FF800
00FF80000FF800
00FF80001FF000
007FC0003FE000
003FE0003FC000
003FE0007FC000
001FF000FF8000
000FF800FF0000
000FF801FF0000
0007FC03FE0000
0003FE03FC0000
0003FE07FC0000
0001FF0FF80000
0000FF8FF00000
0000FF9FF00000
00007FFFE00000
00003FFFC00000
00003FFF800000
00001FFF800000
00000FFF000000
00000FFE000000
000007FE000000
000007FE000000
00000FFF000000
00001FFF800000
00001FFF800000
00003FFFC00000
00007FFFE00000
00007FBFE00000
0000FF9FF00000
0001FF0FF80000
0001FE0FF80000
0003FE07FC0000
0007FC03FE0000
0007F803FE0000
000FF801FF0000
001FF000FF8000
003FE000FF8000
003FE0007FC000
007FC0003FE000
00FF80003FF000
00FF80001FF000
01FF00000FF800
03FE00000FFC00
03FE000007FC00
07FC000003FE00
0FF8000003FF00
0FF8000001FF00
1FF0000000FF80
3FF0000000FFC0
3FE00000007FC0
7FC00000007FE0
FFC00000003FF0
ENDCHAR
STARTCHAR 0059
ENCODING 89
SWIDTH 672 0
DWIDTH 56 0
BBX 54 61 1 0
BITMAP
FFC000000007FC
7FE00000000FF8
3FE00000001FF8
3FF00000001FF0
1FF00000003FE0
0FF80000003FE0
0FFC0000007FC0
07FC000000FF80
07FE000000FF80
03FE000001FF00
01FF000001FF00
01FF800003FE00
00FF800003FC00
007FC00007FC00
007FC0000FF800
003FE0000FF800
003FF0001FF000
001FF0001FE000
000FF8003FE000
000FF8007FC000
0007FC007F8000
0003FE00FF8000
0003FE00FF0000
0001FF01FF0000
0000FF01FE0000
0000FF83FC0000
00007FC7FC0000
00007FC7F80000
00003FEFF80000
00001FEFF00000
00001FFFE00000
00000FFFE00000
000007FFC00000
000007FF800000
000003FF800000
000003FF000000
000001FF000000
000001FE000000
000001FE000000
000001FE000000
000001FE000000
000001FE000000
000001FE000000
000001FE000000
000001FE000000
000001FE000000
000001FE000000
000001FE000000
000001FE000000
000001FE000000
000001FE000000
000001FE000000
000001FE000000
000001FE000000
000001FE000000
000001FE000000
000001FE000000
000001FE000000
000001FE000000
000001FE000000
000001FE000000
ENDCHAR
STARTCHAR 005A
ENCODING 90
SWIDTH 612 0
DWIDTH 51 0
BBX 47 61 2 0
BITMAP
1FFFFFFFFFFC
1FFFFFFFFFFC
1FFFFFFFFFFC
1FFFFFFFFFFC
1FFFFFFFFFFC
1FFFFFFFFFFC
1FFFFFFFFFFC
000000000FFC
000000000FF8
000000001FF0
000000003FF0
000000007FE0
00000000FFC0
00000000FF80
00000001FF80
00000003FF00
00000007FE00
00000007FC00
0000000FFC00
0000001FF800
0000003FF000
0000003FE000
0000007FC000
000000FFC000
000001FF8000
000003FF0000
000003FE0000
000007FE0000
00000FFC0000
00001FF80000
00001FF00000
00003FF00000
00007FE00000
0000FFC00000
0000FF800000
0001FF000000
0003FF000000
0007FE000000
000FFC000000
000FF8000000
001FF8000000
003FF0000000
007FE0000000
007FC0000000
00FFC0000000
01FF80000000
03FF00000000
07FE00000000
07FC00000000
0FFC00000000
1FF800000000
3FF000000000
3FE000000000
7FE000000000
FFFFFFFFFFFE
FFFFFFFFFFFE
FFFFFFFFFFFE
FFFFFFFFFFFE
FFFFFFFFFFFE
FFFFFFFFFFFE
FFFFFFFFFFFE
ENDCHAR
STARTCHAR 005B
ENCODING 91
SWIDTH 276 0
DWIDTH 23 0
BBX 16 79 5 -18
BITMAP
FFFF
FFFF
FFFF
FFFF
FFFF
FFFF
FE00
FE00
FE00
FE00
FE00
FE00
FE00
FE00
FE00
FE00
FE00
FE00
FE00
FE00
FE00
FE00
FE00
FE00
FE00
FE00
FE00
FE00
FE00
FE00
FE00
FE00
FE00
FE00
FE00
FE00
FE00
FE00
FE00
FE00
FE00
FE00
FE00
FE00
FE00
FE00
FE00
FE00
FE00
FE00
FE00
FE00
FE00
FE00
FE00
FE00
FE00
FE00
FE00
FE00
FE00
FE00
FE00
FE00
FE00
FE00
FE00
FE00
FE00
FE00
FE00
FE00
FE00
FFFF
FFFF
FFFF
FFFF
FFFF
FFFF
ENDCHAR
STARTCHAR 005C
ENCODING 92
SWIDTH 276 0
DWIDTH 23 0
BBX 25 63 -1 -2
BITMAP
F8000000
78000000
7C000000
7C000000
3C000000
3E000000
3E000000
1E000000
1F000000
1F000000
0F000000
0F800000
0F800000
07800000
07800000
07C00000
07C00000
03C00000
03E00000
03E00000
01E00000
01F00000
01F00000
00F00000
00F80000
00F80000
00780000
007C0000
007C0000
003C0000
003C0000
003E0000
001E0000
001E0000
001F0000
001F0000
000F0000
000F8000
000F8000
00078000
0007C000
0007C000
0003C000
0003E000
0003E000
0001E000
0001E000
0001F000
0000F000
0000F000
0000F800
0000F800
00007800
00007C00
00007C00
00003C00
00003E00
00003E00
00001E00
00001F00
00001F00
00000F00
00000F80
ENDCHAR
STARTCHAR 005D
ENCODING 93
SWIDTH 276 0
DWIDTH 23 0
BBX 15 79 2 -18
BITMAP
FFFE
FFFE
FFFE
FFFE
FFFE
FFFE
00FE
00FE
00FE
00FE
00FE
00FE
00FE
00FE
00FE
00FE
00FE
00FE
00FE
00FE
00FE
00FE
00FE
00FE
00FE
00FE
00FE
00FE
00FE
00FE
00FE
00FE
00FE
00FE
00FE
00FE
00FE
00FE
00FE
00FE
00FE
00FE
00FE
00FE
00FE
00FE
00FE
00FE
00FE
00FE
00FE
00FE
00FE
00FE
00FE
00FE
00FE
00FE
00FE
00FE
00FE
00FE
00FE
00FE
00FE
00FE
00FE
00FE
00FE
00FE
00FE
00FE
00FE
FFFE
FFFE
FFFE
FFFE
FFFE
FFFE
ENDCHAR
STARTCHAR 005E
ENCODING 94
SWIDTH 468 0
DWIDTH 39 0
BBX 31 32 4 27
BITMAP
000FE000
000FE000
001FF000
001FF000
001FF000
003FF800
003FF800
007EFC00
007EFC00
007C7C00
00FC7E00
00FC7E00
01F83F00
01F83F00
01F01F00
03F01F80
03E00F80
07E00FC0
07E00FC0
07C007C0
0FC007E0
0F8003E0
1F8003F0
1F8003F0
1F0001F8
3F0001F8
3E0000F8
7E0000FC
7E0000FC
FC00007E
FC00007E
F800003E
ENDCHAR
STARTCHAR 005F
ENCODING 95
SWIDTH 552 0
DWIDTH 46 0
BBX 50 4 -2 -15
BITMAP
FFFFFFFFFFFFC0
FFFFFFFFFFFFC0
FFFFFFFFFFFFC0
FFFFFFFFFFFFC0
ENDCHAR
STARTCHAR 0060
ENCODING 96
SWIDTH 336 0
DWIDTH 28 0
BBX 17 12 2 50
BITMAP
FFC000
7FC000
3FE000
1FF000
0FF000
07F800
03F800
01FC00
00FE00
007E00
003F00
001F80
ENDCHAR
STARTCHAR 0061
ENCODING 97
SWIDTH 552 0
DWIDTH 46 0
BBX 41 47 4 -2
BITMAP
0003FF800000
003FFFF00000
00FFFFFC0000
03FFFFFF0000
07FFFFFF8000
0FFFFFFFC000
1FFFDFFFC000
1FF8007FE000
3FE0003FE000
3FC0001FE000
3F80000FE000
3F80000FE000
3F80000FE000
7F80000FE000
0000000FE000
0000000FE000
0000000FE000
0000000FE000
0000003FE000
000003FFE000
0001FFFFE000
003FFFFFE000
01FFFFFFE000
07FFFFFFE000
0FFFFF8FE000
1FFFF00FE000
3FFC000FE000
7FE0000FE000
7F80000FE000
FF00000FE000
FF00000FE000
FE00000FE000
FE00000FE000
FE00000FE000
FE00000FE000
FE00001FE000
FE00003FE000
FF00007FE000
FF0000FFE000
FFC003FFF000
7FF01FFFF800
3FFFFFF7FF80
3FFFFFC7FF80
1FFFFF87FF80
07FFFE03FF80
03FFF801FF80
007FC0007F00
ENDCHAR
STARTCHAR 0062
ENCODING 98
SWIDTH 552 0
DWIDTH 46 0
BBX 40 63 4 -2
BITMAP
FE00000000
FE00000000
FE00000000
FE00000000
FE00000000
FE00000000
FE00000000
FE00000000
FE00000000
FE00000000
FE00000000
FE00000000
FE00000000
FE00000000
FE00000000
FE00000000
FE00FFC000
FE03FFF800
FE0FFFFE00
FE1FFFFF00
FE3FFFFF80
FE7FFFFFC0
FEFFFFFFE0
FFFE00FFF0
FFF8003FF0
FFF0001FF8
FFE0000FF8
FFC00007FC
FFC00003FC
FF800003FC
FF800001FE
FF800001FE
FF000001FE
FF000000FE
FF000000FE
FF000000FE
FF000000FF
FE000000FF
FE000000FF
FE000000FF
FE000000FF
FF000000FF
FF000000FE
FF000000FE
FF000000FE
FF000000FE
FF000001FE
FF800001FE
FF800001FC
FF800003FC
FFC00003FC
FFE00007F8
FFE0000FF8
FFF0001FF0
FFF8003FF0
FFFE00FFE0
FFFFEFFFC0
FEFFFFFF80
FE7FFFFF00
FE3FFFFE00
FE0FFFFC00
0007FFF000
0000FF8000
ENDCHAR
STARTCHAR 0063
ENCODING 99
SWIDTH 504 0
DWIDTH 42 0
BBX 37 47 3 -2
BITMAP
0001FF0000
000FFFE000
003FFFF800
00FFFFFC00
01FFFFFF00
03FFFFFF80
07FFCFFF80
0FFC00FFC0
1FF0007FE0
1FE0001FE0
3FC0001FE0
3FC0000FF0
3F80000FF0
7F800007F0
7F000007F0
7F000007F0
FF00000000
FE00000000
FE00000000
FE00000000
FE00000000
FE00000000
FE00000000
FE00000000
FE00000000
FE00000000
FE00000000
FE00000000
FE00000000
FE00000000
FF000003F8
FF000007F8
7F000007F0
7F800007F0
7F800007F0
3FC0000FF0
3FC0001FE0
1FE0001FE0
1FF0003FC0
0FFC00FFC0
07FFCFFF80
07FFFFFF00
03FFFFFE00
00FFFFFC00
007FFFF800
001FFFE000
0003FF0000
ENDCHAR
STARTCHAR 0064
ENCODING 100
SWIDTH 552 0
DWIDTH 46 0
BBX 39 63 2 -2
BITMAP
00000000FE
00000000FE
00000000FE
00000000FE
00000000FE
00000000FE
00000000FE
00000000FE
00000000FE
00000000FE
00000000FE
00000000FE
00000000FE
00000000FE
00000000FE
00000000FE
0001FE00FE
000FFFC0FE
003FFFF0FE
00FFFFFCFE
01FFFFFEFE
03FFFFFEFE
07FFFFFFFE
0FFE007FFE
0FFC003FFE
1FF0000FFE
1FE00007FE
3FE00007FE
3FC00003FE
3F800003FE
7F800001FE
7F800001FE
7F000001FE
7F000000FE
7F000000FE
FF000000FE
FF000000FE
FE000000FE
FE000000FE
FE000000FE
FE000000FE
FF000000FE
FF000000FE
FF000000FE
7F000000FE
7F000000FE
7F000001FE
7F800001FE
7F800001FE
3FC00003FE
3FC00003FE
3FE00007FE
1FF00007FE
1FF0000FFE
0FFC001FFE
0FFF007FFE
07FFFFFF7E
03FFFFFE7E
01FFFFFC7E
00FFFFF87E
003FFFF07E
000FFFC000
0001FF0000
ENDCHAR
STARTCHAR 0065
ENCODING 101
SWIDTH 552 0
DWIDTH 46 0
BBX 40 47 3 -2
BITMAP
0000FF8000
0007FFF000
001FFFFC00
007FFFFF00
00FFFFFF80
01FFFFFFC0
03FFE7FFE0
07FE007FF0
0FF8001FF8
0FF0000FF8
1FE00007FC
1FE00003FC
3FC00003FC
3F800001FE
3F800001FE
7F800000FE
7F000000FE
7F000000FE
7F000000FE
7F000000FF
7FFFFFFFFF
FFFFFFFFFF
FFFFFFFFFF
FFFFFFFFFF
FFFFFFFFFF
FFFFFFFFFF
FF00000000
7F00000000
7F00000000
7F00000000
7F00000000
7F00000000
7F800000FE
3F800001FC
3FC00001FC
3FC00003FC
1FE00007F8
1FF00007F8
0FF8001FF0
07FE003FF0
07FFF3FFE0
03FFFFFFC0
01FFFFFF80
00FFFFFF00
003FFFFC00
000FFFF000
0001FF8000
ENDCHAR
STARTCHAR 0066
ENCODING 102
SWIDTH 276 0
DWIDTH 23 0
BBX 20 61 1 0
BITMAP
0007F0
001FF0
007FF0
00FFF0
00FFF0
01FFF0
01FF00
01FC00
03FC00
03F800
03F800
03F800
03F800
03F800
03F800
03F800
03F800
FFFFF0
FFFFF0
FFFFF0
FFFFF0
FFFFF0
FFFFF0
03F800
03F800
03F800
03F800
03F800
03F800
03F800
03F800
03F800
03F800
03F800
03F800
03F800
03F800
03F800
03F800
03F800
03F800
03F800
03F800
03F800
03F800
03F800
03F800
03F800
03F800
03F800
03F800
03F800
03F800
03F800
03F800
03F800
03F800
03F800
03F800
03F800
03F800
ENDCHAR
STARTCHAR 0067
ENCODING 103
SWIDTH 552 0
DWIDTH 46 0
BBX 37 63 3 -18
BITMAP
0003FC0000
001FFF81F8
007FFFC1F8
00FFFFE1F8
01FFFFF1F8
03FFFFF9F8
07FFDFFDF8
0FFC01FFF8
0FF0007FF8
1FE0003FF8
1FC0001FF8
3FC0001FF8
3F80000FF8
3F80000FF8
7F000007F8
7F000007F8
7F000007F8
7F000007F8
FF000003F8
FE000003F8
FE000003F8
FE000003F8
FE000003F8
FE000003F8
FE000003F8
FE000003F8
FE000003F8
FE000003F8
FF000003F8
FF000003F8
FF000007F8
7F000007F8
7F000007F8
7F80000FF8
3F80000FF8
3FC0001FF8
3FC0001FF8
1FE0003FF8
1FF0007FF8
0FFC01FFF8
07FFDFFBF8
03FFFFF3F8
01FFFFE3F8
00FFFFC3F8
007FFF83F8
001FFF03F8
0003F803F8
00000003F8
00000007F0
00000007F0
7F800007F0
3F800007F0
3F80000FE0
3FC0001FE0
3FC0001FC0
1FE0007FC0
0FF801FF80
0FFFFFFF00
07FFFFFE00
03FFFFFC00
00FFFFF800
003FFFE000
0007FE0000
ENDCHAR
STARTCHAR 0068
ENCODING 104
SWIDTH 552 0
DWIDTH 46 0
BBX 34 61 6 0
BITMAP
FE00000000
FE00000000
FE00000000
FE00000000
FE00000000
FE00000000
FE00000000
FE00000000
FE00000000
FE00000000
FE00000000
FE00000000
FE00000000
FE00000000
FE00000000
FE00000000
FE00FF8000
FE07FFF000
FE0FFFFC00
FE3FFFFE00
FE7FFFFF00
FEFFFFFF80
FFFE07FF80
FFF800FFC0
FFF0007FC0
FFE0003FC0
FFC0001FC0
FF80001FC0
FF80001FC0
FF00000FC0
FF00000FC0
FE00000FC0
FE00000FC0
FE00000FC0
FE00000FC0
FE00000FC0
FE00000FC0
FE00000FC0
FE00000FC0
FE00000FC0
FE00000FC0
FE00000FC0
FE00000FC0
FE00000FC0
FE00000FC0
FE00000FC0
FE00000FC0
FE00000FC0
FE00000FC0
FE00000FC0
FE00000FC0
FE00000FC0
FE00000FC0
FE00000FC0
FE00000FC0
FE00000FC0
FE00000FC0
FE00000FC0
FE00000FC0
FE00000FC0
FE00000FC0
ENDCHAR
STARTCHAR 0069
ENCODING 105
SWIDTH 228 0
DWIDTH 19 0
BBX 7 61 5 0
BITMAP
FE
FE
FE
FE
FE
FE
FE
FE
FE
00
00
00
00
00
00
00
00
7E
7E
7E
7E
7E
7E
7E
7E
7E
7E
7E
7E
7E
7E
7E
7E
7E
7E
7E
7E
7E
7E
7E
7E
7E
7E
7E
7E
7E
7E
7E
7E
7E
7E
7E
7E
7E
7E
7E
7E
7E
7E
7E
7E
ENDCHAR
STARTCHAR 006A
ENCODING 106
SWIDTH 228 0
DWIDTH 19 0
BBX 14 79 -1 -18
BITMAP
01FC
01FC
01FC
01FC
01FC
01FC
01FC
01FC
01FC
0000
0000
0000
0000
0000
0000
0000
0000
01FC
01FC
01FC
01FC
01FC
01FC
01FC
01FC
01FC
01FC
01FC
01FC
01FC
01FC
01FC
01FC
01FC
01FC
01FC
01FC
01FC
01FC
01FC
01FC
01FC
01FC
01FC
01FC
01FC
01FC
01FC
01FC
01FC
01FC
01FC
01FC
01FC
01FC
01FC
01FC
01FC
01FC
01FC
01FC
01FC
01FC
01FC
01FC
01FC
01FC
01FC
01FC
01FC
03FC
03FC
07F8
FFF8
FFF8
FFF0
FFE0
FFC0
FE00
ENDCHAR
STARTCHAR 006B
ENCODING 107
SWIDTH 504 0
DWIDTH 42 0
BBX 37 61 5 0
BITMAP
FE00000000
FE00000000
FE00000000
FE00000000
FE00000000
FE00000000
FE00000000
FE00000000
FE00000000
FE00000000
FE00000000
FE00000000
FE00000000
FE00000000
FE00000000
FE00000000
FE00000000
FE00007FC0
FE0000FF80
FE0001FF00
FE0003FE00
FE0007FC00
FE000FF800
FE001FF000
FE003FE000
FE007FC000
FE00FF8000
FE01FF0000
FE03FE0000
FE07FC0000
FE0FF80000
FE1FF00000
FE3FE00000
FE7FF00000
FEFFF00000
FFFFF80000
FFFFFC0000
FFFBFC0000
FFF3FE0000
FFE1FF0000
FFC0FF0000
FF80FF8000
FF007F8000
FE007FC000
FE003FE000
FE001FE000
FE001FF000
FE000FF000
FE000FF800
FE0007FC00
FE0003FC00
FE0003FE00
FE0001FF00
FE0000FF00
FE0000FF80
FE00007F80
FE00007FC0
FE00003FE0
FE00001FE0
FE00001FF0
FE00000FF8
ENDCHAR
STARTCHAR 006C
ENCODING 108
SWIDTH 228 0
DWIDTH 19 0
BBX 7 61 6 0
BITMAP
FE
FE
FE
FE
FE
FE
FE
FE
FE
FE
FE
FE
FE
FE
FE
FE
FE
FE
FE
FE
FE
FE
FE
FE
FE
FE
FE
FE
FE
FE
FE
FE
FE
FE
FE
FE
FE
FE
FE
FE
FE
FE
FE
FE
FE
FE
FE
FE
FE
FE
FE
FE
FE
FE
FE
FE
FE
FE
FE
FE
FE
ENDCHAR
STARTCHAR 006D
ENCODING 109
SWIDTH 828 0
DWIDTH 69 0
BBX 57 45 6 0
BITMAP
0001FF0000FF8000
FC0FFFE007FFF000
FC1FFFF00FFFFC00
FC7FFFF81FFFFE00
FCFFFFFC7FFFFE00
FCFFFFFEFFFFFF00
FDFC0FFEFF07FF80
FFF003FFF801FF80
FFE001FFF000FF80
FFC000FFE0007F80
FF8000FFC0003F80
FF00007FC0003F80
FF00007F80003F80
FE00007F80003F80
FE00007F80003F80
FE00007F00003F80
FE00007F00003F80
FE00007F00003F80
FE00007F00003F80
FE00007F00003F80
FE00007F00003F80
FE00007F00003F80
FE00007F00003F80
FE00007F00003F80
FE00007F00003F80
FE00007F00003F80
FE00007F00003F80
FE00007F00003F80
FE00007F00003F80
FE00007F00003F80
FE00007F00003F80
FE00007F00003F80
FE00007F00003F80
FE00007F00003F80
FE00007F00003F80
FE00007F00003F80
FE00007F00003F80
FE00007F00003F80
FE00007F00003F80
FE00007F00003F80
FE00007F00003F80
FE00007F00003F80
FE00007F00003F80
FE00007F00003F80
FE00007F00003F80
ENDCHAR
STARTCHAR 006E
ENCODING 110
SWIDTH 552 0
DWIDTH 46 0
BBX 35 45 6 0
BITMAP
0000FF8000
FC07FFF000
FC1FFFFC00
FC3FFFFE00
FC7FFFFF00
FCFFFFFF80
FCFF03FF80
FDF800FFC0
FFF0007FC0
FFE0003FC0
FFC0001FE0
FF80001FE0
FF80001FE0
FF00000FE0
FF00000FE0
FE00000FE0
FE00000FE0
FE00000FE0
FE00000FE0
FE00000FE0
FE00000FE0
FE00000FE0
FE00000FE0
FE00000FE0
FE00000FE0
FE00000FE0
FE00000FE0
FE00000FE0
FE00000FE0
FE00000FE0
FE00000FE0
FE00000FE0
FE00000FE0
FE00000FE0
FE00000FE0
FE00000FE0
FE00000FE0
FE00000FE0
FE00000FE0
FE00000FE0
FE00000FE0
FE00000FE0
FE00000FE0
FE00000FE0
FE00000FE0
ENDCHAR
STARTCHAR 006F
ENCODING 111
SWIDTH 552 0
DWIDTH 46 0
BBX 39 47 3 -2
BITMAP
0001FF8000
000FFFF000
003FFFFC00
00FFFFFF00
01FFFFFF80
03FFFFFFC0
07FFEFFFE0
0FFE007FE0
0FF8003FF0
1FF0000FF8
1FE00007F8
3FC00007F8
3FC00003FC
7F800003FC
7F800001FC
7F000001FE
7F000001FE
FF000000FE
FF000000FE
FF000000FE
FE000000FE
FE000000FE
FE000000FE
FE000000FE
FE000000FE
FE000000FE
FE000000FE
FF000000FE
FF000000FE
FF000000FE
7F000001FE
7F000001FE
7F800001FC
7F800003FC
3FC00003FC
3FC00007F8
3FE00007F8
1FF0000FF8
0FF8001FF0
0FFE007FE0
07FFE7FFE0
03FFFFFFC0
01FFFFFF80
00FFFFFE00
003FFFFC00
000FFFF000
0001FF0000
ENDCHAR
STARTCHAR 0070
ENCODING 112
SWIDTH 552 0
DWIDTH 46 0
BBX 40 63 4 -18
BITMAP
0000FF8000
FE07FFF000
FE0FFFFC00
FE3FFFFF00
FE7FFFFF80
FEFFFFFFC0
FEFFFFFFE0
FFFE00FFE0
FFF8003FF0
FFF0001FF8
FFE0000FF8
FFE00007FC
FFC00003FC
FF800003FC
FF800001FC
FF800001FE
FF000001FE
FF000000FE
FF000000FE
FF000000FE
FF000000FE
FF000000FF
FF000000FF
FE000000FF
FF000000FF
FF000000FF
FF000000FF
FF000000FE
FF000000FE
FF000000FE
FF000001FE
FF800001FE
FF800001FE
FF800003FC
FFC00003FC
FFE00007FC
FFE0000FF8
FFF0001FF8
FFF8003FF0
FFFE007FE0
FFFFFFFFE0
FEFFFFFFC0
FE7FFFFF80
FE3FFFFF00
FE0FFFFC00
FE03FFF000
FE00FF8000
FE00000000
FE00000000
FE00000000
FE00000000
FE00000000
FE00000000
FE00000000
FE00000000
FE00000000
FE00000000
FE00000000
FE00000000
FE00000000
FE00000000
FE00000000
FE00000000
ENDCHAR
STARTCHAR 0071
ENCODING 113
SWIDTH 552 0
DWIDTH 46 0
BBX 39 63 2 -18
BITMAP
0001FF0000
000FFFE07E
003FFFF07E
007FFFFC7E
01FFFFFE7E
03FFFFFF7E
07FFFFFFFE
07FE007FFE
0FFC003FFE
1FF0000FFE
1FE00007FE
1FE00007FE
3FC00003FE
3FC00003FE
7F800001FE
7F800001FE
7F000001FE
7F000000FE
7F000000FE
FF000000FE
FF000000FE
FE000000FE
FE000000FE
FE000000FE
FE000000FE
FF000000FE
FF000000FE
FF000000FE
FF000000FE
7F000000FE
7F000000FE
7F800001FE
7F800001FE
7FC00003FE
3FC00003FE
3FE00007FE
1FF00007FE
1FF0000FFE
0FFC001FFE
0FFF007FFE
07FFFFFFFE
03FFFFFEFE
01FFFFFCFE
00FFFFF8FE
007FFFF0FE
001FFFC0FE
0003FE00FE
00000000FE
00000000FE
00000000FE
00000000FE
00000000FE
00000000FE
00000000FE
00000000FE
00000000FE
00000000FE
00000000FE
00000000FE
00000000FE
00000000FE
00000000FE
00000000FE
ENDCHAR
STARTCHAR 0072
ENCODING 114
SWIDTH 336 0
DWIDTH 28 0
BBX 21 45 6 0
BITMAP
0001F8
FC07F8
FC0FF8
FC3FF8
FC3FF8
FC7FF8
FCFFF8
FDFF00
FDF800
FFE000
FFC000
FF8000
FF8000
FF0000
FF0000
FF0000
FE0000
FE0000
FE0000
FE0000
FE0000
FE0000
FE0000
FE0000
FE0000
FE0000
FE0000
FE0000
FE0000
FE0000
FE0000
FE0000
FE0000
FE0000
FE0000
FE0000
FE0000
FE0000
FE0000
FE0000
FE0000
FE0000
FE0000
FE0000
FE0000
ENDCHAR
STARTCHAR 0073
ENCODING 115
SWIDTH 504 0
DWIDTH 42 0
BBX 35 47 3 -2
BITMAP
0007FE0000
007FFFC000
01FFFFF000
03FFFFF800
07FFFFFC00
0FFFFFFE00
1FFFBFFF00
3FF001FF00
3FC000FF80
3F80007F80
7F80003F80
7F00003F80
7F00003F80
7F00000000
7F00000000
7F80000000
7FC0000000
7FE0000000
3FF8000000
3FFF800000
1FFFF80000
0FFFFF8000
07FFFFF000
01FFFFFC00
003FFFFE00
0007FFFF80
00007FFF80
000007FFC0
000000FFC0
0000003FE0
0000001FE0
0000000FE0
FE00000FE0
FE00000FE0
FF00000FE0
FF00000FE0
FF00001FE0
7F80001FE0
7FC0007FC0
7FF000FFC0
3FFF9FFF80
1FFFFFFF00
0FFFFFFE00
07FFFFFC00
03FFFFF000
00FFFFC000
001FFE0000
ENDCHAR
STARTCHAR 0074
ENCODING 116
SWIDTH 276 0
DWIDTH 23 0
BBX 20 58 1 -2
BITMAP
03F800
03F800
03F800
03F800
03F800
03F800
03F800
03F800
03F800
03F800
03F800
03F800
FFFFF0
FFFFF0
FFFFF0
FFFFF0
FFFFF0
FFFFF0
03F800
03F800
03F800
03F800
03F800
03F800
03F800
03F800
03F800
03F800
03F800
03F800
03F800
03F800
03F800
03F800
03F800
03F800
03F800
03F800
03F800
03F800
03F800
03F800
03F800
03F800
03F800
03F800
03F800
03F800
03F800
03F800
03F800
03FC00
03FFF0
03FFF0
01FFF0
01FFF0
007FF0
001FF0
ENDCHAR
STARTCHAR 0075
ENCODING 117
SWIDTH 552 0
DWIDTH 46 0
BBX 35 46 5 -2
BITMAP
FE00000FE0
FE00000FE0
FE00000FE0
FE00000FE0
FE00000FE0
FE00000FE0
FE00000FE0
FE00000FE0
FE00000FE0
FE00000FE0
FE00000FE0
FE00000FE0
FE00000FE0
FE00000FE0
FE00000FE0
FE00000FE0
FE00000FE0
FE00000FE0
FE00000FE0
FE00000FE0
FE00000FE0
FE00000FE0
FE00000FE0
FE00000FE0
FE00000FE0
FE00000FE0
FE00000FE0
FE00000FE0
FE00000FE0
FE00000FE0
FE00000FE0
FE00001FE0
FE00001FE0
FF00001FE0
FF00003FE0
FF00007FE0
7F8000FFE0
7FC001FFE0
7FE003F7E0
3FF80FF7E0
3FFFFFE7E0
1FFFFFC7E0
0FFFFF87E0
07FFFE07E0
01FFFC0000
003FE00000
ENDCHAR
STARTCHAR 0076
ENCODING 118
SWIDTH 504 0
DWIDTH 42 0
BBX 39 44 1 0
BITMAP
FF000001FE
FF000001FE
7F000001FE
7F800003FC
7F800003FC
3F800003F8
3FC00007F8
3FC00007F8
1FC00007F0
1FE0000FF0
1FE0000FE0
0FE0000FE0
0FF0001FE0
07F0001FC0
07F0001FC0
07F8003FC0
03F8003F80
03F8003F80
03FC007F00
01FC007F00
01FC007F00
01FE00FE00
00FE00FE00
00FE00FE00
00FF01FC00
007F01FC00
007F01F800
007F83F800
003F83F800
003F87F000
003FC7F000
001FC7E000
001FCFE000
001FEFE000
000FEFC000
000FFFC000
0007FFC000
0007FF8000
0007FF8000
0003FF0000
0003FF0000
0003FF0000
0001FE0000
0001FE0000
ENDCHAR
STARTCHAR 0077
ENCODING 119
SWIDTH 720 0
DWIDTH 60 0
BBX 58 44 1 0
BITMAP
FE0000FF80003FC0
FF0000FF80003FC0
FF0000FFC0003F80
FF0000FFC0007F80
7F0001FFC0007F80
7F8001FFC0007F00
7F8001FFE0007F00
3F8001FFE000FF00
3F8003FFE000FF00
3FC003FFE000FE00
3FC003F7F000FE00
1FC003F7F001FE00
1FC007F7F001FC00
1FE007E7F001FC00
0FE007E3F803FC00
0FE007E3F803F800
0FE00FE3F803F800
07F00FC3F803F800
07F00FC1FC07F800
07F00FC1FC07F000
07F81FC1FC07F000
03F81F81FC07F000
03F81F80FE0FE000
03F81F80FE0FE000
01FC3F80FE0FE000
01FC3F80FE0FE000
01FC3F007F1FC000
01FC3F007F1FC000
00FE7F007F1FC000
00FE7F003F1F8000
00FE7E003FBF8000
007E7E003FBF8000
007F7E003FBF8000
007FFE001FBF0000
007FFC001FFF0000
003FFC001FFF0000
003FFC001FFE0000
003FFC000FFE0000
001FF8000FFE0000
001FF8000FFC0000
001FF8000FFC0000
001FF80007FC0000
000FF00007FC0000
000FF00007F80000
ENDCHAR
STARTCHAR 0078
ENCODING 120
SWIDTH 504 0
DWIDTH 42 0
BBX 37 44 2 0
BITMAP
7F800007F8
7F80000FF0
3FC0000FE0
1FC0001FE0
1FE0003FC0
0FF0003F80
07F0007F00
07F800FF00
03FC00FE00
01FC01FC00
01FE03FC00
00FF03F800
007F07F000
007F8FF000
003FCFE000
001FDFC000
001FFFC000
000FFF8000
0007FF0000
0007FF0000
0003FE0000
0001FE0000
0003FE0000
0003FF0000
0007FF8000
000FFF8000
001FFFC000
001FDFC000
003FDFE000
007F8FF000
007F07F000
00FF07F800
01FE03FC00
01FC01FC00
03FC01FE00
07F800FF00
07F000FF00
0FF0007F80
1FE0003FC0
1FC0003FC0
3FC0001FE0
7F80000FF0
FF00000FF0
FF000007F8
ENDCHAR
STARTCHAR 0079
ENCODING 121
SWIDTH 504 0
DWIDTH 42 0
BBX 38 62 2 -18
BITMAP
FE000003FC
FF000003F8
FF000007F8
7F000007F8
7F800007F0
7F80000FF0
3F80000FE0
3FC0000FE0
3FC0001FE0
1FC0001FC0
1FE0001FC0
0FE0003FC0
0FE0003F80
0FF0003F80
07F0007F80
07F0007F00
07F000FF00
03F800FE00
03F800FE00
03F801FE00
01FC01FC00
01FC01FC00
01FC03FC00
00FE03F800
00FE03F800
00FE07F000
007F07F000
007F07F000
007F0FE000
003F8FE000
003F8FE000
003F9FC000
001FDFC000
001FFFC000
001FFF8000
000FFF8000
000FFF0000
000FFF0000
0007FF0000
0007FE0000
0007FE0000
0003FE0000
0003FC0000
0003FC0000
0003FC0000
0003F80000
0007F80000
0007F00000
0007F00000
000FF00000
000FE00000
000FE00000
001FE00000
003FC00000
007FC00000
3FFF800000
3FFF800000
3FFF000000
3FFE000000
3FFC000000
3FF8000000
0FC0000000
ENDCHAR
STARTCHAR 007A
ENCODING 122
SWIDTH 504 0
DWIDTH 42 0
BBX 35 44 3 0
BITMAP
7FFFFFFFC0
7FFFFFFFC0
7FFFFFFFC0
7FFFFFFFC0
7FFFFFFFC0
7FFFFFFFC0
0000007FC0
0000007F80
000000FF00
000001FE00
000003FC00
000007FC00
00000FF800
00000FF000
00001FE000
00003FC000
00007F8000
0000FF8000
0001FF0000
0001FE0000
0003FC0000
0007F80000
000FF80000
001FF00000
003FE00000
003FC00000
007F800000
00FF000000
01FF000000
03FE000000
03FC000000
07F8000000
0FF0000000
1FF0000000
3FE0000000
7FC0000000
7F80000000
FF00000000
FFFFFFFFE0
FFFFFFFFE0
FFFFFFFFE0
FFFFFFFFE0
FFFFFFFFE0
FFFFFFFFE0
ENDCHAR
STARTCHAR 007B
ENCODING 123
SWIDTH 336 0
DWIDTH 28 0
BBX 19 78 4 -17
BITMAP
000FE0
003FE0
007FE0
00FFE0
01FFE0
01FF80
01FC00
03F800
03F800
03F800
03F800
03F000
03F000
03F000
03F000
03F000
03F000
03F000
03F000
03F000
03F000
03F000
03F000
03F000
03F000
03F000
03F000
03F000
03F000
03F000
03F000
07F000
07F000
0FE000
0FE000
3FC000
FFC000
FF8000
FE0000
FC0000
FF0000
FF8000
7FC000
1FE000
0FE000
07E000
07F000
07F000
03F000
03F000
03F000
03F000
03F000
03F000
03F000
03F000
03F000
03F000
03F000
03F000
03F000
03F000
03F000
03F000
03F000
03F000
03F000
03F800
03F800
03F800
03F800
01F800
01FE00
01FFE0
00FFE0
00FFE0
007FE0
001FE0
ENDCHAR
STARTCHAR 007C
ENCODING 124
SWIDTH 264 0
DWIDTH 22 0
BBX 5 78 8 -17
BITMAP
F8
F8
F8
F8
F8
F8
F8
F8
F8
F8
F8
F8
F8
F8
F8
F8
F8
F8
F8
F8
F8
F8
F8
F8
F8
F8
F8
F8
F8
F8
F8
F8
F8
F8
F8
F8
F8
F8
F8
F8
F8
F8
F8
F8
F8
F8
F8
F8
F8
F8
F8
F8
F8
F8
F8
F8
F8
F8
F8
F8
F8
F8
F8
F8
F8
F8
F8
F8
F8
F8
F8
F8
F8
F8
F8
F8
F8
F8
ENDCHAR
STARTCHAR 007D
ENCODING 125
SWIDTH 336 0
DWIDTH 28 0
BBX 20 78 2 -17
BITMAP
FF0000
FFC000
FFE000
FFF000
FFF000
3FF800
03F800
01F800
01F800
01FC00
01FC00
01F800
01F800
01F800
01F800
01F800
01F800
01F800
01F800
01F800
01F800
01F800
01F800
01F800
01F800
01FC00
01FC00
01FC00
01FC00
01FC00
00FC00
00FC00
00FE00
00FE00
007F00
007F80
003FF0
001FF0
000FF0
0007F0
000FF0
001FF0
003FC0
007F00
007E00
00FE00
00FC00
00FC00
01FC00
01FC00
01FC00
01FC00
01FC00
01F800
01F800
01F800
01F800
01F800
01F800
01F800
01F800
01F800
01F800
01F800
01F800
01F800
01F800
01FC00
01FC00
01F800
01F800
03F800
07F800
FFF000
FFF000
FFE000
FFC000
FF0000
ENDCHAR
STARTCHAR 007E
ENCODING 126
SWIDTH 588 0
DWIDTH 49 0
BBX 36 15 6 22
BITMAP
0040000000
07F8000000
0FFE000000
1FFF8000F0
3FFFC000F0
3FFFF000F0
7E1FFC01F0
7C07FE01F0
7C01FF83F0
7800FFFFE0
F8003FFFE0
F8001FFFC0
F80007FF80
000001FF00
0000003800
ENDCHAR
STARTCHAR 00A0
ENCODING 160
SWIDTH 276 0
DWIDTH 23 0
BBX 0 0 0 0
BITMAP
ENDCHAR
STARTCHAR 00A1
ENCODING 161
SWIDTH 336 0
DWIDTH 28 0
BBX 7 61 10 -17
BITMAP
FE
FE
FE
FE
FE
FE
FE
FE
FE
00
00
00
00
00
38
38
38
3C
3C
7C
7C
7C
7C
7C
7C
7C
7C
7E
7E
FE
FE
FE
FE
FE
FE
FE
FE
FE
FE
FE
FE
FE
FE
FE
FE
FE
FE
FE
FE
FE
FE
FE
FE
FE
FE
FE
FE
FE
FE
FE
FE
ENDCHAR
STARTCHAR 00A2
ENCODING 162
SWIDTH 552 0
DWIDTH 46 0
BBX 38 62 4 -10
BITMAP
00003C0000
00003C0000
00003C0000
00003C0000
00003C0000
00003C0000
00003C0000
0000FF8000
0007FFF800
001FFFFE00
007FFFFF00
00FFFFFF80
01FFFFFFC0
03FFFFFFE0
07FE3C3FF0
0FFC3C1FF0
0FF03C0FF8
1FE03C07F8
1FE03C03F8
3FC03C03FC
3FC03C01FC
3F803C01FC
7F803C01FC
7F003C0000
7F003C0000
7F003C0000
7F003C0000
7F003C0000
FF003C0000
FF003C0000
FF003C0000
FF003C0000
FF003C0000
FF003C0000
7F003C0000
7F003C0000
7F003C0000
7F003C01FC
7F803C01FC
7F803C01FC
3F803C01FC
3FC03C03FC
1FE03C03FC
1FE03C07F8
0FF03C0FF8
0FFC3C1FF0
07FE3C3FF0
03FFFDFFE0
01FFFFFFC0
00FFFFFF80
007FFFFF00
001FFFFC00
0007FFF000
0000FF8000
00003C0000
00003C0000
00003C0000
00003C0000
00003C0000
00003C0000
00003C0000
00003C0000
ENDCHAR
STARTCHAR 00A3
ENCODING 163
SWIDTH 552 0
DWIDTH 46 0
BBX 42 63 2 -2
BITMAP
00003FE00000
0003FFFC0000
000FFFFF8000
003FFFFFC000
007FFFFFE000
00FFFFFFF000
01FFFFFFF800
03FF801FFC00
07FE0007FC00
07F80003FE00
0FF00001FE00
0FF00000FF00
1FE00000FF00
1FE00000FF00
1FE000007F00
1FC000007F00
1FC000007F80
1FC000007F80
1FC000007F80
1FE000000000
1FE000000000
1FE000000000
1FE000000000
0FF000000000
0FF000000000
07F800000000
07FC00000000
03FC00000000
03FE00000000
FFFFFFF00000
FFFFFFF00000
FFFFFFF00000
FFFFFFF00000
FFFFFFF00000
003F80000000
003FC0000000
001FC0000000
001FC0000000
001FC0000000
001FC0000000
001FC0000000
001FC0000000
001FC0000000
001FC0000000
001F80000000
003F80000000
003F00000000
007F00000000
007E00000000
00FC00000000
01FC00000000
03F800000000
07F000000000
0FE7FF000300
1FDFFFE00F00
3FFFFFFFFF80
7FFFFFFFFF80
3FFFFFFFFFC0
3FFFFFFFFFC0
1FC03FFFFF80
0F0007FFFF00
0C0000FFFC00
0000001FF000
ENDCHAR
STARTCHAR 00A4
ENCODING 164
SWIDTH 552 0
DWIDTH 46 0
BBX 35 35 6 11
BITMAP
0800000000
1C00000600
3E00000F00
7F0FFC1F80
FFFFFF3FC0
FFFFFFFFE0
7FFFFFFFC0
3FFFFFFF80
1FFFFFFF00
0FFC0FFE00
1FF003FE00
1FE001FE00
3FC000FE00
3F80007F00
3F80007F00
3F00007F00
7F00003F00
7F00003F00
7F00003F00
3F00003F00
3F00007F00
3F80007F00
3F8000FF00
1FC000FE00
1FE001FE00
0FF807FC00
0FFF3FFC00
1FFFFFFE00
3FFFFFFF00
7FFFFFFF80
FFFFFFFFC0
7F3FFF3F80
3E07F81F00
1C00000E00
0800000400
ENDCHAR
STARTCHAR 00A5
ENCODING 165
SWIDTH 552 0
DWIDTH 46 0
BBX 44 59 1 0
BITMAP
FE00000007F0
7F00000007F0
7F0000000FE0
3F8000001FE0
3F8000001FC0
1FC000003F80
0FE000003F80
0FE000007F00
07F000007F00
07F00000FE00
03F80000FE00
03FC0001FC00
01FC0003F800
00FE0003F800
00FE0007F000
007F0007F000
007F000FE000
003F800FE000
003FC01FC000
001FC01F8000
000FE03F8000
000FE07F0000
0007F07F0000
0007F0FE0000
0003F8FE0000
0001FDFC0000
0001FDFC0000
0000FFF80000
0000FFF00000
00007FF00000
0FFFFFFFFF00
0FFFFFFFFF00
0FFFFFFFFF00
0FFFFFFFFF00
00001FC00000
00001FC00000
00001FC00000
00001FC00000
00001FC00000
00001FC00000
0FFFFFFFFF00
0FFFFFFFFF00
0FFFFFFFFF00
0FFFFFFFFF00
00001FC00000
00001FC00000
00001FC00000
00001FC00000
00001FC00000
00001FC00000
00001FC00000
00001FC00000
00001FC00000
00001FC00000
00001FC00000
00001FC00000
00001FC00000
00001FC00000
00001FC00000
ENDCHAR
STARTCHAR 00A6
ENCODING 166
SWIDTH 264 0
DWIDTH 22 0
BBX 5 78 8 -17
BITMAP
F8
F8
F8
F8
F8
F8
F8
F8
F8
F8
F8
F8
F8
F8
F8
F8
F8
F8
F8
F8
F8
F8
F8
F8
F8
F8
F8
F8
F8
F8
F8
F8
F8
00
00
00
00
00
00
00
00
00
00
00
00
F8
F8
F8
F8
F8
F8
F8
F8
F8
F8
F8
F8
F8
F8
F8
F8
F8
F8
F8
F8
F8
F8
F8
F8
F8
F8
F8
F8
F8
F8
F8
F8
F8
ENDCHAR
STARTCHAR 00A7
ENCODING 167
SWIDTH 552 0
DWIDTH 46 0
BBX 38 79 4 -18
BITMAP
0000FF0000
0007FFE000
001FFFF800
003FFFFC00
007FFFFE00
00FFFFFF00
01FFEFFF80
03FF00FF80
03FC007FC0
03F8003FC0
07F8001FC0
07F8001FC0
07F0001FE0
07F0000FE0
07F0000FE0
07F8000FE0
07F8000FE0
07FC000000
03FE000000
03FF800000
01FFC00000
00FFF00000
00FFF80000
03FFFE0000
07FFFF0000
0FE7FFC000
1FC3FFE000
3F80FFF800
7F007FFC00
7E001FFF00
FE000FFF80
FC0003FFC0
FC0001FFE0
FC00007FF0
FC00003FF0
FC00001FF8
FE00000FF8
FE000007FC
FF000003FC
FF800001FC
7FC00001FC
7FE00001FC
3FF80000FC
3FFC0000FC
1FFE0000FC
0FFF8001FC
07FFC001FC
01FFE001F8
00FFF803F8
007FFC07F0
001FFE0FF0
000FFF9FE0
0003FFFFC0
0001FFFF00
00007FFC00
00003FFC00
00001FFC00
000007FE00
000003FF00
000001FF00
000000FF80
0000007F80
3FC0007F80
3FC0003F80
1FC0003F80
1FC0003F80
1FC0003F80
1FC0003F80
1FE0007F80
1FE0007F80
0FF000FF00
0FFC01FF00
07FF8FFE00
03FFFFFE00
03FFFFFC00
01FFFFF800
007FFFE000
001FFF8000
0003FC0000
ENDCHAR
STARTCHAR 00A8
ENCODING 168
SWIDTH 336 0
DWIDTH 28 0
BBX 23 9 2 51
BITMAP
FF83FE
FF83FE
FF83FE
FF83FE
FF83FE
FF83FE
FF83FE
FF83FE
FF83FE
ENDCHAR
STARTCHAR 00A9
ENCODING 169
SWIDTH 732 0
DWIDTH 61 0
BBX 64 64 -1 -2
BITMAP
0000003FF8000000
000003FFFF800000
00000FFFFFF00000
00003FFFFFFC0000
0000FFFFFFFF0000
0003FFF01FFFC000
0007FF0000FFE000
001FF800003FF000
003FE000000FF800
007FC0000003FC00
00FF00000001FE00
00FE00000000FF00
01FC000000003F80
03F8000FF8001FC0
07F0007FFF001FC0
07E000FFFF800FE0
0FE003FFFFC007F0
0FC007FFFFE003F0
1F800FF81FF003F8
1F800FE007F001F8
3F001FC003F801F8
3F001F8001F800FC
7E003F0001F800FC
7E003F0000FC00FC
7E007E0000FC007E
7C007E0000FC007E
FC007E000000007E
FC007C000000003E
FC00FC000000003E
FC00FC000000003F
FC00FC000000003F
FC00FC000000003F
FC00FC000000003F
FC00FC000000003F
FC00FC000000003F
FC00FC000000003E
FC00FC00007E003E
FC007C00007E007E
7C007E00007E007E
7E007E0000FC007E
7E007E0000FC007E
7E003F0000FC00FC
3F003F8001F800FC
3F001F8001F800FC
3F801FC003F801F8
1F800FF007F001F8
1FC00FFC1FE003F0
0FC007FFFFE007F0
0FE003FFFFC007E0
07F000FFFF000FE0
03F8007FFE001FC0
03FC000FF0003F80
01FE000000007F00
00FF00000000FF00
007F80000003FE00
003FE0000007FC00
001FF800001FF000
000FFF0000FFE000
0003FFF00FFFC000
0001FFFFFFFF0000
00007FFFFFFC0000
00001FFFFFF00000
000003FFFF800000
0000003FF8000000
ENDCHAR
STARTCHAR 00AA
ENCODING 170
SWIDTH 372 0
DWIDTH 31 0
BBX 25 37 3 25
BITMAP
00FF0000
07FFE000
0FFFF000
1FFFF800
3FC7F800
3E00FC00
7E007C00
7C007C00
7C007C00
00007C00
00007C00
0000FC00
007FFC00
07FFFC00
1FFFFC00
3FE07C00
7E007C00
7C007C00
F8007C00
F8007C00
F8007C00
F800FC00
FC01FC00
7E07FC00
7FFFFC00
3FFFBF80
1FFE3F80
0FF83F80
00000F00
00000000
00000000
00000000
00000000
7FFFFF00
7FFFFF00
7FFFFF00
7FFFFF00
ENDCHAR
STARTCHAR 00AB
ENCODING 171
SWIDTH 552 0
DWIDTH 46 0
BBX 30 27 8 9
BITMAP
00080004
0038001C
0078003C
00F8007C
01F800FC
07F803FC
0FF807FC
1FE00FF8
3FC01FE0
FF807FC0
FF007F80
FC007E00
F8007C00
F0007800
F8007E00
FE007F00
FF007F80
7F803FC0
3FE01FF0
1FF00FF8
0FF803FC
03F801FC
01F800FC
00F8007C
0078001C
0018000C
00080004
ENDCHAR
STARTCHAR 00AC
ENCODING 172
SWIDTH 588 0
DWIDTH 49 0
BBX 42 24 3 7
BITMAP
FFFFFFFFFFC0
FFFFFFFFFFC0
FFFFFFFFFFC0
FFFFFFFFFFC0
FFFFFFFFFFC0
FFFFFFFFFFC0
000000000FC0
000000000FC0
000000000FC0
000000000FC0
000000000FC0
000000000FC0
000000000FC0
000000000FC0
000000000FC0
000000000FC0
000000000FC0
000000000FC0
000000000FC0
000000000FC0
000000000FC0
000000000FC0
000000000FC0
000000000FC0
ENDCHAR
STARTCHAR 00AD
ENCODING 173
SWIDTH 336 0
DWIDTH 28 0
BBX 20 6 4 20
BITMAP
FFFFF0
FFFFF0
FFFFF0
FFFFF0
FFFFF0
FFFFF0
ENDCHAR
STARTCHAR 00AE
ENCODING 174
SWIDTH 732 0
DWIDTH 61 0
BBX 64 64 -1 -2
BITMAP
0000003FF8000000
000003FFFFC00000
00001FFFFFF00000
00007FFFFFFC0000
0000FFFFFFFF0000
0003FFF00FFFC000
0007FF0000FFE000
001FF800003FF000
003FE000000FFC00
007F80000003FE00
00FF00000001FE00
01FE000000007F00
01FC000000003F80
03F83FFFFF001FC0
07F03FFFFFC00FE0
07E03FFFFFF00FE0
0FC03FFFFFF807F0
1FC03FFFFFF803F0
1F803F000FFC03F8
3F803F0001FC01F8
3F003F0000FC01FC
3F003F0000FE00FC
7E003F00007E00FC
7E003F00007E007E
7E003F00007E007E
7C003F00007E007E
FC003F0000FC007E
FC003F0000FC003E
FC003F0001FC003E
FC003F0007F8003F
FC003FFFFFF0003F
FC003FFFFFE0003F
FC003FFFFFE0003F
FC003FFFFFF0003F
FC003FFFFFF8003F
FC003F0003F8003E
FC003F0001FC003E
FC003F0000FC007E
7C003F0000FC007E
7E003F0000FC007E
7E003F0000FC007E
7E003F0000FC00FC
3F003F0000FC00FC
3F003F0000FC01FC
3F803F0000FC01F8
1F803F0000FC03F8
1FC03F0000FE03F0
0FE03F0000FE07F0
0FE03F00007F07E0
07F03F00007F0FC0
03F8000000001FC0
01FC000000003F80
01FE000000007F00
00FF00000001FE00
007FC0000003FC00
003FE000000FF800
001FF800001FF000
000FFF0000FFE000
0003FFF00FFFC000
0001FFFFFFFF0000
00007FFFFFFC0000
00001FFFFFF00000
000003FFFF800000
0000003FF8000000
ENDCHAR
STARTCHAR 00AF
ENCODING 175
SWIDTH 336 0
DWIDTH 28 0
BBX 23 6 2 52
BITMAP
FFFFFE
FFFFFE
FFFFFE
FFFFFE
FFFFFE
FFFFFE
ENDCHAR
STARTCHAR 00B0
ENCODING 176
SWIDTH 396 0
DWIDTH 33 0
BBX 25 25 4 32
BITMAP
007F0000
01FFE000
07FFF000
0FFFF800
1FFFFC00
3F80FE00
3F003F00
7E001F00
7C001F80
F8000F80
F8000F80
F8000F80
F8000F80
F8000F80
F8000F80
F8000F80
7C001F80
7E001F00
3F003F00
3F80FE00
1FFFFC00
0FFFF800
07FFF000
01FFE000
007F0000
ENDCHAR
STARTCHAR 00B1
ENCODING 177
SWIDTH 588 0
DWIDTH 49 0
BBX 40 53 4 -1
BITMAP
00007E0000
00007E0000
00007E0000
00007E0000
00007E0000
00007E0000
00007E0000
00007E0000
00007E0000
00007E0000
00007E0000
00007E0000
00007E0000
00007E0000
00007E0000
00007E0000
00007E0000
FFFFFFFFFF
FFFFFFFFFF
FFFFFFFFFF
FFFFFFFFFF
FFFFFFFFFF
FFFFFFFFFF
00007E0000
00007E0000
00007E0000
00007E0000
00007E0000
00007E0000
00007E0000
00007E0000
00007E0000
00007E0000
00007E0000
00007E0000
00007E0000
00007E0000
00007E0000
00007E0000
00007E0000
0000000000
0000000000
0000000000
0000000000
0000000000
0000000000
0000000000
FFFFFFFFFF
FFFFFFFFFF
FFFFFFFFFF
FFFFFFFFFF
FFFFFFFFFF
FFFFFFFFFF
ENDCHAR
STARTCHAR 00B2
ENCODING 178
SWIDTH 336 0
DWIDTH 28 0
BBX 25 35 1 24
BITMAP
007F8000
03FFF000
07FFFC00
0FFFFE00
1FF3FF00
3F807F00
3F003F80
7E001F80
7C000F80
7C000F80
7C000F80
7C000F80
7C000F80
00001F80
00001F80
00003F00
0000FE00
0003FC00
000FF800
001FF000
007FC000
01FF0000
03FC0000
0FF00000
1FE00000
1F800000
3F000000
7E000000
7E000000
7C000000
FFFFFF80
FFFFFF80
FFFFFF80
FFFFFF80
FFFFFF80
ENDCHAR
STARTCHAR 00B3
ENCODING 179
SWIDTH 336 0
DWIDTH 28 0
BBX 25 36 1 23
BITMAP
00FF8000
03FFE000
0FFFF800
1FFFFC00
3FF7FC00
3F00FE00
7E003E00
7C003F00
7C003F00
7C001F00
FC001F00
FC001F00
00003F00
00003E00
0000FC00
007FFC00
007FF000
007FF000
007FFC00
0003FE00
00007F00
00001F00
00001F80
00000F80
00000F80
F8000F80
F8000F80
F8000F80
FC001F80
FC001F00
7E003F00
7F80FE00
3FFFFC00
1FFFF800
0FFFF000
03FFC000
ENDCHAR
STARTCHAR 00B4
ENCODING 180
SWIDTH 336 0
DWIDTH 28 0
BBX 17 12 8 50
BITMAP
01FF80
01FF00
03FE00
07FC00
07F800
0FF000
1FE000
1FC000
3F8000
7F0000
7E0000
FC0000
ENDCHAR
STARTCHAR 00B5
ENCODING 181
SWIDTH 552 0
DWIDTH 46 0
BBX 40 62 5 -18
BITMAP
FE00000FE0
FE00000FE0
FE00000FE0
FE00000FE0
FE00000FE0
FE00000FE0
FE00000FE0
FE00000FE0
FE00000FE0
FE00000FE0
FE00000FE0
FE00000FE0
FE00000FE0
FE00000FE0
FE00000FE0
FE00000FE0
FE00000FE0
FE00000FE0
FE00000FE0
FE00000FE0
FE00000FE0
FE00000FE0
FE00000FE0
FE00000FE0
FE00000FE0
FE00000FE0
FE00000FE0
FE00000FE0
FE00000FE0
FE00000FE0
FE00000FE0
FE00001FE0
FE00001FE0
FF00003FE0
FF00003FE0
FF00007FE0
FF8000FFE0
FFC001FFE0
FFE003FFF0
FFF81FFFF0
FFFFFFE7FF
FFFFFFC7FF
FFFFFF87FF
FFFFFF03FF
FEFFFC03FF
FE1FE000FE
FE00000000
FE00000000
FE00000000
FE00000000
FE00000000
FE00000000
FE00000000
FE00000000
FE00000000
FE00000000
FE00000000
FE00000000
FE00000000
FE00000000
FE00000000
FE00000000
ENDCHAR
STARTCHAR 00B6
ENCODING 182
SWIDTH 540 0
DWIDTH 45 0
BBX 39 75 4 -14
BITMAP
0001FFFFFE
001FFFFFFE
003FFFFFFE
00FFFFFFFE
01FFFFFFFE
03FFFE07E0
07FFFE07E0
0FFFFE07E0
1FFFFE07E0
1FFFFE07E0
3FFFFE07E0
3FFFFE07E0
7FFFFE07E0
7FFFFE07E0
7FFFFE07E0
FFFFFE07E0
FFFFFE07E0
FFFFFE07E0
FFFFFE07E0
FFFFFE07E0
FFFFFE07E0
FFFFFE07E0
FFFFFE07E0
FFFFFE07E0
FFFFFE07E0
7FFFFE07E0
7FFFFE07E0
7FFFFE07E0
3FFFFE07E0
3FFFFE07E0
1FFFFE07E0
1FFFFE07E0
0FFFFE07E0
07FFFE07E0
03FFFE07E0
01FFFE07E0
00FFFE07E0
003FFE07E0
0007FE07E0
00007E07E0
00007E07E0
00007E07E0
00007E07E0
00007E07E0
00007E07E0
00007E07E0
00007E07E0
00007E07E0
00007E07E0
00007E07E0
00007E07E0
00007E07E0
00007E07E0
00007E07E0
00007E07E0
00007E07E0
00007E07E0
00007E07E0
00007E07E0
00007E07E0
00007E07E0
00007E07E0
00007E07E0
00007E07E0
00007E07E0
00007E07E0
00007E07E0
00007E07E0
00007E07E0
00007E07E0
00007E07E0
00007E07E0
00007E07E0
00007E07E0
00007E07E0
ENDCHAR
STARTCHAR 00B7
ENCODING 183
SWIDTH 276 0
DWIDTH 23 0
BBX 9 9 9 19
BITMAP
FF80
FF80
FF80
FF80
FF80
FF80
FF80
FF80
FF80
ENDCHAR
STARTCHAR 00B8
ENCODING 184
SWIDTH 336 0
DWIDTH 28 0
BBX 20 18 4 -18
BITMAP
007800
007000
007000
00E000
00E000
01FFC0
01FFE0
03FFE0
0007F0
0007F0
0003F0
0003F0
6007F0
F80FE0
FF3FE0
FFFFC0
3FFF00
07FC00
ENDCHAR
STARTCHAR 00B9
ENCODING 185
SWIDTH 336 0
DWIDTH 28 0
BBX 14 35 4 24
BITMAP
003C
003C
007C
007C
00FC
01FC
0FFC
FFFC
FFFC
FFFC
FFFC
007C
007C
007C
007C
007C
007C
007C
007C
007C
007C
007C
007C
007C
007C
007C
007C
007C
007C
007C
007C
007C
007C
007C
007C
ENDCHAR
STARTCHAR 00BA
ENCODING 186
SWIDTH 360 0
DWIDTH 30 0
BBX 24 37 3 25
BITMAP
007F00
03FFC0
07FFF0
0FFFF8
1FE7FC
3F00FC
3E007E
7E003E
7C003E
7C001F
7C001F
78001F
F8001F
F8001F
F8001F
F8001F
F8001F
7C001F
7C001F
7C003E
7E003E
3E007E
3F00FC
1FC1FC
1FFFF8
0FFFF0
07FFE0
01FF80
000000
000000
000000
000000
000000
7FFFFE
7FFFFE
7FFFFE
7FFFFE
ENDCHAR
STARTCHAR 00BB
ENCODING 187
SWIDTH 552 0
DWIDTH 46 0
BBX 30 27 8 9
BITMAP
80004000
E0006000
F0007800
F8007C00
FE007E00
FF007F00
FF807FC0
3FC03FE0
1FF01FF0
0FF807F8
07F803FC
01F801FC
00F8007C
0078003C
00F800FC
03F801FC
07F803FC
0FF00FF8
3FE01FF0
7FC03FC0
FF807F80
FE007F00
FC007E00
F8007800
F0007000
C0006000
80004000
ENDCHAR
STARTCHAR 00BC
ENCODING 188
SWIDTH 840 0
DWIDTH 70 0
BBX 66 61 2 -2
BITMAP
003C00000000780000
003C00000000F80000
007C00000001F00000
007C00000001E00000
00FC00000003E00000
01FC00000007C00000
07FC00000007C00000
FFFC0000000F800000
FFFC0000000F000000
FFFC0000001F000000
FFFC0000003E000000
00FC0000003E000000
00FC0000007C000000
00FC000000F8000000
00FC000000F8000000
00FC000001F0000000
00FC000001E0000000
00FC000003E0000000
00FC000007C0000000
00FC000007C0000000
00FC00000F80000000
00FC00001F00000000
00FC00001F00000000
00FC00003E00000000
00FC00003C0000F000
00FC00007C0001F000
00FC0000F80003F000
00FC0000F80003F000
00FC0001F00007F000
00FC0001E0000FF000
00FC0003E0001FF000
00FC0007C0001FF000
00FC0007C0003FF000
00FC000F80007DF000
00FC001F0000FDF000
00FC001F0000F9F000
0000003E0001F1F000
0000003C0003E1F000
0000007C0007C1F000
000000F8000FC1F000
000000F8000F81F000
000001F0001F01F000
000003E0003E01F000
000003E0007E01F000
000007C0007C01F000
0000078000F801F000
00000F8001F001F000
00001F0001FFFFFFC0
00001F0001FFFFFFC0
00003E0001FFFFFFC0
00003C0001FFFFFFC0
00007C00000001F000
0000F800000001F000
0000F000000001F000
0001F000000001F000
0003E000000001F000
0003E000000001F000
0007C000000001F000
00078000000001F000
000F80000000000000
001F00000000000000
ENDCHAR
STARTCHAR 00BD
ENCODING 189
SWIDTH 840 0
DWIDTH 70 0
BBX 65 61 2 -2
BITMAP
003800000003E00000
003800000003E00000
007800000007C00000
007800000007800000
00F80000000F800000
01F80000001F000000
07F80000001F000000
FFF80000003E000000
FFF80000003C000000
FFF80000007C000000
FFF8000000F8000000
00F8000000F0000000
00F8000001F0000000
00F8000003E0000000
00F8000003E0000000
00F8000007C0000000
00F800000780000000
00F800000F80000000
00F800001F00000000
00F800001F00000000
00F800003E00000000
00F800007C00000000
00F800007C00000000
00F80000F800000000
00F80000F0007F8000
00F80001F003FFF000
00F80003E007FFF800
00F80003E00FFFFE00
00F80007C01FF7FE00
00F8000F803F807F00
00F8000F803F003F80
00F8001F007E001F80
00F8001E007C000F80
00F8003E007C000F80
00F8007C007C000F80
00F8007C007C000F80
000000F8007C000F80
000000F00000001F80
000001F00000001F00
000003E00000003F00
000003C0000000FE00
000007C0000001FC00
00000F80000007F800
00000F8000001FF000
00001F0000007FE000
00001E000001FF8000
00003E000003FE0000
00007C000007F80000
00007800000FE00000
0000F800001F800000
0001F000003F000000
0001F000007E000000
0003E000007E000000
0003C000007C000000
0007C00000FC000000
000F800000FFFFFF80
000F800000FFFFFF80
001F000000FFFFFF80
003E000000FFFFFF80
003E00000000000000
007C00000000000000
ENDCHAR
STARTCHAR 00BE
ENCODING 190
SWIDTH 840 0
DWIDTH 70 0
BBX 66 61 2 -2
BITMAP
007F800000001F0000
03FFF00000003E0000
07FFF80000007C0000
0FFFFC0000007C0000
1FF7FE000000F80000
3F807F000000F00000
3E003F000001F00000
7E001F000003E00000
7C001F000003E00000
7C001F000007C00000
7C001F00000F800000
7C001F00000F800000
00001F00001F000000
00003F00001E000000
00007E00003E000000
003FFC00007C000000
003FF800007C000000
003FF00000F8000000
003FFC0000F0000000
003FFE0001F0000000
00007F0003E0000000
00001F8003E0000000
00000F8007C0000000
00000F800F80000000
00000FC00F8000F000
F8000FC01F0001F000
F8000FC01E0003F000
FC000F803E0003F000
FC000F807C0007F000
7C001F807C000FF000
7E001F80F8001FF000
3F007F00F0003FF000
3FF7FE01F0003FF000
1FFFFE03E0007DF000
0FFFF803E000F9F000
03FFF007C001F9F000
00FF800F8001F1F000
0000000F8003E1F000
0000001F0007C1F000
0000001E000FC1F000
0000003E000F81F000
0000007C001F01F000
0000007C003E01F000
000000F8007E01F000
000000F000FC01F000
000001F000F801F000
000003E001F001F000
000003C001FFFFFFC0
000007C001FFFFFFC0
00000F8001FFFFFFC0
00000F8001FFFFFFC0
00001F00000001F000
00001E00000001F000
00003E00000001F000
00007C00000001F000
00007C00000001F000
0000F800000001F000
0001F000000001F000
0001F000000001F000
0003E0000000000000
0003C0000000000000
ENDCHAR
STARTCHAR 00BF
ENCODING 191
SWIDTH 612 0
DWIDTH 51 0
BBX 36 62 8 -18
BITMAP
0001FC0000
0001FC0000
0001FC0000
0001FC0000
0001FC0000
0001FC0000
0001FC0000
0001FC0000
0001FC0000
0000000000
0000000000
0000000000
0000000000
0000000000
0000000000
0000000000
0000000000
0001FC0000
0001FC0000
0001FC0000
0001FC0000
0001FC0000
0001FC0000
0001FC0000
0003FC0000
0003FC0000
0007F80000
000FF80000
001FF00000
003FE00000
007FC00000
00FF800000
01FF000000
03FE000000
07FC000000
0FF8000000
1FF0000000
3FE0000000
3FC0000000
7F80000000
7F80000000
7F00000000
FF000007F0
FF000007F0
FF000007F0
FE000007F0
FE000007F0
FF00000FF0
FF00000FE0
FF00000FE0
FF80000FE0
7F80001FE0
7FC0003FC0
3FE0007FC0
3FF800FF80
1FFFFFFF80
0FFFFFFF00
07FFFFFE00
03FFFFFC00
01FFFFF000
007FFFC000
0007FE0000
ENDCHAR
STARTCHAR 00C0
ENCODING 192
SWIDTH 672 0
DWIDTH 56 0
BBX 52 78 2 0
BITMAP
0003FF00000000
0000FF80000000
00007F80000000
00003FC0000000
00001FE0000000
00000FE0000000
000007F0000000
000003F0000000
000001F8000000
000000FC000000
0000007C000000
0000003E000000
00000000000000
00000000000000
00000000000000
00000000000000
00000000000000
000007FE000000
000007FF000000
00000FFF000000
00000FFF000000
00001FFF800000
00001FFF800000
00001FFF800000
00003FFFC00000
00003FFFC00000
00003FFFC00000
00007F9FE00000
00007F9FE00000
00007F1FE00000
0000FF0FF00000
0000FF0FF00000
0000FE0FF80000
0001FE07F80000
0001FE07F80000
0001FC07FC0000
0003FC03FC0000
0003FC03FC0000
0007F803FE0000
0007F801FE0000
0007F801FE0000
000FF001FF0000
000FF000FF0000
000FE000FF0000
001FE000FF8000
001FE0007F8000
001FC0007F8000
003FC0007FC000
003FC0003FC000
003F80003FC000
007F80003FE000
007F80001FE000
00FF00001FF000
00FFFFFFFFF000
00FFFFFFFFF000
01FFFFFFFFF800
01FFFFFFFFF800
01FFFFFFFFF800
03FFFFFFFFFC00
03FC000007FC00
03FC000003FC00
07F8000003FE00
07F8000003FE00
07F8000001FE00
0FF0000001FF00
0FF0000001FF00
1FF0000000FF00
1FE0000000FF80
1FE00000007F80
3FE00000007F80
3FC00000007FC0
3FC00000003FC0
7FC00000003FE0
7F800000003FE0
7F800000001FE0
FF800000001FF0
FF000000001FF0
FF000000000FF0
ENDCHAR
STARTCHAR 00C1
ENCODING 193
SWIDTH 672 0
DWIDTH 56 0
BBX 52 78 2 0
BITMAP
0000000FFC0000
0000000FF00000
0000001FE00000
0000003FC00000
0000003F800000
0000007F000000
000000FE000000
000000FC000000
000001F8000000
000003F0000000
000003E0000000
000007C0000000
00000000000000
00000000000000
00000000000000
00000000000000
00000000000000
000007FE000000
000007FF000000
00000FFF000000
00000FFF000000
00001FFF800000
00001FFF800000
00001FFF800000
00003FFFC00000
00003FFFC00000
00003FFFC00000
00007F9FE00000
00007F9FE00000
00007F1FE00000
0000FF0FF00000
0000FF0FF00000
0000FE0FF80000
0001FE07F80000
0001FE07F80000
0001FC07FC0000
0003FC03FC0000
0003FC03FC0000
0007F803FE0000
0007F801FE0000
0007F801FE0000
000FF001FF0000
000FF000FF0000
000FE000FF0000
001FE000FF8000
001FE0007F8000
001FC0007F8000
003FC0007FC000
003FC0003FC000
003F80003FC000
007F80003FE000
007F80001FE000
00FF00001FF000
00FFFFFFFFF000
00FFFFFFFFF000
01FFFFFFFFF800
01FFFFFFFFF800
01FFFFFFFFF800
03FFFFFFFFFC00
03FC000007FC00
03FC000003FC00
07F8000003FE00
07F8000003FE00
07F8000001FE00
0FF0000001FF00
0FF0000001FF00
1FF0000000FF00
1FE0000000FF80
1FE00000007F80
3FE00000007F80
3FC00000007FC0
3FC00000003FC0
7FC00000003FE0
7F800000003FE0
7F800000001FE0
FF800000001FF0
FF000000001FF0
FF000000000FF0
ENDCHAR
STARTCHAR 00C2
ENCODING 194
SWIDTH 672 0
DWIDTH 56 0
BBX 52 79 2 0
BITMAP
000003FC000000
000007FE000000
000007FE000000
00000FFF000000
00001FFF000000
00001FBF800000
00003F9FC00000
00007F0FC00000
00007E07E00000
0000FC03F00000
0000F801F00000
0001F001F80000
0003F000FC0000
00000000000000
00000000000000
00000000000000
00000000000000
00000000000000
000007FE000000
000007FF000000
00000FFF000000
00000FFF000000
00001FFF800000
00001FFF800000
00001FFF800000
00003FFFC00000
00003FFFC00000
00003FFFC00000
00007F9FE00000
00007F9FE00000
00007F1FE00000
0000FF0FF00000
0000FF0FF00000
0000FE0FF80000
0001FE07F80000
0001FE07F80000
0001FC07FC0000
0003FC03FC0000
0003FC03FC0000
0007F803FE0000
0007F801FE0000
0007F801FE0000
000FF001FF0000
000FF000FF0000
000FE000FF0000
001FE000FF8000
001FE0007F8000
001FC0007F8000
003FC0007FC000
003FC0003FC000
003F80003FC000
007F80003FE000
007F80001FE000
00FF00001FF000
00FFFFFFFFF000
00FFFFFFFFF000
01FFFFFFFFF800
01FFFFFFFFF800
01FFFFFFFFF800
03FFFFFFFFFC00
03FC000007FC00
03FC000003FC00
07F8000003FE00
07F8000003FE00
07F8000001FE00
0FF0000001FF00
0FF0000001FF00
1FF0000000FF00
1FE0000000FF80
1FE00000007F80
3FE00000007F80
3FC00000007FC0
3FC00000003FC0
7FC00000003FE0
7F800000003FE0
7F800000001FE0
FF800000001FF0
FF000000001FF0
FF000000000FF0
ENDCHAR
STARTCHAR 00C3
ENCODING 195
SWIDTH 672 0
DWIDTH 56 0
BBX 52 77 2 0
BITMAP
000018003E0000
00007F803E0000
0000FFE07E0000
0001FFFFFC0000
0003FFFFFC0000
0003FFFFF80000
0007E1FFF80000
0007C03FF00000
0007C00FC00000
00000000000000
00000000000000
00000000000000
00000000000000
00000000000000
00000000000000
00000000000000
000007FE000000
000007FF000000
00000FFF000000
00000FFF000000
00001FFF800000
00001FFF800000
00001FFF800000
00003FFFC00000
00003FFFC00000
00003FFFC00000
00007F9FE00000
00007F9FE00000
00007F1FE00000
0000FF0FF00000
0000FF0FF00000
0000FE0FF80000
0001FE07F80000
0001FE07F80000
0001FC07FC0000
0003FC03FC0000
0003FC03FC0000
0007F803FE0000
0007F801FE0000
0007F801FE0000
000FF001FF0000
000FF000FF0000
000FE000FF0000
001FE000FF8000
001FE0007F8000
001FC0007F8000
003FC0007FC000
003FC0003FC000
003F80003FC000
007F80003FE000
007F80001FE000
00FF00001FF000
00FFFFFFFFF000
00FFFFFFFFF000
01FFFFFFFFF800
01FFFFFFFFF800
01FFFFFFFFF800
03FFFFFFFFFC00
03FC000007FC00
03FC000003FC00
07F8000003FE00
07F8000003FE00
07F8000001FE00
0FF0000001FF00
0FF0000001FF00
1FF0000000FF00
1FE0000000FF80
1FE00000007F80
3FE00000007F80
3FC00000007FC0
3FC00000003FC0
7FC00000003FE0
7F800000003FE0
7F800000001FE0
FF800000001FF0
FF000000001FF0
FF000000000FF0
ENDCHAR
STARTCHAR 00C4
ENCODING 196
SWIDTH 672 0
DWIDTH 56 0
BBX 52 77 2 0
BITMAP
0001FE0FF80000
0001FE0FF80000
0001FE0FF80000
0001FE0FF80000
0001FE0FF80000
0001FE0FF80000
0001FE0FF80000
0001FE0FF80000
0001FE0FF80000
00000000000000
00000000000000
00000000000000
00000000000000
00000000000000
00000000000000
00000000000000
000007FE000000
000007FF000000
00000FFF000000
00000FFF000000
00001FFF800000
00001FFF800000
00001FFF800000
00003FFFC00000
00003FFFC00000
00003FFFC00000
00007F9FE00000
00007F9FE00000
00007F1FE00000
0000FF0FF00000
0000FF0FF00000
0000FE0FF80000
0001FE07F80000
0001FE07F80000
0001FC07FC0000
0003FC03FC0000
0003FC03FC0000
0007F803FE0000
0007F801FE0000
0007F801FE0000
000FF001FF0000
000FF000FF0000
000FE000FF0000
001FE000FF8000
001FE0007F8000
001FC0007F8000
003FC0007FC000
003FC0003FC000
003F80003FC000
007F80003FE000
007F80001FE000
00FF00001FF000
00FFFFFFFFF000
00FFFFFFFFF000
01FFFFFFFFF800
01FFFFFFFFF800
01FFFFFFFFF800
03FFFFFFFFFC00
03FC000007FC00
03FC000003FC00
07F8000003FE00
07F8000003FE00
07F8000001FE00
0FF0000001FF00
0FF0000001FF00
1FF0000000FF00
1FE0000000FF80
1FE00000007F80
3FE00000007F80
3FC00000007FC0
3FC00000003FC0
7FC00000003FE0
7F800000003FE0
7F800000001FE0
FF800000001FF0
FF000000001FF0
FF000000000FF0
ENDCHAR
STARTCHAR 00C5
ENCODING 197
SWIDTH 672 0
DWIDTH 56 0
BBX 52 80 2 0
BITMAP
000000E0000000
000003FC000000
000007FE000000
00000FFF000000
00001F0F800000
00001E07800000
00001C07800000
00001C03800000
00001C03800000
00001E07800000
00001F0F800000
00000FFF000000
00000FFE000000
000007FC000000
000001F0000000
00000000000000
00000000000000
00000000000000
00000000000000
000007FE000000
000007FF000000
00000FFF000000
00000FFF000000
00001FFF800000
00001FFF800000
00001FFF800000
00003FFFC00000
00003FFFC00000
00003FFFC00000
00007F9FE00000
00007F9FE00000
00007F1FE00000
0000FF0FF00000
0000FF0FF00000
0000FE0FF80000
0001FE07F80000
0001FE07F80000
0001FC07FC0000
0003FC03FC0000
0003FC03FC0000
0007F803FE0000
0007F801FE0000
0007F801FE0000
000FF001FF0000
000FF000FF0000
000FE000FF0000
001FE000FF8000
001FE0007F8000
001FC0007F8000
003FC0007FC000
003FC0003FC000
003F80003FC000
007F80003FE000
007F80001FE000
00FF00001FF000
00FFFFFFFFF000
00FFFFFFFFF000
01FFFFFFFFF800
01FFFFFFFFF800
01FFFFFFFFF800
03FFFFFFFFFC00
03FC000007FC00
03FC000003FC00
07F8000003FE00
07F8000003FE00
07F8000001FE00
0FF0000001FF00
0FF0000001FF00
1FF0000000FF00
1FE0000000FF80
1FE00000007F80
3FE00000007F80
3FC00000007FC0
3FC00000003FC0
7FC00000003FE0
7F800000003FE0
7F800000001FE0
FF800000001FF0
FF000000001FF0
FF000000000FF0
ENDCHAR
STARTCHAR 00C6
ENCODING 198
SWIDTH 996 0
DWIDTH 83 0
BBX 78 61 1 0
BITMAP
0000007FFFFFFFFFFFF8
000000FFFFFFFFFFFFF8
000000FFFFFFFFFFFFF8
000001FFFFFFFFFFFFF8
000001FFFFFFFFFFFFF8
000001FFFFFFFFFFFFF8
000003FFFFFFFFFFFFF8
000003F803FC00000000
000007F803FC00000000
000007F803FC00000000
000007F003FC00000000
00000FF003FC00000000
00000FE003FC00000000
00001FE003FC00000000
00001FE003FC00000000
00003FC003FC00000000
00003FC003FC00000000
00003F8003FC00000000
00007F8003FC00000000
00007F8003FC00000000
0000FF0003FC00000000
0000FF0003FC00000000
0000FF0003FC00000000
0001FE0003FC00000000
0001FE0003FC00000000
0003FC0003FC00000000
0003FC0003FFFFFFFFE0
0003FC0003FFFFFFFFE0
0007F80003FFFFFFFFE0
0007F80003FFFFFFFFE0
000FF00003FFFFFFFFE0
000FF00003FFFFFFFFE0
000FF00003FFFFFFFFE0
001FE00003FC00000000
001FE00003FC00000000
003FC00003FC00000000
003FFFFFFFFC00000000
003FFFFFFFFC00000000
007FFFFFFFFC00000000
007FFFFFFFFC00000000
00FFFFFFFFFC00000000
00FFFFFFFFFC00000000
01FFFFFFFFFC00000000
01FE000003FC00000000
01FE000003FC00000000
03FE000003FC00000000
03FC000003FC00000000
07FC000003FC00000000
07F8000003FC00000000
07F8000003FC00000000
0FF8000003FC00000000
0FF0000003FC00000000
1FF0000003FC00000000
1FE0000003FC00000000
1FE0000003FFFFFFFFFC
3FE0000003FFFFFFFFFC
3FC0000003FFFFFFFFFC
7FC0000003FFFFFFFFFC
7F80000003FFFFFFFFFC
7F80000003FFFFFFFFFC
FF80000003FFFFFFFFFC
ENDCHAR
STARTCHAR 00C7
ENCODING 199
SWIDTH 720 0
DWIDTH 60 0
BBX 52 80 4 -18
BITMAP
000003FFC00000
00003FFFFC0000
0000FFFFFF0000
0003FFFFFFC000
000FFFFFFFE000
001FFFFFFFF000
003FFFFFFFF800
007FFC00FFFC00
00FFE0001FFE00
01FF800007FF00
03FF000001FF00
03FE000000FF80
07FC000000FF80
0FF80000007F80
0FF00000003FC0
1FF00000003FC0
1FE00000003FC0
1FE00000001FE0
3FC00000001FE0
3FC00000001FE0
3F800000000000
7F800000000000
7F800000000000
7F800000000000
7F000000000000
FF000000000000
FF000000000000
FF000000000000
FF000000000000
FF000000000000
FF000000000000
FF000000000000
FF000000000000
FF000000000000
FF000000000000
FF000000000000
FF000000000000
FF000000000000
FF000000000000
7F000000000000
7F800000000FF0
7F800000000FF0
7F800000000FF0
7FC00000000FF0
3FC00000001FF0
3FC00000001FE0
3FE00000001FE0
1FE00000003FE0
1FF00000003FC0
0FF80000007FC0
0FF80000007FC0
07FC000000FF80
07FE000001FF80
03FF800003FF00
01FFC00007FE00
00FFF0001FFE00
007FFE00FFFC00
003FFFFFFFF800
001FFFFFFFF000
000FFFFFFFE000
0003FFFFFF8000
0001FFFFFE0000
00003FFFF80000
000001FE000000
000000E0000000
000000E0000000
000001FC000000
000001FF800000
000003FFC00000
000003BFE00000
0000000FE00000
00000007E00000
00000007E00000
00000007E00000
0000C007E00000
0000F00FE00000
0001FF7FC00000
0001FFFF800000
00003FFF000000
000007F8000000
ENDCHAR
STARTCHAR 00C8
ENCODING 200
SWIDTH 672 0
DWIDTH 56 0
BBX 44 78 7 0
BITMAP
001FF0000000
000FF8000000
0007FC000000
0003FC000000
0001FE000000
0000FF000000
00007F000000
00003F800000
00001FC00000
00000FC00000
000007E00000
000003E00000
000000000000
000000000000
000000000000
000000000000
000000000000
FFFFFFFFFFE0
FFFFFFFFFFE0
FFFFFFFFFFE0
FFFFFFFFFFE0
FFFFFFFFFFE0
FFFFFFFFFFE0
FFFFFFFFFFE0
FF0000000000
FF0000000000
FF0000000000
FF0000000000
FF0000000000
FF0000000000
FF0000000000
FF0000000000
FF0000000000
FF0000000000
FF0000000000
FF0000000000
FF0000000000
FF0000000000
FF0000000000
FF0000000000
FF0000000000
FF0000000000
FF0000000000
FFFFFFFFFF80
FFFFFFFFFF80
FFFFFFFFFF80
FFFFFFFFFF80
FFFFFFFFFF80
FFFFFFFFFF80
FFFFFFFFFF80
FF0000000000
FF0000000000
FF0000000000
FF0000000000
FF0000000000
FF0000000000
FF0000000000
FF0000000000
FF0000000000
FF0000000000
FF0000000000
FF0000000000
FF0000000000
FF0000000000
FF0000000000
FF0000000000
FF0000000000
FF0000000000
FF0000000000
FF0000000000
FF0000000000
FFFFFFFFFFF0
FFFFFFFFFFF0
FFFFFFFFFFF0
FFFFFFFFFFF0
FFFFFFFFFFF0
FFFFFFFFFFF0
FFFFFFFFFFF0
ENDCHAR
STARTCHAR 00C9
ENCODING 201
SWIDTH 672 0
DWIDTH 56 0
BBX 44 78 7 0
BITMAP
000001FF0000
000003FE0000
000003FC0000
000007F80000
00000FF00000
00000FE00000
00001FC00000
00003F800000
00003F000000
00007E000000
0000FC000000
0000F8000000
000000000000
000000000000
000000000000
000000000000
000000000000
FFFFFFFFFFE0
FFFFFFFFFFE0
FFFFFFFFFFE0
FFFFFFFFFFE0
FFFFFFFFFFE0
FFFFFFFFFFE0
FFFFFFFFFFE0
FF0000000000
FF0000000000
FF0000000000
FF0000000000
FF0000000000
FF0000000000
FF0000000000
FF0000000000
FF0000000000
FF0000000000
FF0000000000
FF0000000000
FF0000000000
FF0000000000
FF0000000000
FF0000000000
FF0000000000
FF0000000000
FF0000000000
FFFFFFFFFF80
FFFFFFFFFF80
FFFFFFFFFF80
FFFFFFFFFF80
FFFFFFFFFF80
FFFFFFFFFF80
FFFFFFFFFF80
FF0000000000
FF0000000000
FF0000000000
FF0000000000
FF0000000000
FF0000000000
FF0000000000
FF0000000000
FF0000000000
FF0000000000
FF0000000000
FF0000000000
FF0000000000
FF0000000000
FF0000000000
FF0000000000
FF0000000000
FF0000000000
FF0000000000
FF0000000000
FF0000000000
FFFFFFFFFFF0
FFFFFFFFFFF0
FFFFFFFFFFF0
FFFFFFFFFFF0
FFFFFFFFFFF0
FFFFFFFFFFF0
FFFFFFFFFFF0
ENDCHAR
STARTCHAR 00CA
ENCODING 202
SWIDTH 672 0
DWIDTH 56 0
BBX 44 79 7 0
BITMAP
00003FC00000
00007FC00000
0000FFE00000
0000FFF00000
0001FFF00000
0003FBF80000
0003F1FC0000
0007F0FC0000
0007E07E0000
000FC03E0000
001F803F0000
001F001F8000
003F000F8000
000000000000
000000000000
000000000000
000000000000
000000000000
FFFFFFFFFFE0
FFFFFFFFFFE0
FFFFFFFFFFE0
FFFFFFFFFFE0
FFFFFFFFFFE0
FFFFFFFFFFE0
FFFFFFFFFFE0
FF0000000000
FF0000000000
FF0000000000
FF0000000000
FF0000000000
FF0000000000
FF0000000000
FF0000000000
FF0000000000
FF0000000000
FF0000000000
FF0000000000
FF0000000000
FF0000000000
FF0000000000
FF0000000000
FF0000000000
FF0000000000
FF0000000000
FFFFFFFFFF80
FFFFFFFFFF80
FFFFFFFFFF80
FFFFFFFFFF80
FFFFFFFFFF80
FFFFFFFFFF80
FFFFFFFFFF80
FF0000000000
FF0000000000
FF0000000000
FF0000000000
FF0000000000
FF0000000000
FF0000000000
FF0000000000
FF0000000000
FF0000000000
FF0000000000
FF0000000000
FF0000000000
FF0000000000
FF0000000000
FF0000000000
FF0000000000
FF0000000000
FF0000000000
FF0000000000
FF0000000000
FFFFFFFFFFF0
FFFFFFFFFFF0
FFFFFFFFFFF0
FFFFFFFFFFF0
FFFFFFFFFFF0
FFFFFFFFFFF0
FFFFFFFFFFF0
ENDCHAR
STARTCHAR 00CB
ENCODING 203
SWIDTH 672 0
DWIDTH 56 0
BBX 44 77 7 0
BITMAP
001FE0FF8000
001FE0FF8000
001FE0FF8000
001FE0FF8000
001FE0FF8000
001FE0FF8000
001FE0FF8000
001FE0FF8000
001FE0FF8000
000000000000
000000000000
000000000000
000000000000
000000000000
000000000000
000000000000
FFFFFFFFFFE0
FFFFFFFFFFE0
FFFFFFFFFFE0
FFFFFFFFFFE0
FFFFFFFFFFE0
FFFFFFFFFFE0
FFFFFFFFFFE0
FF0000000000
FF0000000000
FF0000000000
FF0000000000
FF0000000000
FF0000000000
FF0000000000
FF0000000000
FF0000000000
FF0000000000
FF0000000000
FF0000000000
FF0000000000
FF0000000000
FF0000000000
FF0000000000
FF0000000000
FF0000000000
FF0000000000
FFFFFFFFFF80
FFFFFFFFFF80
FFFFFFFFFF80
FFFFFFFFFF80
FFFFFFFFFF80
FFFFFFFFFF80
FFFFFFFFFF80
FF0000000000
FF0000000000
FF0000000000
FF0000000000
FF0000000000
FF0000000000
FF0000000000
FF0000000000
FF0000000000
FF0000000000
FF0000000000
FF0000000000
FF0000000000
FF0000000000
FF0000000000
FF0000000000
FF0000000000
FF0000000000
FF0000000000
FF0000000000
FF0000000000
FFFFFFFFFFF0
FFFFFFFFFFF0
FFFFFFFFFFF0
FFFFFFFFFFF0
FFFFFFFFFFF0
FFFFFFFFFFF0
FFFFFFFFFFF0
ENDCHAR
STARTCHAR 00CC
ENCODING 204
SWIDTH 276 0
DWIDTH 23 0
BBX 16 78 1 0
BITMAP
FF80
7FC0
3FC0
1FE0
0FF0
07F0
03F8
01FC
00FC
007E
003F
001F
0000
0000
0000
0000
0000
01FE
01FE
01FE
01FE
01FE
01FE
01FE
01FE
01FE
01FE
01FE
01FE
01FE
01FE
01FE
01FE
01FE
01FE
01FE
01FE
01FE
01FE
01FE
01FE
01FE
01FE
01FE
01FE
01FE
01FE
01FE
01FE
01FE
01FE
01FE
01FE
01FE
01FE
01FE
01FE
01FE
01FE
01FE
01FE
01FE
01FE
01FE
01FE
01FE
01FE
01FE
01FE
01FE
01FE
01FE
01FE
01FE
01FE
01FE
01FE
01FE
ENDCHAR
STARTCHAR 00CD
ENCODING 205
SWIDTH 276 0
DWIDTH 23 0
BBX 17 78 6 0
BITMAP
01FF80
01FE00
03FC00
07F800
07F000
0FE000
1FC000
1F8000
3F0000
7E0000
7C0000
F80000
000000
000000
000000
000000
000000
3FC000
3FC000
3FC000
3FC000
3FC000
3FC000
3FC000
3FC000
3FC000
3FC000
3FC000
3FC000
3FC000
3FC000
3FC000
3FC000
3FC000
3FC000
3FC000
3FC000
3FC000
3FC000
3FC000
3FC000
3FC000
3FC000
3FC000
3FC000
3FC000
3FC000
3FC000
3FC000
3FC000
3FC000
3FC000
3FC000
3FC000
3FC000
3FC000
3FC000
3FC000
3FC000
3FC000
3FC000
3FC000
3FC000
3FC000
3FC000
3FC000
3FC000
3FC000
3FC000
3FC000
3FC000
3FC000
3FC000
3FC000
3FC000
3FC000
3FC000
3FC000
ENDCHAR
STARTCHAR 00CE
ENCODING 206
SWIDTH 276 0
DWIDTH 23 0
BBX 24 79 0 0
BITMAP
00FF00
01FF80
01FF80
03FFC0
07FFC0
07EFE0
0FE7F0
1FC3F0
1F81F8
3F00FC
7E007C
7C007E
FC003F
000000
000000
000000
000000
000000
00FF00
00FF00
00FF00
00FF00
00FF00
00FF00
00FF00
00FF00
00FF00
00FF00
00FF00
00FF00
00FF00
00FF00
00FF00
00FF00
00FF00
00FF00
00FF00
00FF00
00FF00
00FF00
00FF00
00FF00
00FF00
00FF00
00FF00
00FF00
00FF00
00FF00
00FF00
00FF00
00FF00
00FF00
00FF00
00FF00
00FF00
00FF00
00FF00
00FF00
00FF00
00FF00
00FF00
00FF00
00FF00
00FF00
00FF00
00FF00
00FF00
00FF00
00FF00
00FF00
00FF00
00FF00
00FF00
00FF00
00FF00
00FF00
00FF00
00FF00
00FF00
ENDCHAR
STARTCHAR 00CF
ENCODING 207
SWIDTH 276 0
DWIDTH 23 0
BBX 22 76 1 0
BITMAP
FF07FC
FF07FC
FF07FC
FF07FC
FF07FC
FF07FC
FF07FC
FF07FC
FF07FC
000000
000000
000000
000000
000000
000000
01FE00
01FE00
01FE00
01FE00
01FE00
01FE00
01FE00
01FE00
01FE00
01FE00
01FE00
01FE00
01FE00
01FE00
01FE00
01FE00
01FE00
01FE00
01FE00
01FE00
01FE00
01FE00
01FE00
01FE00
01FE00
01FE00
01FE00
01FE00
01FE00
01FE00
01FE00
01FE00
01FE00
01FE00
01FE00
01FE00
01FE00
01FE00
01FE00
01FE00
01FE00
01FE00
01FE00
01FE00
01FE00
01FE00
01FE00
01FE00
01FE00
01FE00
01FE00
01FE00
01FE00
01FE00
01FE00
01FE00
01FE00
01FE00
01FE00
01FE00
01FE00
ENDCHAR
STARTCHAR 00D0
ENCODING 208
SWIDTH 720 0
DWIDTH 60 0
BBX 54 61 2 0
BITMAP
07FFFFFFC00000
07FFFFFFFC0000
07FFFFFFFF0000
07FFFFFFFFC000
07FFFFFFFFE000
07FFFFFFFFF800
07FFFFFFFFFC00
07F800007FFE00
07F800000FFE00
07F8000007FF00
07F8000001FF80
07F8000000FF80
07F80000007FC0
07F80000003FC0
07F80000003FE0
07F80000001FE0
07F80000001FF0
07F80000000FF0
07F80000000FF0
07F800000007F0
07F800000007F8
07F800000007F8
07F800000007F8
07F800000007F8
07F800000003F8
07F800000003F8
07F800000003F8
FFFFFFE00003FC
FFFFFFE00003FC
FFFFFFE00003FC
FFFFFFE00003FC
FFFFFFE00003FC
FFFFFFE00003FC
07F800000003FC
07F800000003F8
07F800000003F8
07F800000003F8
07F800000007F8
07F800000007F8
07F800000007F8
07F800000007F8
07F80000000FF0
07F80000000FF0
07F80000000FF0
07F80000001FE0
07F80000001FE0
07F80000003FE0
07F80000003FC0
07F80000007FC0
07F8000000FF80
07F8000001FF80
07F8000003FF00
07F800000FFE00
07F800007FFC00
07FFFFFFFFFC00
07FFFFFFFFF000
07FFFFFFFFE000
07FFFFFFFFC000
07FFFFFFFF0000
07FFFFFFFC0000
07FFFFFFC00000
ENDCHAR
STARTCHAR 00D1
ENCODING 209
SWIDTH 720 0
DWIDTH 60 0
BBX 48 77 6 0
BITMAP
000020007C00
0001FF00FC00
0003FFC0F800
0003FFFFF800
0007FFFFF800
0007FFFFF000
000FC3FFF000
000F80FFE000
000F801F8000
000000000000
000000000000
000000000000
000000000000
000000000000
000000000000
000000000000
FF80000000FF
FFC0000000FF
FFC0000000FF
FFE0000000FF
FFF0000000FF
FFF0000000FF
FFF8000000FF
FFFC000000FF
FFFC000000FF
FFFE000000FF
FFFE000000FF
FFFF000000FF
FFFF800000FF
FF7F800000FF
FF3FC00000FF
FF3FE00000FF
FF1FE00000FF
FF1FF00000FF
FF0FF80000FF
FF07F80000FF
FF07FC0000FF
FF03FC0000FF
FF01FE0000FF
FF01FF0000FF
FF00FF0000FF
FF00FF8000FF
FF007FC000FF
FF003FC000FF
FF003FE000FF
FF001FF000FF
FF000FF000FF
FF000FF800FF
FF0007F800FF
FF0003FC00FF
FF0003FE00FF
FF0001FE00FF
FF0001FF00FF
FF0000FF80FF
FF00007F80FF
FF00007FC0FF
FF00003FE0FF
FF00001FE0FF
FF00001FF0FF
FF00000FF0FF
FF000007F8FF
FF000007FCFF
FF000003FCFF
FF000003FEFF
FF000001FFFF
FF000000FFFF
FF000000FFFF
FF0000007FFF
FF0000003FFF
FF0000003FFF
FF0000001FFF
FF0000001FFF
FF0000000FFF
FF00000007FF
FF00000007FF
FF00000003FF
FF00000001FF
ENDCHAR
STARTCHAR 00D2
ENCODING 210
SWIDTH 780 0
DWIDTH 65 0
BBX 59 80 3 -2
BITMAP
00003FE000000000
00001FF000000000
00000FF800000000
000007F800000000
000003FC00000000
000001FE00000000
000000FE00000000
0000007F00000000
0000003F80000000
0000001F80000000
0000000FC0000000
00000007E0000000
0000000000000000
0000000000000000
0000000000000000
0000000000000000
000000FFE0000000
00000FFFFE000000
00007FFFFFC00000
0001FFFFFFF00000
0007FFFFFFFC0000
000FFFFFFFFE0000
001FFFFFFFFF0000
003FFF001FFFC000
007FF80003FFE000
00FFE00000FFE000
01FF8000003FF000
03FF0000001FF800
07FE0000000FFC00
07FC00000007FC00
0FF800000003FE00
0FF000000003FE00
1FF000000001FF00
1FE000000000FF00
3FE000000000FF80
3FC0000000007F80
3FC0000000007F80
3FC0000000007FC0
7F80000000003FC0
7F80000000003FC0
7F80000000003FC0
7F80000000003FC0
7F00000000001FE0
FF00000000001FE0
FF00000000001FE0
FF00000000001FE0
FF00000000001FE0
FF00000000001FE0
FF00000000001FE0
FF00000000001FE0
FF00000000001FE0
FF00000000001FE0
FF00000000001FE0
7F00000000001FE0
7F80000000001FC0
7F80000000003FC0
7F80000000003FC0
7F80000000003FC0
7FC0000000003F80
3FC0000000007F80
3FC0000000007F80
3FE000000000FF80
1FE000000000FF00
1FF000000001FF00
0FF800000001FE00
0FF800000003FE00
07FC00000007FC00
07FE0000000FFC00
03FF0000001FF800
01FFC000003FF000
00FFE00000FFE000
007FF80003FFE000
007FFF001FFFC000
001FFFFFFFFF0000
000FFFFFFFFE0000
0007FFFFFFFC0000
0001FFFFFFF00000
00007FFFFFC00000
00000FFFFE000000
000000FFE0000000
ENDCHAR
STARTCHAR 00D3
ENCODING 211
SWIDTH 780 0
DWIDTH 65 0
BBX 59 80 3 -2
BITMAP
00000001FF800000
00000001FE000000
00000003FC000000
00000007F8000000
00000007F0000000
0000000FE0000000
0000001FC0000000
0000001F80000000
0000003F00000000
0000007E00000000
0000007C00000000
000000F800000000
0000000000000000
0000000000000000
0000000000000000
0000000000000000
000000FFE0000000
00000FFFFE000000
00007FFFFFC00000
0001FFFFFFF00000
0007FFFFFFFC0000
000FFFFFFFFE0000
001FFFFFFFFF0000
003FFF001FFFC000
007FF80003FFE000
00FFE00000FFE000
01FF8000003FF000
03FF0000001FF800
07FE0000000FFC00
07FC00000007FC00
0FF800000003FE00
0FF000000003FE00
1FF000000001FF00
1FE000000000FF00
3FE000000000FF80
3FC0000000007F80
3FC0000000007F80
3FC0000000007FC0
7F80000000003FC0
7F80000000003FC0
7F80000000003FC0
7F80000000003FC0
7F00000000001FE0
FF00000000001FE0
FF00000000001FE0
FF00000000001FE0
FF00000000001FE0
FF00000000001FE0
FF00000000001FE0
FF00000000001FE0
FF00000000001FE0
FF00000000001FE0
FF00000000001FE0
7F00000000001FE0
7F80000000001FC0
7F80000000003FC0
7F80000000003FC0
7F80000000003FC0
7FC0000000003F80
3FC0000000007F80
3FC0000000007F80
3FE000000000FF80
1FE000000000FF00
1FF000000001FF00
0FF800000001FE00
0FF800000003FE00
07FC00000007FC00
07FE0000000FFC00
03FF0000001FF800
01FFC000003FF000
00FFE00000FFE000
007FF80003FFE000
007FFF001FFFC000
001FFFFFFFFF0000
000FFFFFFFFE0000
0007FFFFFFFC0000
0001FFFFFFF00000
00007FFFFFC00000
00000FFFFE000000
000000FFE0000000
ENDCHAR
STARTCHAR 00D4
ENCODING 212
SWIDTH 780 0
DWIDTH 65 0
BBX 59 81 3 -2
BITMAP
0000003F80000000
0000007FC0000000
000000FFE0000000
000000FFE0000000
000001FFF0000000
000003FBF8000000
000003F1F8000000
000007E0FC000000
00000FE0FE000000
00000FC07E000000
00001F803F000000
00003F001F800000
00003E000F800000
0000000000000000
0000000000000000
0000000000000000
0000000000000000
000000FFE0000000
00000FFFFE000000
00007FFFFFC00000
0001FFFFFFF00000
0007FFFFFFFC0000
000FFFFFFFFE0000
001FFFFFFFFF0000
003FFF001FFFC000
007FF80003FFE000
00FFE00000FFE000
01FF8000003FF000
03FF0000001FF800
07FE0000000FFC00
07FC00000007FC00
0FF800000003FE00
0FF000000003FE00
1FF000000001FF00
1FE000000000FF00
3FE000000000FF80
3FC0000000007F80
3FC0000000007F80
3FC0000000007FC0
7F80000000003FC0
7F80000000003FC0
7F80000000003FC0
7F80000000003FC0
7F00000000001FE0
FF00000000001FE0
FF00000000001FE0
FF00000000001FE0
FF00000000001FE0
FF00000000001FE0
FF00000000001FE0
FF00000000001FE0
FF00000000001FE0
FF00000000001FE0
FF00000000001FE0
7F00000000001FE0
7F80000000001FC0
7F80000000003FC0
7F80000000003FC0
7F80000000003FC0
7FC0000000003F80
3FC0000000007F80
3FC0000000007F80
3FE000000000FF80
1FE000000000FF00
1FF000000001FF00
0FF800000001FE00
0FF800000003FE00
07FC00000007FC00
07FE0000000FFC00
03FF0000001FF800
01FFC000003FF000
00FFE00000FFE000
007FF80003FFE000
007FFF001FFFC000
001FFFFFFFFF0000
000FFFFFFFFE0000
0007FFFFFFFC0000
0001FFFFFFF00000
00007FFFFFC00000
00000FFFFE000000
000000FFE0000000
ENDCHAR
STARTCHAR 00D5
ENCODING 213
SWIDTH 780 0
DWIDTH 65 0
BBX 59 79 3 -2
BITMAP
0000018003E00000
000007F803E00000
00001FFE07C00000
00001FFFFFC00000
00003FFFFFC00000
00003FFFFF800000
00007E1FFF800000
00007C07FF000000
00007C00FC000000
0000000000000000
0000000000000000
0000000000000000
0000000000000000
0000000000000000
0000000000000000
000000FFE0000000
00000FFFFE000000
00007FFFFFC00000
0001FFFFFFF00000
0007FFFFFFFC0000
000FFFFFFFFE0000
001FFFFFFFFF0000
003FFF001FFFC000
007FF80003FFE000
00FFE00000FFE000
01FF8000003FF000
03FF0000001FF800
07FE0000000FFC00
07FC00000007FC00
0FF800000003FE00
0FF000000003FE00
1FF000000001FF00
1FE000000000FF00
3FE000000000FF80
3FC0000000007F80
3FC0000000007F80
3FC0000000007FC0
7F80000000003FC0
7F80000000003FC0
7F80000000003FC0
7F80000000003FC0
7F00000000001FE0
FF00000000001FE0
FF00000000001FE0
FF00000000001FE0
FF00000000001FE0
FF00000000001FE0
FF00000000001FE0
FF00000000001FE0
FF00000000001FE0
FF00000000001FE0
FF00000000001FE0
7F00000000001FE0
7F80000000001FC0
7F80000000003FC0
7F80000000003FC0
7F80000000003FC0
7FC0000000003F80
3FC0000000007F80
3FC0000000007F80
3FE000000000FF80
1FE000000000FF00
1FF000000001FF00
0FF800000001FE00
0FF800000003FE00
07FC00000007FC00
07FE0000000FFC00
03FF0000001FF800
01FFC000003FF000
00FFE00000FFE000
007FF80003FFE000
007FFF001FFFC000
001FFFFFFFFF0000
000FFFFFFFFE0000
0007FFFFFFFC0000
0001FFFFFFF00000
00007FFFFFC00000
00000FFFFE000000
000000FFE0000000
ENDCHAR
STARTCHAR 00D6
ENCODING 214
SWIDTH 780 0
DWIDTH 65 0
BBX 59 79 3 -2
BITMAP
00003FE0FF800000
00003FE0FF800000
00003FE0FF800000
00003FE0FF800000
00003FE0FF800000
00003FE0FF800000
00003FE0FF800000
00003FE0FF800000
00003FE0FF800000
0000000000000000
0000000000000000
0000000000000000
0000000000000000
0000000000000000
0000000000000000
000000FFE0000000
00000FFFFE000000
00007FFFFFC00000
0001FFFFFFF00000
0007FFFFFFFC0000
000FFFFFFFFE0000
001FFFFFFFFF0000
003FFF001FFFC000
007FF80003FFE000
00FFE00000FFE000
01FF8000003FF000
03FF0000001FF800
07FE0000000FFC00
07FC00000007FC00
0FF800000003FE00
0FF000000003FE00
1FF000000001FF00
1FE000000000FF00
3FE000000000FF80
3FC0000000007F80
3FC0000000007F80
3FC0000000007FC0
7F80000000003FC0
7F80000000003FC0
7F80000000003FC0
7F80000000003FC0
7F00000000001FE0
FF00000000001FE0
FF00000000001FE0
FF00000000001FE0
FF00000000001FE0
FF00000000001FE0
FF00000000001FE0
FF00000000001FE0
FF00000000001FE0
FF00000000001FE0
FF00000000001FE0
7F00000000001FE0
7F80000000001FC0
7F80000000003FC0
7F80000000003FC0
7F80000000003FC0
7FC0000000003F80
3FC0000000007F80
3FC0000000007F80
3FE000000000FF80
1FE000000000FF00
1FF000000001FF00
0FF800000001FE00
0FF800000003FE00
07FC00000007FC00
07FE0000000FFC00
03FF0000001FF800
01FFC000003FF000
00FFE00000FFE000
007FF80003FFE000
007FFF001FFFC000
001FFFFFFFFF0000
000FFFFFFFFE0000
0007FFFFFFFC0000
0001FFFFFFF00000
00007FFFFFC00000
00000FFFFE000000
000000FFE0000000
ENDCHAR
STARTCHAR 00D7
ENCODING 215
SWIDTH 588 0
DWIDTH 49 0
BBX 32 33 8 3
BITMAP
00000008
1800001C
3C00003E
7E00007F
FF0000FF
7F8001FF
3FC003FE
1FE007FC
0FF00FF8
07F81FF0
03FC3FE0
01FE7FC0
00FFFF80
007FFF00
003FFE00
001FFC00
000FF800
001FF800
003FFC00
007FFE00
00FFFF00
01FF7F80
03FE3FC0
07FC1FE0
0FF80FF0
1FF007F8
3FE003FC
7FC001FE
FF8000FF
FF00007F
7E00003E
3C00001C
18000008
ENDCHAR
STARTCHAR 00D8
ENCODING 216
SWIDTH 780 0
DWIDTH 65 0
BBX 60 65 2 -2
BITMAP
0000000000000080
0000007FF00001E0
000007FFFF0003F0
00003FFFFFE007E0
0000FFFFFFF80FC0
0003FFFFFFFE1FC0
0007FFFFFFFF1F80
001FFFFFFFFFBF00
003FFF800FFFFE00
007FFC0001FFFC00
00FFF000007FF800
00FFC000003FF800
01FF8000000FFC00
03FF0000000FFC00
03FE0000001FFE00
07FC0000003FFF00
07F80000007FFF00
0FF80000007EFF80
0FF0000000FCFF80
1FF0000001F87F80
1FE0000003F07FC0
1FE0000007E03FC0
3FC000000FC03FC0
3FC000001F801FE0
3FC000003F001FE0
3F8000007E001FE0
7F800000FC001FE0
7F800001F8001FE0
7F800001F8000FE0
7F800003F0000FE0
7F800007E0000FF0
7F80000FC0000FF0
7F80001F80000FF0
7F80003F00000FF0
7F80007E00000FF0
7F8000FC00000FF0
7F8001F800000FE0
7F8003F000000FE0
7F8007E000001FE0
7F8007E000001FE0
3F800FC000001FE0
3FC01F8000001FE0
3FC03F0000001FE0
3FC07E0000003FC0
1FE0FC0000003FC0
1FE1F80000003FC0
1FF3F00000007F80
0FF7E00000007F80
0FFFC0000000FF80
0FFF80000001FF00
07FF00000001FF00
03FF00000003FE00
03FF00000007FC00
01FF8000000FFC00
01FFC000003FF800
03FFF000007FF000
07FFFC0001FFE000
0FFFFF800FFFC000
1F9FFFFFFFFF8000
3F07FFFFFFFF0000
7E03FFFFFFFC0000
FC00FFFFFFF80000
3C003FFFFFE00000
18000FFFFF000000
000000FFF0000000
ENDCHAR
STARTCHAR 00D9
ENCODING 217
SWIDTH 720 0
DWIDTH 60 0
BBX 47 80 7 -2
BITMAP
000FF8000000
0007FC000000
0003FE000000
0001FE000000
0000FF000000
00007F800000
00003F800000
00001FC00000
00000FE00000
000007E00000
000003F00000
000001F80000
000000000000
000000000000
000000000000
000000000000
000000000000
FF00000001FE
FF00000001FE
FF00000001FE
FF00000001FE
FF00000001FE
FF00000001FE
FF00000001FE
FF00000001FE
FF00000001FE
FF00000001FE
FF00000001FE
FF00000001FE
FF00000001FE
FF00000001FE
FF00000001FE
FF00000001FE
FF00000001FE
FF00000001FE
FF00000001FE
FF00000001FE
FF00000001FE
FF00000001FE
FF00000001FE
FF00000001FE
FF00000001FE
FF00000001FE
FF00000001FE
FF00000001FE
FF00000001FE
FF00000001FE
FF00000001FE
FF00000001FE
FF00000001FE
FF00000001FE
FF00000001FE
FF00000001FE
FF00000001FE
FF00000001FE
FF00000001FE
FF00000001FE
FF00000001FE
FF00000001FE
FF00000001FE
FF00000001FE
FF00000001FE
FF00000001FE
FF00000001FC
7F80000003FC
7F80000003FC
7F80000007FC
7FC0000007F8
3FE000000FF8
3FF000001FF0
1FF800003FF0
0FFE0000FFE0
0FFFC007FFC0
07FFFFFFFFC0
03FFFFFFFF00
00FFFFFFFE00
007FFFFFFC00
001FFFFFF000
0003FFFF8000
00007FF80000
ENDCHAR
STARTCHAR 00DA
ENCODING 218
SWIDTH 720 0
DWIDTH 60 0
BBX 47 80 7 -2
BITMAP
0000007FC000
000000FF8000
000001FF0000
000001FE0000
000003FC0000
000007F80000
000007F00000
00000FE00000
00001FC00000
00001F800000
00003F000000
00007E000000
000000000000
000000000000
000000000000
000000000000
000000000000
FF00000001FE
FF00000001FE
FF00000001FE
FF00000001FE
FF00000001FE
FF00000001FE
FF00000001FE
FF00000001FE
FF00000001FE
FF00000001FE
FF00000001FE
FF00000001FE
FF00000001FE
FF00000001FE
FF00000001FE
FF00000001FE
FF00000001FE
FF00000001FE
FF00000001FE
FF00000001FE
FF00000001FE
FF00000001FE
FF00000001FE
FF00000001FE
FF00000001FE
FF00000001FE
FF00000001FE
FF00000001FE
FF00000001FE
FF00000001FE
FF00000001FE
FF00000001FE
FF00000001FE
FF00000001FE
FF00000001FE
FF00000001FE
FF00000001FE
FF00000001FE
FF00000001FE
FF00000001FE
FF00000001FE
FF00000001FE
FF00000001FE
FF00000001FE
FF00000001FE
FF00000001FE
FF00000001FC
7F80000003FC
7F80000003FC
7F80000007FC
7FC0000007F8
3FE000000FF8
3FF000001FF0
1FF800003FF0
0FFE0000FFE0
0FFFC007FFC0
07FFFFFFFF80
03FFFFFFFF00
00FFFFFFFE00
007FFFFFFC00
001FFFFFF000
0003FFFF8000
00007FF80000
ENDCHAR
STARTCHAR 00DB
ENCODING 219
SWIDTH 720 0
DWIDTH 60 0
BBX 47 81 7 -2
BITMAP
00001FE00000
00001FF00000
00003FF80000
00003FF80000
00007FFC0000
0000FEFE0000
0000FC7E0000
0001F83F0000
0003F03F8000
0003F01F8000
0007E00FC000
000FC007E000
000F8003E000
000000000000
000000000000
000000000000
000000000000
000000000000
FF00000001FE
FF00000001FE
FF00000001FE
FF00000001FE
FF00000001FE
FF00000001FE
FF00000001FE
FF00000001FE
FF00000001FE
FF00000001FE
FF00000001FE
FF00000001FE
FF00000001FE
FF00000001FE
FF00000001FE
FF00000001FE
FF00000001FE
FF00000001FE
FF00000001FE
FF00000001FE
FF00000001FE
FF00000001FE
FF00000001FE
FF00000001FE
FF00000001FE
FF00000001FE
FF00000001FE
FF00000001FE
FF00000001FE
FF00000001FE
FF00000001FE
FF00000001FE
FF00000001FE
FF00000001FE
FF00000001FE
FF00000001FE
FF00000001FE
FF00000001FE
FF00000001FE
FF00000001FE
FF00000001FE
FF00000001FE
FF00000001FE
FF00000001FE
FF00000001FE
FF00000001FE
FF00000001FC
7F80000003FC
7F80000003FC
7F80000007FC
7FC0000007F8
3FE000000FF8
3FF000001FF0
1FF800003FF0
0FFE0000FFE0
0FFFC007FFC0
07FFFFFFFFC0
03FFFFFFFF00
00FFFFFFFE00
007FFFFFFC00
001FFFFFF000
0003FFFF8000
00007FF80000
ENDCHAR
STARTCHAR 00DC
ENCODING 220
SWIDTH 720 0
DWIDTH 60 0
BBX 47 79 7 -2
BITMAP
000FF83FC000
000FF83FC000
000FF83FC000
000FF83FC000
000FF83FC000
000FF83FC000
000FF83FC000
000FF83FC000
000FF83FC000
000000000000
000000000000
000000000000
000000000000
000000000000
000000000000
000000000000
FF00000001FE
FF00000001FE
FF00000001FE
FF00000001FE
FF00000001FE
FF00000001FE
FF00000001FE
FF00000001FE
FF00000001FE
FF00000001FE
FF00000001FE
FF00000001FE
FF00000001FE
FF00000001FE
FF00000001FE
FF00000001FE
FF00000001FE
FF00000001FE
FF00000001FE
FF00000001FE
FF00000001FE
FF00000001FE
FF00000001FE
FF00000001FE
FF00000001FE
FF00000001FE
FF00000001FE
FF00000001FE
FF00000001FE
FF00000001FE
FF00000001FE
FF00000001FE
FF00000001FE
FF00000001FE
FF00000001FE
FF00000001FE
FF00000001FE
FF00000001FE
FF00000001FE
FF00000001FE
FF00000001FE
FF00000001FE
FF00000001FE
FF00000001FE
FF00000001FE
FF00000001FE
FF00000001FC
7F80000003FC
7F80000003FC
7F80000007FC
7FC0000007F8
3FE000000FF8
3FF000001FF0
1FF800003FF0
0FFE0000FFE0
0FFFC007FFC0
07FFFFFFFFC0
03FFFFFFFF00
00FFFFFFFE00
007FFFFFFC00
001FFFFFF000
0003FFFF8000
00007FF80000
ENDCHAR
STARTCHAR 00DD
ENCODING 221
SWIDTH 672 0
DWIDTH 56 0
BBX 54 78 1 0
BITMAP
00000007FC0000
0000000FF80000
0000001FF00000
0000001FE00000
0000003FC00000
0000003F800000
0000007F000000
000000FE000000
000000FC000000
000001F8000000
000003F0000000
000003E0000000
00000000000000
00000000000000
00000000000000
00000000000000
00000000000000
FFC00000000FFC
7FE00000000FF8
3FE00000001FF0
3FF00000001FF0
1FF00000003FE0
0FF80000003FE0
0FFC0000007FC0
07FC000000FF80
07FE000000FF80
03FE000001FF00
01FF000001FF00
01FF800003FE00
00FF800007FC00
007FC00007FC00
007FC0000FF800
003FE0000FF000
003FF0001FF000
001FF0001FE000
000FF8003FE000
000FF8007FC000
0007FC007F8000
0003FE00FF8000
0003FE00FF0000
0001FF01FF0000
0001FF03FE0000
0000FF83FC0000
00007FC7FC0000
00007FC7F80000
00003FEFF00000
00001FEFF00000
00001FFFE00000
00000FFFE00000
000007FFC00000
000007FF800000
000003FF800000
000003FF000000
000001FF000000
000001FE000000
000001FE000000
000001FE000000
000001FE000000
000001FE000000
000001FE000000
000001FE000000
000001FE000000
000001FE000000
000001FE000000
000001FE000000
000001FE000000
000001FE000000
000001FE000000
000001FE000000
000001FE000000
000001FE000000
000001FE000000
000001FE000000
000001FE000000
000001FE000000
000001FE000000
000001FE000000
000001FE000000
ENDCHAR
STARTCHAR 00DE
ENCODING 222
SWIDTH 672 0
DWIDTH 56 0
BBX 43 61 8 0
BITMAP
FE0000000000
FE0000000000
FE0000000000
FE0000000000
FE0000000000
FE0000000000
FE0000000000
FE0000000000
FE0000000000
FE0000000000
FFFFFFFC0000
FFFFFFFF8000
FFFFFFFFE000
FFFFFFFFF800
FFFFFFFFFC00
FFFFFFFFFE00
FFFFFFFFFF00
FE00000FFF80
FE000003FF80
FE000000FFC0
FE0000007FC0
FE0000007FE0
FE0000003FE0
FE0000003FE0
FE0000001FE0
FE0000001FE0
FE0000001FE0
FE0000001FE0
FE0000001FE0
FE0000001FE0
FE0000001FE0
FE0000003FE0
FE0000003FE0
FE0000003FC0
FE0000007FC0
FE000000FFC0
FE000001FF80
FE00000FFF80
FFFFFFFFFF00
FFFFFFFFFE00
FFFFFFFFFC00
FFFFFFFFF800
FFFFFFFFF000
FFFFFFFFC000
FFFFFFFE0000
FE0000000000
FE0000000000
FE0000000000
FE0000000000
FE0000000000
FE0000000000
FE0000000000
FE0000000000
FE0000000000
FE0000000000
FE0000000000
FE0000000000
FE0000000000
FE0000000000
FE0000000000
FE0000000000
ENDCHAR
STARTCHAR 00DF
ENCODING 223
SWIDTH 612 0
DWIDTH 51 0
BBX 40 63 6 -2
BITMAP
0003FF0000
003FFFF000
00FFFFFC00
03FFFFFE00
07FFFFFF80
0FFFFFFFC0
1FFFFFFFE0
3FF800FFE0
7FE0003FF0
7F80001FF0
7F80000FF8
FF000007F8
FE000007F8
FE000003F8
FE000003F8
FE000003F8
FE000003F8
FE000003F8
FE000003F8
FE000007F8
FE00000FF0
FE00000FF0
FE00003FE0
FE00007FC0
FE0003FF80
FE007FFF00
FE007FFC00
FE007FE000
FE007FFC00
FE007FFF00
FE007FFFC0
FE007FFFE0
FE00007FF0
FE00001FF8
FE000007FC
FE000003FE
FE000001FE
FE000000FE
FE000000FF
FE000000FF
FE0000007F
FE0000007F
FE0000007F
FE0000007F
FE0000007F
FE0000007F
FE0000007F
FE000000FF
FE000000FF
FE000000FE
FE000001FE
FE000003FE
FE000007FC
FE00000FFC
FE00003FF8
FE0000FFF8
FE00FFFFF0
FE00FFFFE0
FE00FFFFC0
FE00FFFF00
FE00FFFE00
0000FFF000
0000FF8000
ENDCHAR
STARTCHAR 00E0
ENCODING 224
SWIDTH 552 0
DWIDTH 46 0
BBX 41 64 4 -2
BITMAP
00FF80000000
007FC0000000
003FC0000000
001FE0000000
000FF0000000
0007F0000000
0003F8000000
0001FC000000
0000FC000000
00007E000000
00003F000000
00001F000000
00000F800000
000000000000
000000000000
000000000000
000000000000
0003FF800000
003FFFF00000
00FFFFFC0000
03FFFFFF0000
07FFFFFF8000
0FFFFFFFC000
1FFFDFFFC000
1FF8007FE000
3FE0003FE000
3FC0001FE000
3F80000FE000
3F80000FE000
3F80000FE000
7F80000FE000
0000000FE000
0000000FE000
0000000FE000
0000000FE000
0000003FE000
000003FFE000
0001FFFFE000
003FFFFFE000
01FFFFFFE000
07FFFFFFE000
0FFFFF8FE000
1FFFF00FE000
3FFC000FE000
7FE0000FE000
7F80000FE000
FF00000FE000
FF00000FE000
FE00000FE000
FE00000FE000
FE00000FE000
FE00000FE000
FE00001FE000
FE00003FE000
FF00007FE000
FF0000FFE000
FFC003FFF000
7FF01FFFF800
3FFFFFF7FF80
3FFFFFC7FF80
1FFFFF87FF80
07FFFE03FF80
03FFF801FF80
007FC0007F00
ENDCHAR
STARTCHAR 00E1
ENCODING 225
SWIDTH 552 0
DWIDTH 46 0
BBX 41 64 4 -2
BITMAP
000007FC0000
00000FF80000
00000FF00000
00001FE00000
00003FC00000
00003F800000
00007F000000
0000FE000000
0000FC000000
0001F8000000
0001F0000000
0003E0000000
0007C0000000
000000000000
000000000000
000000000000
000000000000
0003FF800000
003FFFF00000
00FFFFFC0000
03FFFFFF0000
07FFFFFF8000
0FFFFFFFC000
1FFFDFFFC000
1FF8007FE000
3FE0003FE000
3FC0001FE000
3F80000FE000
3F80000FE000
3F80000FE000
7F80000FE000
0000000FE000
0000000FE000
0000000FE000
0000000FE000
0000003FE000
000003FFE000
0001FFFFE000
003FFFFFE000
01FFFFFFE000
07FFFFFFE000
0FFFFF8FE000
1FFFF00FE000
3FFC000FE000
7FE0000FE000
7F80000FE000
FF00000FE000
FF00000FE000
FE00000FE000
FE00000FE000
FE00000FE000
FE00000FE000
FE00001FE000
FE00003FE000
FF00007FE000
FF0000FFE000
FFC003FFF000
7FF01FFFF800
3FFFFFF7FF80
3FFFFFC7FF80
1FFFFF87FF80
07FFFE03FF80
03FFF801FF80
007FC0007F00
ENDCHAR
STARTCHAR 00E2
ENCODING 226
SWIDTH 552 0
DWIDTH 46 0
BBX 41 64 4 -2
BITMAP
0001FE000000
0003FF000000
0007FF000000
0007FF800000
000FFFC00000
000FCFC00000
001F8FE00000
003F87F00000
003F03F00000
007E01F80000
00FC00FC0000
00F8007C0000
01F0007E0000
000000000000
000000000000
000000000000
000000000000
0003FF800000
003FFFF00000
00FFFFFC0000
03FFFFFF0000
07FFFFFF8000
0FFFFFFFC000
1FFFDFFFC000
1FF8007FE000
3FE0003FE000
3FC0001FE000
3F80000FE000
3F80000FE000
3F80000FE000
7F80000FE000
0000000FE000
0000000FE000
0000000FE000
0000000FE000
0000003FE000
000003FFE000
0001FFFFE000
003FFFFFE000
01FFFFFFE000
07FFFFFFE000
0FFFFF8FE000
1FFFF00FE000
3FFC000FE000
7FE0000FE000
7F80000FE000
FF00000FE000
FF00000FE000
FE00000FE000
FE00000FE000
FE00000FE000
FE00000FE000
FE00001FE000
FE00003FE000
FF00007FE000
FF0000FFE000
FFC003FFF000
7FF01FFFF800
3FFFFFF7FF80
3FFFFFC7FF80
1FFFFF87FF80
07FFFE03FF80
03FFF801FF80
007FC0007F00
ENDCHAR
STARTCHAR 00E3
ENCODING 227
SWIDTH 552 0
DWIDTH 46 0
BBX 41 62 4 -2
BITMAP
001F001F0000
007FE01F0000
00FFFC3F0000
00FFFFFE0000
01FFFFFE0000
01FFFFFC0000
03F07FFC0000
03E00FF00000
03E001C00000
000000000000
000000000000
000000000000
000000000000
000000000000
000000000000
0003FF800000
003FFFF00000
00FFFFFC0000
03FFFFFF0000
07FFFFFF8000
0FFFFFFFC000
1FFFDFFFC000
1FF8007FE000
3FE0003FE000
3FC0001FE000
3F80000FE000
3F80000FE000
3F80000FE000
7F80000FE000
0000000FE000
0000000FE000
0000000FE000
0000000FE000
0000003FE000
000003FFE000
0001FFFFE000
003FFFFFE000
01FFFFFFE000
07FFFFFFE000
0FFFFF8FE000
1FFFF00FE000
3FFC000FE000
7FE0000FE000
7F80000FE000
FF00000FE000
FF00000FE000
FE00000FE000
FE00000FE000
FE00000FE000
FE00000FE000
FE00001FE000
FE00003FE000
FF00007FE000
FF0000FFE000
FFC003FFF000
7FF01FFFF800
3FFFFFF7FF80
3FFFFFC7FF80
1FFFFF87FF80
07FFFE03FF80
03FFF801FF80
007FC0007F00
ENDCHAR
STARTCHAR 00E4
ENCODING 228
SWIDTH 552 0
DWIDTH 46 0
BBX 41 62 4 -2
BITMAP
00FF07FC0000
00FF07FC0000
00FF07FC0000
00FF07FC0000
00FF07FC0000
00FF07FC0000
00FF07FC0000
00FF07FC0000
00FF07FC0000
000000000000
000000000000
000000000000
000000000000
000000000000
000000000000
0003FF800000
003FFFF00000
00FFFFFC0000
03FFFFFF0000
07FFFFFF8000
0FFFFFFFC000
1FFFDFFFC000
1FF8007FE000
3FE0003FE000
3FC0001FE000
3F80000FE000
3F80000FE000
3F80000FE000
7F80000FE000
0000000FE000
0000000FE000
0000000FE000
0000000FE000
0000003FE000
000003FFE000
0001FFFFE000
003FFFFFE000
01FFFFFFE000
07FFFFFFE000
0FFFFF8FE000
1FFFF00FE000
3FFC000FE000
7FE0000FE000
7F80000FE000
FF00000FE000
FF00000FE000
FE00000FE000
FE00000FE000
FE00000FE000
FE00000FE000
FE00001FE000
FE00003FE000
FF00007FE000
FF0000FFE000
FFC003FFF000
7FF01FFFF800
3FFFFFF7FF80
3FFFFFC7FF80
1FFFFF87FF80
07FFFE03FF80
03FFF801FF80
007FC0007F00
ENDCHAR
STARTCHAR 00E5
ENCODING 229
SWIDTH 552 0
DWIDTH 46 0
BBX 41 65 4 -2
BITMAP
0000FC000000
0001FE000000
0007FF000000
0007FF800000
000F87C00000
000F03C00000
000E03C00000
000E01C00000
000E03C00000
000F03C00000
000F87C00000
0007FF800000
0003FF000000
0001FE000000
000070000000
000000000000
000000000000
000000000000
0003FF800000
003FFFF00000
00FFFFFC0000
03FFFFFF0000
07FFFFFF8000
0FFFFFFFC000
1FFFDFFFC000
1FF8007FE000
3FE0003FE000
3FC0001FE000
3F80000FE000
3F80000FE000
3F80000FE000
7F80000FE000
0000000FE000
0000000FE000
0000000FE000
0000000FE000
0000003FE000
000003FFE000
0001FFFFE000
003FFFFFE000
01FFFFFFE000
07FFFFFFE000
0FFFFF8FE000
1FFFF00FE000
3FFC000FE000
7FE0000FE000
7F80000FE000
FF00000FE000
FF00000FE000
FE00000FE000
FE00000FE000
FE00000FE000
FE00000FE000
FE00001FE000
FE00003FE000
FF00007FE000
FF0000FFE000
FFC003FFF000
7FF01FFFF800
3FFFFFF7FF80
3FFFFFC7FF80
1FFFFF87FF80
07FFFE03FF80
03FFF801FF80
007FC0007F00
ENDCHAR
STARTCHAR 00E6
ENCODING 230
SWIDTH 888 0
DWIDTH 74 0
BBX 67 47 3 -2
BITMAP
0003FF00000FF80000
003FFFF000FFFF0000
00FFFFFC01FFFFC000
01FFFFFE07FFFFE000
07FFFFFF0FFFFFF800
0FFFFFFF9FFFFFFC00
0FFFCFFFBFFE7FFE00
1FF8007FFFE007FE00
1FE0001FFF8001FF00
3FC0000FFF0000FF80
3FC0000FFE00007F80
3F800007FC00003FC0
3F800007FC00003FC0
3F800007F800001FC0
00000007F800001FE0
00000007F000001FE0
00000007F000000FE0
0000000FF000000FE0
0000001FF000000FE0
0000007FE000000FE0
0000FFFFFFFFFFFFE0
001FFFFFFFFFFFFFE0
01FFFFFFFFFFFFFFE0
03FFFFFFFFFFFFFFE0
0FFFFFC7FFFFFFFFE0
1FFFF807FFFFFFFFE0
3FFE0007E000000000
3FF00007E000000000
7FC00007E000000000
7F800007F000000000
FF000007F000000000
FE000007F000000000
FE000007F000001FC0
FE00000FF800001FC0
FE00000FF800003FC0
FE00001FFC00003FC0
FF00003FFE00007F80
FF00007FFF0000FF80
FF8000FEFF8001FF00
7FC003FC7FE007FE00
7FF01FF87FFE3FFE00
3FFFFFF03FFFFFFC00
1FFFFFE01FFFFFF800
0FFFFF800FFFFFF000
07FFFF0003FFFFC000
01FFF80000FFFF0000
007FC000001FF80000
ENDCHAR
STARTCHAR 00E7
ENCODING 231
SWIDTH 504 0
DWIDTH 42 0
BBX 37 63 3 -18
BITMAP
0001FF0000
000FFFE000
003FFFF800
00FFFFFC00
01FFFFFF00
03FFFFFF80
07FFCFFF80
0FFC00FFC0
0FF0007FE0
1FE0003FE0
3FC0001FE0
3FC0000FF0
3F80000FF0
7F800007F0
7F000007F0
7F000007F0
FF00000000
FF00000000
FE00000000
FE00000000
FE00000000
FE00000000
FE00000000
FE00000000
FE00000000
FE00000000
FE00000000
FE00000000
FE00000000
FE00000000
FF000003F8
FF000003F8
7F000007F8
7F000007F0
7F800007F0
3F80000FF0
3FC0000FF0
3FE0001FE0
1FF0003FE0
0FF8007FC0
0FFF01FF80
07FFFFFF80
03FFFFFF00
01FFFFFE00
007FFFF800
003FFFF000
0007FF8000
0000E00000
0001E00000
0001C00000
0003FF0000
0003FF8000
0007FFC000
00001FE000
00000FE000
000007E000
000007E000
00800FE000
01E01FC000
01FE7FC000
01FFFF8000
007FFE0000
000FF80000
ENDCHAR
STARTCHAR 00E8
ENCODING 232
SWIDTH 552 0
DWIDTH 46 0
BBX 40 64 3 -2
BITMAP
007FC00000
003FE00000
001FF00000
000FF00000
0007F80000
0003F80000
0001FC0000
0000FE0000
00007E0000
00003F0000
00001F8000
00000F8000
000007C000
0000000000
0000000000
0000000000
0000000000
0000FF8000
0007FFF000
001FFFFC00
007FFFFF00
00FFFFFF80
01FFFFFFC0
03FFE7FFE0
07FE007FF0
0FF8001FF8
0FF0000FF8
1FE00007FC
1FE00003FC
3FC00003FC
3F800001FE
3F800001FE
7F800000FE
7F000000FE
7F000000FE
7F000000FE
7F000000FF
7FFFFFFFFF
FFFFFFFFFF
FFFFFFFFFF
FFFFFFFFFF
FFFFFFFFFF
FFFFFFFFFF
FF00000000
7F00000000
7F00000000
7F00000000
7F00000000
7F00000000
7F800000FE
3F800001FC
3FC00001FC
3FC00003FC
1FE00007F8
1FF00007F8
0FF8001FF0
07FE003FF0
07FFF3FFE0
03FFFFFFC0
01FFFFFF80
00FFFFFF00
003FFFFC00
000FFFF000
0001FF8000
ENDCHAR
STARTCHAR 00E9
ENCODING 233
SWIDTH 552 0
DWIDTH 46 0
BBX 40 64 3 -2
BITMAP
000003FF00
000003FE00
000007FC00
00000FF800
00000FF000
00001FE000
00001FC000
00003F8000
00007F0000
00007E0000
0000FC0000
0001F80000
0001F00000
0000000000
0000000000
0000000000
0000000000
0000FF8000
0007FFF000
001FFFFC00
007FFFFF00
00FFFFFF80
01FFFFFFC0
03FFE7FFE0
07FE007FF0
0FF8001FF8
0FF0000FF8
1FE00007FC
1FE00003FC
3FC00003FC
3F800001FE
3F800001FE
7F800000FE
7F000000FE
7F000000FE
7F000000FE
7F000000FF
7FFFFFFFFF
FFFFFFFFFF
FFFFFFFFFF
FFFFFFFFFF
FFFFFFFFFF
FFFFFFFFFF
FF00000000
7F00000000
7F00000000
7F00000000
7F00000000
7F00000000
7F800000FE
3F800001FC
3FC00001FC
3FC00003FC
1FE00007F8
1FF00007F8
0FF8001FF0
07FE003FF0
07FFF3FFE0
03FFFFFFC0
01FFFFFF80
00FFFFFF00
003FFFFC00
000FFFF000
0001FF8000
ENDCHAR
STARTCHAR 00EA
ENCODING 234
SWIDTH 552 0
DWIDTH 46 0
BBX 40 64 3 -2
BITMAP
00007F8000
0000FFC000
0001FFC000
0001FFE000
0003FFF000
0007F3F000
0007E3F800
000FC1FC00
000FC0FC00
001F807E00
003F003E00
003E001F00
007C001F80
0000000000
0000000000
0000000000
0000000000
0000FF8000
0007FFF000
001FFFFC00
007FFFFF00
00FFFFFF80
01FFFFFFC0
03FFE7FFE0
07FE007FF0
0FF8001FF8
0FF0000FF8
1FE00007FC
1FE00003FC
3FC00003FC
3F800001FE
3F800001FE
7F800000FE
7F000000FE
7F000000FE
7F000000FE
7F000000FF
7FFFFFFFFF
FFFFFFFFFF
FFFFFFFFFF
FFFFFFFFFF
FFFFFFFFFF
FFFFFFFFFF
FF00000000
7F00000000
7F00000000
7F00000000
7F00000000
7F00000000
7F800000FE
3F800001FC
3FC00001FC
3FC00003FC
1FE00007F8
1FF00007F8
0FF8001FF0
07FE003FF0
07FFF3FFE0
03FFFFFFC0
01FFFFFF80
00FFFFFF00
003FFFFC00
000FFFF000
0001FF8000
ENDCHAR
STARTCHAR 00EB
ENCODING 235
SWIDTH 552 0
DWIDTH 46 0
BBX 40 62 3 -2
BITMAP
003FC1FF00
003FC1FF00
003FC1FF00
003FC1FF00
003FC1FF00
003FC1FF00
003FC1FF00
003FC1FF00
003FC1FF00
0000000000
0000000000
0000000000
0000000000
0000000000
0000000000
0000FF8000
0007FFF000
001FFFFC00
007FFFFF00
00FFFFFF80
01FFFFFFC0
03FFE7FFE0
07FE007FF0
0FF8001FF8
0FF0000FF8
1FE00007FC
1FE00003FC
3FC00003FC
3F800001FE
3F800001FE
7F800000FE
7F000000FE
7F000000FE
7F000000FE
7F000000FF
7FFFFFFFFF
FFFFFFFFFF
FFFFFFFFFF
FFFFFFFFFF
FFFFFFFFFF
FFFFFFFFFF
FF00000000
7F00000000
7F00000000
7F00000000
7F00000000
7F00000000
7F800000FE
3F800001FC
3FC00001FC
3FC00003FC
1FE00007F8
1FF00007F8
0FF8001FF0
07FE003FF0
07FFF3FFE0
03FFFFFFC0
01FFFFFF80
00FFFFFF00
003FFFFC00
000FFFF000
0001FF8000
ENDCHAR
STARTCHAR 00EC
ENCODING 236
SWIDTH 276 0
DWIDTH 23 0
BBX 16 62 0 0
BITMAP
FF80
7FC0
3FE0
1FE0
0FF0
07F8
03F8
01FC
00FE
007E
003F
001F
0000
0000
0000
0000
0000
0000
00FE
00FE
00FE
00FE
00FE
00FE
00FE
00FE
00FE
00FE
00FE
00FE
00FE
00FE
00FE
00FE
00FE
00FE
00FE
00FE
00FE
00FE
00FE
00FE
00FE
00FE
00FE
00FE
00FE
00FE
00FE
00FE
00FE
00FE
00FE
00FE
00FE
00FE
00FE
00FE
00FE
00FE
00FE
00FE
ENDCHAR
STARTCHAR 00ED
ENCODING 237
SWIDTH 276 0
DWIDTH 23 0
BBX 16 62 6 0
BITMAP
01FF
03FE
03FC
07F8
0FF0
0FE0
1FC0
1F80
3F00
7E00
7C00
F800
0000
0000
0000
0000
0000
0000
3F80
3F80
3F80
3F80
3F80
3F80
3F80
3F80
3F80
3F80
3F80
3F80
3F80
3F80
3F80
3F80
3F80
3F80
3F80
3F80
3F80
3F80
3F80
3F80
3F80
3F80
3F80
3F80
3F80
3F80
3F80
3F80
3F80
3F80
3F80
3F80
3F80
3F80
3F80
3F80
3F80
3F80
3F80
3F80
ENDCHAR
STARTCHAR 00EE
ENCODING 238
SWIDTH 276 0
DWIDTH 23 0
BBX 23 62 0 0
BITMAP
01FF00
03FF00
03FF80
07FFC0
07FFC0
0FEFE0
1FC7F0
1F83F0
3F01F8
7E00F8
7C00FC
FC007E
000000
000000
000000
000000
000000
000000
00FE00
00FE00
00FE00
00FE00
00FE00
00FE00
00FE00
00FE00
00FE00
00FE00
00FE00
00FE00
00FE00
00FE00
00FE00
00FE00
00FE00
00FE00
00FE00
00FE00
00FE00
00FE00
00FE00
00FE00
00FE00
00FE00
00FE00
00FE00
00FE00
00FE00
00FE00
00FE00
00FE00
00FE00
00FE00
00FE00
00FE00
00FE00
00FE00
00FE00
00FE00
00FE00
00FE00
00FE00
ENDCHAR
STARTCHAR 00EF
ENCODING 239
SWIDTH 276 0
DWIDTH 23 0
BBX 22 59 0 0
BITMAP
FF83FC
FF83FC
FF83FC
FF83FC
FF83FC
FF83FC
FF83FC
FF83FC
FF83FC
000000
000000
000000
000000
000000
000000
00FE00
00FE00
00FE00
00FE00
00FE00
00FE00
00FE00
00FE00
00FE00
00FE00
00FE00
00FE00
00FE00
00FE00
00FE00
00FE00
00FE00
00FE00
00FE00
00FE00
00FE00
00FE00
00FE00
00FE00
00FE00
00FE00
00FE00
00FE00
00FE00
00FE00
00FE00
00FE00
00FE00
00FE00
00FE00
00FE00
00FE00
00FE00
00FE00
00FE00
00FE00
00FE00
00FE00
00FE00
ENDCHAR
STARTCHAR 00F0
ENCODING 240
SWIDTH 552 0
DWIDTH 46 0
BBX 39 64 3 -2
BITMAP
0080000000
01E0000000
03F801E000
07FE07F000
03FF1FF800
00FFFFE000
007FFF0000
001FFC0000
003FFC0000
00FFFE0000
03FFFF8000
0FFCFFC000
07E07FE000
03803FF000
00000FF800
000007FC00
000003FE00
0003FDFF00
001FFFFF00
007FFFFF80
00FFFFFFC0
01FFFFFFC0
03FFFFFFE0
07FF83FFE0
0FFC007FF0
1FF8001FF0
1FF0000FF8
3FE00007F8
3FC00007FC
3FC00003FC
7F800003FC
7F800001FE
7F000001FE
7F000001FE
FF000000FE
FF000000FE
FE000000FE
FE000000FE
FE000000FE
FE000000FE
FE000000FE
FE000000FE
FE000000FE
FE000000FE
FF000000FE
FF000000FE
FF000000FE
7F000001FE
7F000001FE
7F800001FC
7F800003FC
3FC00003FC
3FC00007FC
3FE00007F8
1FF0000FF8
1FF8001FF0
0FFE007FE0
07FFE7FFE0
03FFFFFFC0
01FFFFFF80
00FFFFFF00
007FFFFC00
001FFFF000
0001FF8000
ENDCHAR
STARTCHAR 00F1
ENCODING 241
SWIDTH 552 0
DWIDTH 46 0
BBX 35 60 6 0
BITMAP
007C007C00
01FF807C00
01FFF0FC00
03FFFFFC00
07FFFFF800
07FFFFF800
07C1FFF000
0F803FE000
0F80070000
0000000000
0000000000
0000000000
0000000000
0000000000
0000000000
0000FF8000
FC07FFF000
FC1FFFFC00
FC3FFFFE00
FC7FFFFF00
FCFFFFFF80
FCFF03FF80
FDF800FFC0
FFF0007FC0
FFE0003FC0
FFC0001FE0
FF80001FE0
FF80001FE0
FF00000FE0
FF00000FE0
FE00000FE0
FE00000FE0
FE00000FE0
FE00000FE0
FE00000FE0
FE00000FE0
FE00000FE0
FE00000FE0
FE00000FE0
FE00000FE0
FE00000FE0
FE00000FE0
FE00000FE0
FE00000FE0
FE00000FE0
FE00000FE0
FE00000FE0
FE00000FE0
FE00000FE0
FE00000FE0
FE00000FE0
FE00000FE0
FE00000FE0
FE00000FE0
FE00000FE0
FE00000FE0
FE00000FE0
FE00000FE0
FE00000FE0
FE00000FE0
ENDCHAR
STARTCHAR 00F2
ENCODING 242
SWIDTH 552 0
DWIDTH 46 0
BBX 39 64 3 -2
BITMAP
00FFC00000
007FC00000
003FE00000
001FF00000
000FF00000
0007F80000
0003FC0000
0001FC0000
0000FE0000
00007E0000
00003F0000
00001F8000
00000F8000
0000000000
0000000000
0000000000
0000000000
0001FF8000
000FFFF000
003FFFFC00
00FFFFFF00
01FFFFFF80
03FFFFFFC0
07FFEFFFE0
0FFE007FE0
0FF8003FF0
1FF0000FF8
1FE00007F8
3FC00007F8
3FC00003FC
7F800003FC
7F800001FC
7F000001FE
7F000001FE
FF000000FE
FF000000FE
FF000000FE
FE000000FE
FE000000FE
FE000000FE
FE000000FE
FE000000FE
FE000000FE
FE000000FE
FF000000FE
FF000000FE
FF000000FE
7F000001FE
7F000001FE
7F800001FC
7F800003FC
3FC00003FC
3FC00007F8
3FE00007F8
1FF0000FF8
0FF8001FF0
0FFE007FE0
07FFE7FFE0
03FFFFFFC0
01FFFFFF80
00FFFFFE00
003FFFFC00
000FFFF000
0001FF0000
ENDCHAR
STARTCHAR 00F3
ENCODING 243
SWIDTH 552 0
DWIDTH 46 0
BBX 39 64 3 -2
BITMAP
000003FE00
000007FC00
00000FF800
00000FF000
00001FE000
00003FC000
00003F8000
00007F0000
0000FE0000
0000FC0000
0001F80000
0003F00000
0003E00000
0000000000
0000000000
0000000000
0000000000
0001FF8000
000FFFF000
003FFFFC00
00FFFFFF00
01FFFFFF80
03FFFFFFC0
07FFEFFFE0
0FFE007FE0
0FF8003FF0
1FF0000FF8
1FE00007F8
3FC00007F8
3FC00003FC
7F800003FC
7F800001FC
7F000001FE
7F000001FE
FF000000FE
FF000000FE
FF000000FE
FE000000FE
FE000000FE
FE000000FE
FE000000FE
FE000000FE
FE000000FE
FE000000FE
FF000000FE
FF000000FE
FF000000FE
7F000001FE
7F000001FE
7F800001FC
7F800003FC
3FC00003FC
3FC00007F8
3FE00007F8
1FF0000FF8
0FF8001FF0
0FFE007FE0
07FFE7FFE0
03FFFFFFC0
01FFFFFF80
00FFFFFE00
003FFFFC00
000FFFF000
0001FF0000
ENDCHAR
STARTCHAR 00F4
ENCODING 244
SWIDTH 552 0
DWIDTH 46 0
BBX 39 64 3 -2
BITMAP
0000FF0000
0001FF8000
0003FF8000
0003FFC000
0007FFE000
000FE7E000
000FC7F000
001F83F000
003F81F800
003F00FC00
007E007C00
007C007E00
00F8003F00
0000000000
0000000000
0000000000
0000000000
0001FF8000
000FFFF000
003FFFFC00
00FFFFFF00
01FFFFFF80
03FFFFFFC0
07FFEFFFE0
0FFE007FE0
0FF8003FF0
1FF0000FF8
1FE00007F8
3FC00007F8
3FC00003FC
7F800003FC
7F800001FC
7F000001FE
7F000001FE
FF000000FE
FF000000FE
FF000000FE
FE000000FE
FE000000FE
FE000000FE
FE000000FE
FE000000FE
FE000000FE
FE000000FE
FF000000FE
FF000000FE
FF000000FE
7F000001FE
7F000001FE
7F800001FC
7F800003FC
3FC00003FC
3FC00007F8
3FE00007F8
1FF0000FF8
0FF8001FF0
0FFE007FE0
07FFE7FFE0
03FFFFFFC0
01FFFFFF80
00FFFFFE00
003FFFFC00
000FFFF000
0001FF0000
ENDCHAR
STARTCHAR 00F5
ENCODING 245
SWIDTH 552 0
DWIDTH 46 0
BBX 39 62 3 -2
BITMAP
000F800F80
003FF00F80
007FFE1F80
007FFFFF00
00FFFFFF00
00FFFFFE00
01F83FFE00
01F007FC00
01F000E000
0000000000
0000000000
0000000000
0000000000
0000000000
0000000000
0001FF8000
000FFFF000
003FFFFC00
00FFFFFF00
01FFFFFF80
03FFFFFFC0
07FFEFFFE0
0FFE007FE0
0FF8003FF0
1FF0000FF8
1FE00007F8
3FC00007F8
3FC00003FC
7F800003FC
7F800001FC
7F000001FE
7F000001FE
FF000000FE
FF000000FE
FF000000FE
FE000000FE
FE000000FE
FE000000FE
FE000000FE
FE000000FE
FE000000FE
FE000000FE
FF000000FE
FF000000FE
FF000000FE
7F000001FE
7F000001FE
7F800001FC
7F800003FC
3FC00003FC
3FC00007F8
3FE00007F8
1FF0000FF8
0FF8001FF0
0FFE007FE0
07FFE7FFE0
03FFFFFFC0
01FFFFFF80
00FFFFFE00
003FFFFC00
000FFFF000
0001FF0000
ENDCHAR
STARTCHAR 00F6
ENCODING 246
SWIDTH 552 0
DWIDTH 46 0
BBX 39 62 3 -2
BITMAP
007F83FE00
007F83FE00
007F83FE00
007F83FE00
007F83FE00
007F83FE00
007F83FE00
007F83FE00
007F83FE00
0000000000
0000000000
0000000000
0000000000
0000000000
0000000000
0001FF8000
000FFFF000
003FFFFC00
00FFFFFF00
01FFFFFF80
03FFFFFFC0
07FFEFFFE0
0FFE007FE0
0FF8003FF0
1FF0000FF8
1FE00007F8
3FC00007F8
3FC00003FC
7F800003FC
7F800001FC
7F000001FE
7F000001FE
FF000000FE
FF000000FE
FF000000FE
FE000000FE
FE000000FE
FE000000FE
FE000000FE
FE000000FE
FE000000FE
FE000000FE
FF000000FE
FF000000FE
FF000000FE
7F000001FE
7F000001FE
7F800001FC
7F800003FC
3FC00003FC
3FC00007F8
3FE00007F8
1FF0000FF8
0FF8001FF0
0FFE007FE0
07FFE7FFE0
03FFFFFFC0
01FFFFFF80
00FFFFFE00
003FFFFC00
000FFFF000
0001FF0000
ENDCHAR
STARTCHAR 00F7
ENCODING 247
SWIDTH 588 0
DWIDTH 49 0
BBX 40 39 4 0
BITMAP
0000FF8000
0000FF8000
0000FF8000
0000FF8000
0000FF8000
0000FF8000
0000FF8000
0000FF8000
0000FF8000
0000000000
0000000000
0000000000
0000000000
0000000000
0000000000
0000000000
FFFFFFFFFF
FFFFFFFFFF
FFFFFFFFFF
FFFFFFFFFF
FFFFFFFFFF
FFFFFFFFFF
0000000000
0000000000
0000000000
0000000000
0000000000
0000000000
0000000000
0000000000
0000FF8000
0000FF8000
0000FF8000
0000FF8000
0000FF8000
0000FF8000
0000FF8000
0000FF8000
0000FF8000
ENDCHAR
STARTCHAR 00F8
ENCODING 248
SWIDTH 612 0
DWIDTH 51 0
BBX 42 47 2 -3
BITMAP
0000FFC00100
0007FFF80380
001FFFFE07C0
007FFFFF0F80
00FFFFFFDF00
01FFFFFFFE00
03FFF7FFFC00
07FF003FFC00
07FC001FF800
0FF80007FC00
0FF00003FC00
1FE00007FC00
1FE0000FFE00
3FC0001FFE00
3FC0001EFF00
3F80003CFF00
3F80007CFF00
7F8000F87F00
7F8001F07F00
7F8003E07F00
7F0007C07F00
7F000F807F00
7F000F007F00
7F001E007F00
7F003E007F00
7F007C007F00
7F00F8007F00
7F81F0007F00
7F83E0007F00
7F87C0007F00
3F8F8000FF00
3F8F0000FF00
3FDE0000FE00
3FFE0001FE00
1FFC0001FE00
1FF80003FC00
0FF00003FC00
0FF80007F800
07FC000FF800
07FF003FF000
0FFFF3FFF000
1FFFFFFFE000
3EFFFFFFC000
7C7FFFFF0000
F81FFFFE0000
F007FFF80000
6000FFC00000
ENDCHAR
STARTCHAR 00F9
ENCODING 249
SWIDTH 552 0
DWIDTH 46 0
BBX 35 64 5 -2
BITMAP
03FF000000
01FF000000
00FF800000
007FC00000
003FC00000
001FE00000
000FE00000
0007F00000
0003F80000
0001F80000
0000FC0000
00007E0000
0000000000
0000000000
0000000000
0000000000
0000000000
0000000000
FE00000FE0
FE00000FE0
FE00000FE0
FE00000FE0
FE00000FE0
FE00000FE0
FE00000FE0
FE00000FE0
FE00000FE0
FE00000FE0
FE00000FE0
FE00000FE0
FE00000FE0
FE00000FE0
FE00000FE0
FE00000FE0
FE00000FE0
FE00000FE0
FE00000FE0
FE00000FE0
FE00000FE0
FE00000FE0
FE00000FE0
FE00000FE0
FE00000FE0
FE00000FE0
FE00000FE0
FE00000FE0
FE00000FE0
FE00000FE0
FE00000FE0
FE00001FE0
FE00001FE0
FF00001FE0
FF00003FE0
FF00007FE0
7F8000FFE0
7FC001FFE0
7FE003F7E0
3FF80FF7E0
3FFFFFE7E0
1FFFFFC7E0
0FFFFF87E0
07FFFE07E0
01FFFC0000
003FE00000
ENDCHAR
STARTCHAR 00FA
ENCODING 250
SWIDTH 552 0
DWIDTH 46 0
BBX 35 64 5 -2
BITMAP
00001FF800
00001FF000
00003FE000
00007FC000
00007F8000
0000FF0000
0001FE0000
0001FC0000
0003F80000
0003F00000
0007E00000
000FC00000
0000000000
0000000000
0000000000
0000000000
0000000000
0000000000
FE00000FE0
FE00000FE0
FE00000FE0
FE00000FE0
FE00000FE0
FE00000FE0
FE00000FE0
FE00000FE0
FE00000FE0
FE00000FE0
FE00000FE0
FE00000FE0
FE00000FE0
FE00000FE0
FE00000FE0
FE00000FE0
FE00000FE0
FE00000FE0
FE00000FE0
FE00000FE0
FE00000FE0
FE00000FE0
FE00000FE0
FE00000FE0
FE00000FE0
FE00000FE0
FE00000FE0
FE00000FE0
FE00000FE0
FE00000FE0
FE00000FE0
FE00001FE0
FE00001FE0
FF00001FE0
FF00003FE0
FF00007FE0
7F8000FFE0
7FC001FFE0
7FE003F7E0
3FF80FF7E0
3FFFFFE7E0
1FFFFFC7E0
0FFFFF87E0
07FFFE07E0
01FFFC0000
003FE00000
ENDCHAR
STARTCHAR 00FB
ENCODING 251
SWIDTH 552 0
DWIDTH 46 0
BBX 35 64 5 -2
BITMAP
0003FC0000
0007FE0000
000FFE0000
000FFF0000
001FFF8000
003F9F8000
003F1FC000
007E0FE000
00FE07E000
00FC03F000
01F801F800
01F000F800
03E0007C00
0000000000
0000000000
0000000000
0000000000
0000000000
FE00000FE0
FE00000FE0
FE00000FE0
FE00000FE0
FE00000FE0
FE00000FE0
FE00000FE0
FE00000FE0
FE00000FE0
FE00000FE0
FE00000FE0
FE00000FE0
FE00000FE0
FE00000FE0
FE00000FE0
FE00000FE0
FE00000FE0
FE00000FE0
FE00000FE0
FE00000FE0
FE00000FE0
FE00000FE0
FE00000FE0
FE00000FE0
FE00000FE0
FE00000FE0
FE00000FE0
FE00000FE0
FE00000FE0
FE00000FE0
FE00000FE0
FE00001FE0
FE00001FE0
FF00001FE0
FF00003FE0
FF00007FE0
7F8000FFE0
7FC001FFE0
7FE003F7E0
3FF80FF7E0
3FFFFFE7E0
1FFFFFC7E0
0FFFFF87E0
07FFFE07E0
01FFFC0000
003FE00000
ENDCHAR
STARTCHAR 00FC
ENCODING 252
SWIDTH 552 0
DWIDTH 46 0
BBX 35 62 5 -2
BITMAP
01FE0FF800
01FE0FF800
01FE0FF800
01FE0FF800
01FE0FF800
01FE0FF800
01FE0FF800
01FE0FF800
01FE0FF800
0000000000
0000000000
0000000000
0000000000
0000000000
0000000000
0000000000
FE00000FE0
FE00000FE0
FE00000FE0
FE00000FE0
FE00000FE0
FE00000FE0
FE00000FE0
FE00000FE0
FE00000FE0
FE00000FE0
FE00000FE0
FE00000FE0
FE00000FE0
FE00000FE0
FE00000FE0
FE00000FE0
FE00000FE0
FE00000FE0
FE00000FE0
FE00000FE0
FE00000FE0
FE00000FE0
FE00000FE0
FE00000FE0
FE00000FE0
FE00000FE0
FE00000FE0
FE00000FE0
FE00000FE0
FE00000FE0
FE00000FE0
FE00001FE0
FE00001FE0
FF00001FE0
FF00003FE0
FF00007FE0
7F8000FFE0
7FC001FFE0
7FE003F7E0
3FF80FF7E0
3FFFFFE7E0
1FFFFFC7E0
0FFFFF87E0
07FFFE07E0
01FFFC0000
003FE00000
ENDCHAR
STARTCHAR 00FD
ENCODING 253
SWIDTH 504 0
DWIDTH 42 0
BBX 38 80 2 -18
BITMAP
00000FF800
00000FF000
00001FE000
00003FC000
00003F8000
00007F0000
0000FE0000
0000FC0000
0001F80000
0003F00000
0003E00000
0007C00000
0000000000
0000000000
0000000000
0000000000
0000000000
0000000000
FE000003FC
FF000003F8
FF000007F8
7F000007F8
7F800007F0
7F80000FF0
3F80000FE0
3FC0000FE0
3FC0001FE0
1FC0001FC0
1FE0001FC0
0FE0003FC0
0FE0003F80
0FF0003F80
07F0007F80
07F0007F00
07F000FF00
03F800FE00
03F800FE00
03F801FE00
01FC01FC00
01FC01FC00
01FC03FC00
00FE03F800
00FE03F800
00FE07F000
007F07F000
007F07F000
007F0FE000
003F8FE000
003F8FE000
003F9FC000
001FDFC000
001FFFC000
001FFF8000
000FFF8000
000FFF0000
000FFF0000
0007FF0000
0007FE0000
0007FE0000
0003FE0000
0003FC0000
0003FC0000
0003FC0000
0003F80000
0007F80000
0007F00000
0007F00000
000FF00000
000FE00000
000FE00000
001FE00000
003FC00000
007FC00000
3FFF800000
3FFF800000
3FFF000000
3FFE000000
3FFC000000
3FF8000000
0FC0000000
ENDCHAR
STARTCHAR 00FE
ENCODING 254
SWIDTH 552 0
DWIDTH 46 0
BBX 39 78 4 -18
BITMAP
FE00000000
FE00000000
FE00000000
FE00000000
FE00000000
FE00000000
FE00000000
FE00000000
FE00000000
FE00000000
FE00000000
FE00000000
FE00000000
FE00000000
FE00000000
FE007F8000
FE03FFF000
FE0FFFFC00
FE3FFFFF00
FE7FFFFF80
FEFFFFFFC0
FEFFFFFFC0
FFFE00FFE0
FFF8003FF0
FFF0001FF0
FFE0000FF8
FFC00007F8
FFC00003FC
FF800003FC
FF800001FC
FF800001FE
FF000001FE
FF000000FE
FF000000FE
FF000000FE
FF000000FE
FE000000FE
FE000000FE
FE000000FE
FE000000FE
FF000000FE
FF000000FE
FF000000FE
FF000000FE
FF000000FE
FF000001FE
FF800001FE
FF800001FC
FF800003FC
FFC00003FC
FFE00007F8
FFE0000FF8
FFF0001FF0
FFF8003FF0
FFFE00FFE0
FFFFEFFFE0
FEFFFFFFC0
FE7FFFFF80
FE3FFFFF00
FE0FFFFC00
FE07FFF000
FE00FF8000
FE00000000
FE00000000
FE00000000
FE00000000
FE00000000
FE00000000
FE00000000
FE00000000
FE00000000
FE00000000
FE00000000
FE00000000
FE00000000
FE00000000
FE00000000
FE00000000
ENDCHAR
STARTCHAR 00FF
ENCODING 255
SWIDTH 504 0
DWIDTH 42 0
BBX 38 78 2 -18
BITMAP
01FF07FC00
01FF07FC00
01FF07FC00
01FF07FC00
01FF07FC00
01FF07FC00
01FF07FC00
01FF07FC00
01FF07FC00
0000000000
0000000000
0000000000
0000000000
0000000000
0000000000
0000000000
FE000003FC
FF000003F8
FF000007F8
7F000007F8
7F800007F0
7F80000FF0
3F80000FE0
3FC0000FE0
3FC0001FE0
1FC0001FC0
1FE0001FC0
0FE0003FC0
0FE0003F80
0FF0003F80
07F0007F80
07F0007F00
07F000FF00
03F800FE00
03F800FE00
03F801FE00
01FC01FC00
01FC01FC00
01FC03FC00
00FE03F800
00FE03F800
00FE07F000
007F07F000
007F07F000
007F0FE000
003F8FE000
003F8FE000
003F9FC000
001FDFC000
001FFFC000
001FFF8000
000FFF8000
000FFF0000
000FFF0000
0007FF0000
0007FE0000
0007FE0000
0003FE0000
0003FC0000
0003FC0000
0003FC0000
0003F80000
0007F80000
0007F00000
0007F00000
000FF00000
000FE00000
000FE00000
001FE00000
003FC00000
007FC00000
3FFF800000
3FFF800000
3FFF000000
3FFE000000
3FFC000000
3FF8000000
0FC0000000
ENDCHAR
STARTCHAR 0100
ENCODING 256
SWIDTH 672 0
DWIDTH 56 0
BBX 52 75 2 0
BITMAP
0003FFFFF80000
0003FFFFF80000
0003FFFFF80000
0003FFFFF80000
0003FFFFF80000
0003FFFFF80000
00000000000000
00000000000000
00000000000000
00000000000000
00000000000000
00000000000000
00000000000000
00000000000000
000007FE000000
000007FF000000
00000FFF000000
00000FFF000000
00001FFF800000
00001FFF800000
00001FFF800000
00003FFFC00000
00003FFFC00000
00003FFFC00000
00007F9FE00000
00007F9FE00000
00007F1FE00000
0000FF0FF00000
0000FF0FF00000
0000FE0FF80000
0001FE07F80000
0001FE07F80000
0001FC07FC0000
0003FC03FC0000
0003FC03FC0000
0007F803FE0000
0007F801FE0000
0007F801FE0000
000FF001FF0000
000FF000FF0000
000FE000FF0000
001FE000FF8000
001FE0007F8000
001FC0007F8000
003FC0007FC000
003FC0003FC000
003F80003FC000
007F80003FE000
007F80001FE000
00FF00001FF000
00FFFFFFFFF000
00FFFFFFFFF000
01FFFFFFFFF800
01FFFFFFFFF800
01FFFFFFFFF800
03FFFFFFFFFC00
03FC000007FC00
03FC000003FC00
07F8000003FE00
07F8000003FE00
07F8000001FE00
0FF0000001FF00
0FF0000001FF00
1FF0000000FF00
1FE0000000FF80
1FE00000007F80
3FE00000007F80
3FC00000007FC0
3FC00000003FC0
7FC00000003FE0
7F800000003FE0
7F800000001FE0
FF800000001FF0
FF000000001FF0
FF000000000FF0
ENDCHAR
STARTCHAR 0101
ENCODING 257
SWIDTH 552 0
DWIDTH 46 0
BBX 41 61 4 -2
BITMAP
01FFFFFC0000
01FFFFFC0000
01FFFFFC0000
01FFFFFC0000
01FFFFFC0000
01FFFFFC0000
000000000000
000000000000
000000000000
000000000000
000000000000
000000000000
000000000000
000000000000
0003FF800000
003FFFF00000
00FFFFFC0000
03FFFFFF0000
07FFFFFF8000
0FFFFFFFC000
1FFFDFFFC000
1FF8007FE000
3FE0003FE000
3FC0001FE000
3F80000FE000
3F80000FE000
3F80000FE000
7F80000FE000
0000000FE000
0000000FE000
0000000FE000
0000000FE000
0000003FE000
000003FFE000
0001FFFFE000
003FFFFFE000
01FFFFFFE000
07FFFFFFE000
0FFFFF8FE000
1FFFF00FE000
3FFC000FE000
7FE0000FE000
7F80000FE000
FF00000FE000
FF00000FE000
FE00000FE000
FE00000FE000
FE00000FE000
FE00000FE000
FE00001FE000
FE00003FE000
FF00007FE000
FF0000FFE000
FFC003FFF000
7FF01FFFF800
3FFFFFF7FF80
3FFFFFC7FF80
1FFFFF87FF80
07FFFE03FF80
03FFF801FF80
007FC0007F00
ENDCHAR
STARTCHAR 0102
ENCODING 258
SWIDTH 672 0
DWIDTH 56 0
BBX 52 77 2 0
BITMAP
0007C0007C0000
0003E0007C0000
0003E000FC0000
0003F001FC0000
0003FC07F80000
0001FFFFF80000
0000FFFFF00000
0000FFFFE00000
00003FFFC00000
00001FFF000000
000001F8000000
00000000000000
00000000000000
00000000000000
00000000000000
00000000000000
000007FE000000
000007FF000000
00000FFF000000
00000FFF000000
00001FFF800000
00001FFF800000
00001FFF800000
00003FFFC00000
00003FFFC00000
00003FFFC00000
00007F9FE00000
00007F9FE00000
00007F1FE00000
0000FF0FF00000
0000FF0FF00000
0000FE0FF80000
0001FE07F80000
0001FE07F80000
0001FC07FC0000
0003FC03FC0000
0003FC03FC0000
0007F803FE0000
0007F801FE0000
0007F801FE0000
000FF001FF0000
000FF000FF0000
000FE000FF0000
001FE000FF8000
001FE0007F8000
001FC0007F8000
003FC0007FC000
003FC0003FC000
003F80003FC000
007F80003FE000
007F80001FE000
00FF00001FF000
00FFFFFFFFF000
00FFFFFFFFF000
01FFFFFFFFF800
01FFFFFFFFF800
01FFFFFFFFF800
03FFFFFFFFFC00
03FC000007FC00
03FC000003FC00
07F8000003FE00
07F8000003FE00
07F8000001FE00
0FF0000001FF00
0FF0000001FF00
1FF0000000FF00
1FE0000000FF80
1FE00000007F80
3FE00000007F80
3FC00000007FC0
3FC00000003FC0
7FC00000003FE0
7F800000003FE0
7F800000001FE0
FF800000001FF0
FF000000001FF0
FF000000000FF0
ENDCHAR
STARTCHAR 0103
ENCODING 259
SWIDTH 552 0
DWIDTH 46 0
BBX 41 63 4 -2
BITMAP
03E0001E0000
01F0003E0000
01F0003E0000
01F8007E0000
01FE01FC0000
00FFFFFC0000
00FFFFF80000
007FFFF80000
003FFFE00000
000FFFC00000
0001FE000000
000000000000
000000000000
000000000000
000000000000
000000000000
0003FF800000
003FFFF00000
00FFFFFC0000
03FFFFFF0000
07FFFFFF8000
0FFFFFFFC000
1FFFDFFFC000
1FF8007FE000
3FE0003FE000
3FC0001FE000
3F80000FE000
3F80000FE000
3F80000FE000
7F80000FE000
0000000FE000
0000000FE000
0000000FE000
0000000FE000
0000003FE000
000003FFE000
0001FFFFE000
003FFFFFE000
01FFFFFFE000
07FFFFFFE000
0FFFFF8FE000
1FFFF00FE000
3FFC000FE000
7FE0000FE000
7F80000FE000
FF00000FE000
FF00000FE000
FE00000FE000
FE00000FE000
FE00000FE000
FE00000FE000
FE00001FE000
FE00003FE000
FF00007FE000
FF0000FFE000
FFC003FFF000
7FF01FFFF800
3FFFFFF7FF80
3FFFFFC7FF80
1FFFFF87FF80
07FFFE03FF80
03FFF801FF80
007FC0007F00
ENDCHAR
STARTCHAR 0104
ENCODING 260
SWIDTH 672 0
DWIDTH 56 0
BBX 56 78 2 -17
BITMAP
000007FE000000
000007FF000000
00000FFF000000
00000FFF000000
00001FFF800000
00001FFF800000
00001FFF800000
00003FFFC00000
00003FFFC00000
00003FFFC00000
00007F9FE00000
00007F9FE00000
00007F1FE00000
0000FF0FF00000
0000FF0FF00000
0000FE0FF80000
0001FE07F80000
0001FE07F80000
0001FC07FC0000
0003FC03FC0000
0003FC03FC0000
0007F803FE0000
0007F801FE0000
0007F801FE0000
000FF001FF0000
000FF000FF0000
000FE000FF0000
001FE000FF8000
001FE0007F8000
001FC0007F8000
003FC0007FC000
003FC0003FC000
003F80003FC000
007F80003FE000
007F80001FE000
00FF00001FF000
00FFFFFFFFF000
00FFFFFFFFF000
01FFFFFFFFF800
01FFFFFFFFF800
01FFFFFFFFF800
03FFFFFFFFFC00
03FC000007FC00
03FC000003FC00
07F8000003FE00
07F8000003FE00
07F8000001FE00
0FF0000001FF00
0FF0000001FF00
1FF0000000FF00
1FE0000000FF80
1FE00000007F80
3FE00000007F80
3FC00000007FC0
3FC00000003FC0
7FC00000003FE0
7F800000003FE0
7F800000001FE0
FF800000001FF0
FF000000001FF0
FF000000000FF0
000000000003E0
00000000000FC0
00000000003F00
00000000007E00
0000000000FC00
0000000001F800
0000000001F800
0000000001F800
0000000003F000
0000000003F800
0000000003F800
0000000001F800
0000000001FE01
0000000000FFFF
00000000007FFF
00000000001FFF
000000000007FC
ENDCHAR
STARTCHAR 0105
ENCODING 261
SWIDTH 552 0
DWIDTH 46 0
BBX 46 62 4 -17
BITMAP
0003FF800000
003FFFF80000
00FFFFFE0000
03FFFFFF0000
07FFFFFF8000
0FFFFFFFC000
0FFFDFFFC000
1FF8007FE000
1FE0003FE000
3FC0001FE000
3FC0000FE000
3F80000FE000
3F80000FE000
3F80000FE000
0000000FE000
0000000FE000
0000000FE000
0000000FE000
0000003FE000
000003FFE000
0001FFFFE000
003FFFFFE000
01FFFFFFE000
07FFFFFFE000
0FFFFF8FE000
1FFFF00FE000
3FFC000FE000
7FE0000FE000
7F80000FE000
FF00000FE000
FF00000FE000
FE00000FE000
FE00000FE000
FE00000FE000
FE00000FE000
FE00001FE000
FE00003FE000
FF00007FE000
FF0000FFE000
7FC003FFF000
7FF01FFFF800
3FFFFFF7FF80
3FFFFFE7FF80
1FFFFF87FF80
07FFFF03FF80
03FFFC01FF80
007FC000FF00
000000007C00
00000000F800
00000003F000
00000003E000
00000007E000
00000007C000
0000000FC000
0000000FC000
0000000FE000
00000007E000
00000007F804
00000003FFFC
00000001FFFC
00000000FFFC
000000000FF0
ENDCHAR
STARTCHAR 0106
ENCODING 262
SWIDTH 720 0
DWIDTH 60 0
BBX 52 80 4 -2
BITMAP
00000007FE0000
00000007F80000
0000000FF00000
0000001FE00000
0000001FC00000
0000003F800000
0000007F000000
0000007E000000
000000FC000000
000001F8000000
000001F0000000
000003E0000000
00000000000000
00000000000000
00000000000000
00000000000000
000003FFC00000
00003FFFFC0000
0000FFFFFF0000
0003FFFFFFC000
000FFFFFFFE000
001FFFFFFFF000
003FFFFFFFF800
007FFC00FFFC00
00FFE0001FFE00
01FF800007FF00
03FF000001FF00
03FE000000FF80
07FC000000FF80
0FF80000007F80
0FF00000003FC0
1FF00000003FC0
1FE00000003FC0
1FE00000001FE0
3FC00000001FE0
3FC00000001FE0
3F800000000000
7F800000000000
7F800000000000
7F800000000000
7F000000000000
7F000000000000
FF000000000000
FF000000000000
FF000000000000
FF000000000000
FF000000000000
FF000000000000
FF000000000000
FF000000000000
FF000000000000
FF000000000000
FF000000000000
FF000000000000
FF000000000000
7F000000000000
7F800000000FF0
7F800000000FF0
7F800000000FF0
7F800000000FF0
3FC00000000FF0
3FC00000001FE0
3FE00000001FE0
1FE00000003FE0
1FF00000003FE0
0FF00000003FC0
0FF80000007FC0
07FC000000FF80
07FE000001FF80
03FF000003FF00
01FFC00007FF00
01FFF0001FFE00
00FFFC007FFC00
007FFFFFFFF800
003FFFFFFFF000
000FFFFFFFE000
0007FFFFFFC000
0001FFFFFF0000
00007FFFF80000
000007FF800000
ENDCHAR
STARTCHAR 0107
ENCODING 263
SWIDTH 504 0
DWIDTH 42 0
BBX 37 64 3 -2
BITMAP
000003FE00
000007FC00
00000FF800
00000FF000
00001FE000
00003FC000
00003F8000
00007F0000
0000FE0000
0000FC0000
0001F80000
0003F00000
0003E00000
0000000000
0000000000
0000000000
0000000000
0001FF0000
000FFFE000
003FFFF800
00FFFFFC00
01FFFFFF00
03FFFFFF80
07FFCFFF80
0FFC00FFC0
1FF0007FE0
1FE0001FE0
3FC0001FE0
3FC0000FF0
3F80000FF0
7F800007F0
7F000007F0
7F000007F0
FF00000000
FE00000000
FE00000000
FE00000000
FE00000000
FE00000000
FE00000000
FE00000000
FE00000000
FE00000000
FE00000000
FE00000000
FE00000000
FE00000000
FF000003F8
FF000007F8
7F000007F0
7F800007F0
7F800007F0
3FC0000FF0
3FC0001FE0
1FE0001FE0
1FF0003FC0
0FFC00FFC0
07FFCFFF80
07FFFFFF00
03FFFFFE00
00FFFFFC00
007FFFF800
001FFFE000
0003FF0000
ENDCHAR
STARTCHAR 0108
ENCODING 264
SWIDTH 720 0
DWIDTH 60 0
BBX 52 81 4 -2
BITMAP
000001FE000000
000003FF000000
000003FF000000
000007FF800000
000007FFC00000
00000FEFC00000
00001FCFE00000
00001F87F00000
00003F03F00000
00007E01F80000
00007C00FC0000
0000FC007C0000
0001F8007E0000
00000000000000
00000000000000
00000000000000
00000000000000
000003FFC00000
00003FFFFC0000
0000FFFFFF0000
0003FFFFFFC000
000FFFFFFFE000
001FFFFFFFF000
003FFFFFFFF800
007FFC00FFFC00
00FFE0001FFE00
01FF800007FF00
03FF000001FF00
03FE000000FF80
07FC000000FF80
0FF80000007F80
0FF00000003FC0
1FF00000003FC0
1FE00000003FC0
1FE00000001FE0
3FC00000001FE0
3FC00000001FE0
3F800000000000
7F800000000000
7F800000000000
7F800000000000
7F000000000000
7F000000000000
FF000000000000
FF000000000000
FF000000000000
FF000000000000
FF000000000000
FF000000000000
FF000000000000
FF000000000000
FF000000000000
FF000000000000
FF000000000000
FF000000000000
FF000000000000
7F000000000000
7F800000000FF0
7F800000000FF0
7F800000000FF0
7F800000000FF0
3FC00000000FF0
3FC00000001FE0
3FE00000001FE0
1FE00000003FE0
1FF00000003FE0
0FF00000003FC0
0FF80000007FC0
07FC000000FF80
07FE000001FF80
03FF000003FF00
01FFC00007FF00
01FFF0001FFE00
00FFFC007FFC00
007FFFFFFFF800
003FFFFFFFF000
000FFFFFFFE000
0007FFFFFFC000
0001FFFFFF0000
00007FFFF80000
000007FF800000
ENDCHAR
STARTCHAR 0109
ENCODING 265
SWIDTH 504 0
DWIDTH 42 0
BBX 37 64 3 -2
BITMAP
0001FE0000
0003FF0000
0003FF8000
0007FF8000
000FFFC000
000FCFE000
001FC7E000
001F83F000
003F03F800
007E01F800
007C00FC00
00FC007E00
01F8003E00
0000000000
0000000000
0000000000
0000000000
0001FF0000
000FFFE000
003FFFF800
00FFFFFC00
01FFFFFF00
03FFFFFF80
07FFCFFF80
0FFC00FFC0
1FF0007FE0
1FE0001FE0
3FC0001FE0
3FC0000FF0
3F80000FF0
7F800007F0
7F000007F0
7F000007F0
FF00000000
FE00000000
FE00000000
FE00000000
FE00000000
FE00000000
FE00000000
FE00000000
FE00000000
FE00000000
FE00000000
FE00000000
FE00000000
FE00000000
FF000003F8
FF000007F8
7F000007F0
7F800007F0
7F800007F0
3FC0000FF0
3FC0001FE0
1FE0001FE0
1FF0003FC0
0FFC00FFC0
07FFCFFF80
07FFFFFF00
03FFFFFE00
00FFFFFC00
007FFFF800
001FFFE000
0003FF0000
ENDCHAR
STARTCHAR 010A
ENCODING 266
SWIDTH 720 0
DWIDTH 60 0
BBX 52 79 4 -2
BITMAP
000001FF000000
000001FF000000
000001FF000000
000001FF000000
000001FF000000
000001FF000000
000001FF000000
000001FF000000
000001FF000000
00000000000000
00000000000000
00000000000000
00000000000000
00000000000000
00000000000000
000003FFC00000
00003FFFFC0000
0000FFFFFF0000
0003FFFFFFC000
000FFFFFFFE000
001FFFFFFFF000
003FFFFFFFF800
007FFC00FFFC00
00FFE0001FFE00
01FF800007FF00
03FF000001FF00
03FE000000FF80
07FC000000FF80
0FF80000007F80
0FF00000003FC0
1FF00000003FC0
1FE00000003FC0
1FE00000001FE0
3FC00000001FE0
3FC00000001FE0
3F800000000000
7F800000000000
7F800000000000
7F800000000000
7F000000000000
7F000000000000
FF000000000000
FF000000000000
FF000000000000
FF000000000000
FF000000000000
FF000000000000
FF000000000000
FF000000000000
FF000000000000
FF000000000000
FF000000000000
FF000000000000
FF000000000000
7F000000000000
7F800000000FF0
7F800000000FF0
7F800000000FF0
7F800000000FF0
3FC00000000FF0
3FC00000001FE0
3FE00000001FE0
1FE00000003FE0
1FF00000003FE0
0FF00000003FC0
0FF80000007FC0
07FC000000FF80
07FE000001FF80
03FF000003FF00
01FFC00007FF00
01FFF0001FFE00
00FFFC007FFC00
007FFFFFFFF800
003FFFFFFFF000
000FFFFFFFE000
0007FFFFFFC000
0001FFFFFF0000
00007FFFF80000
000007FF800000
ENDCHAR
STARTCHAR 010B
ENCODING 267
SWIDTH 504 0
DWIDTH 42 0
BBX 37 62 3 -2
BITMAP
0001FE0000
0001FE0000
0001FE0000
0001FE0000
0001FE0000
0001FE0000
0001FE0000
0001FE0000
0001FE0000
0000000000
0000000000
0000000000
0000000000
0000000000
0000000000
0001FF0000
000FFFE000
003FFFF800
00FFFFFC00
01FFFFFF00
03FFFFFF80
07FFCFFF80
0FFC00FFC0
1FF0007FE0
1FE0001FE0
3FC0001FE0
3FC0000FF0
3F80000FF0
7F800007F0
7F000007F0
7F000007F0
FF00000000
FE00000000
FE00000000
FE00000000
FE00000000
FE00000000
FE00000000
FE00000000
FE00000000
FE00000000
FE00000000
FE00000000
FE00000000
FE00000000
FF000003F8
FF000007F8
7F000007F0
7F800007F0
7F800007F0
3FC0000FF0
3FC0001FE0
1FE0001FE0
1FF0003FC0
0FFC00FFC0
07FFCFFF80
07FFFFFF00
03FFFFFE00
00FFFFFC00
007FFFF800
001FFFE000
0003FF0000
ENDCHAR
STARTCHAR 010C
ENCODING 268
SWIDTH 720 0
DWIDTH 60 0
BBX 52 81 4 -2
BITMAP
0000F8003F0000
0000FC007E0000
00007E007C0000
00003F00FC0000
00003F01F80000
00001F83F00000
00000FC7F00000
00000FEFE00000
000007FFC00000
000003FFC00000
000003FF800000
000001FF800000
000000FF000000
00000000000000
00000000000000
00000000000000
00000000000000
000003FFC00000
00003FFFFC0000
0000FFFFFF0000
0003FFFFFFC000
000FFFFFFFE000
001FFFFFFFF000
003FFFFFFFF800
007FFC00FFFC00
00FFE0001FFE00
01FF800007FF00
03FF000001FF00
03FE000000FF80
07FC000000FF80
0FF80000007F80
0FF00000003FC0
1FF00000003FC0
1FE00000003FC0
1FE00000001FE0
3FC00000001FE0
3FC00000001FE0
3F800000000000
7F800000000000
7F800000000000
7F800000000000
7F000000000000
7F000000000000
FF000000000000
FF000000000000
FF000000000000
FF000000000000
FF000000000000
FF000000000000
FF000000000000
FF000000000000
FF000000000000
FF000000000000
FF000000000000
FF000000000000
FF000000000000
7F000000000000
7F800000000FF0
7F800000000FF0
7F800000000FF0
7F800000000FF0
3FC00000000FF0
3FC00000001FE0
3FE00000001FE0
1FE00000003FE0
1FF00000003FE0
0FF00000003FC0
0FF80000007FC0
07FC000000FF80
07FE000001FF80
03FF000003FF00
01FFC00007FF00
01FFF0001FFE00
00FFFC007FFC00
007FFFFFFFF800
003FFFFFFFF000
000FFFFFFFE000
0007FFFFFFC000
0001FFFFFF0000
00007FFFF80000
000007FF800000
ENDCHAR
STARTCHAR 010D
ENCODING 269
SWIDTH 504 0
DWIDTH 42 0
BBX 37 64 3 -2
BITMAP
01F8007E00
00FC007C00
007E00F800
007E01F800
003F03F000
001F87F000
001FCFE000
000FEFC000
0007FFC000
0007FF8000
0003FF0000
0003FF0000
0001FE0000
0000000000
0000000000
0000000000
0000000000
0001FF0000
000FFFE000
003FFFF800
00FFFFFC00
01FFFFFF00
03FFFFFF80
07FFCFFF80
0FFC00FFC0
1FF0007FE0
1FE0001FE0
3FC0001FE0
3FC0000FF0
3F80000FF0
7F800007F0
7F000007F0
7F000007F0
FF00000000
FE00000000
FE00000000
FE00000000
FE00000000
FE00000000
FE00000000
FE00000000
FE00000000
FE00000000
FE00000000
FE00000000
FE00000000
FE00000000
FF000003F8
FF000007F8
7F000007F0
7F800007F0
7F800007F0
3FC0000FF0
3FC0001FE0
1FE0001FE0
1FF0003FC0
0FFC00FFC0
07FFCFFF80
07FFFFFF00
03FFFFFE00
00FFFFFC00
007FFFF800
001FFFE000
0003FF0000
ENDCHAR
STARTCHAR 010E
ENCODING 270
SWIDTH 720 0
DWIDTH 60 0
BBX 49 79 7 0
BITMAP
007E000F800000
003E001F000000
001F003F000000
001F807E000000
000FC0FE000000
000FE0FC000000
0007F1F8000000
0003F3F8000000
0003FFF0000000
0001FFE0000000
0000FFE0000000
0000FFC0000000
00007F80000000
00000000000000
00000000000000
00000000000000
00000000000000
00000000000000
FFFFFFF8000000
FFFFFFFF800000
FFFFFFFFE00000
FFFFFFFFF80000
FFFFFFFFFC0000
FFFFFFFFFF0000
FFFFFFFFFF8000
FF00000FFFC000
FF000001FFC000
FF000000FFE000
FF0000003FF000
FF0000001FF000
FF0000000FF800
FF00000007F800
FF00000007FC00
FF00000003FC00
FF00000003FE00
FF00000001FE00
FF00000001FE00
FF00000001FE00
FF00000000FF00
FF00000000FF00
FF00000000FF00
FF00000000FF00
FF00000000FF00
FF000000007F00
FF000000007F00
FF000000007F80
FF000000007F80
FF000000007F80
FF000000007F80
FF000000007F80
FF000000007F80
FF000000007F80
FF000000007F00
FF000000007F00
FF000000007F00
FF00000000FF00
FF00000000FF00
FF00000000FF00
FF00000000FF00
FF00000001FE00
FF00000001FE00
FF00000001FE00
FF00000003FC00
FF00000003FC00
FF00000007FC00
FF00000007F800
FF0000000FF800
FF0000001FF000
FF0000003FF000
FF0000007FE000
FF000001FFC000
FF00000FFF8000
FFFFFFFFFF0000
FFFFFFFFFE0000
FFFFFFFFFC0000
FFFFFFFFF80000
FFFFFFFFE00000
FFFFFFFF800000
FFFFFFF8000000
ENDCHAR
STARTCHAR 010F
ENCODING 271
SWIDTH 648 0
DWIDTH 54 0
BBX 52 63 2 -2
BITMAP
00000000FE0FF0
00000000FE0FF0
00000000FE0FF0
00000000FE0FF0
00000000FE0FF0
00000000FE0FF0
00000000FE0FF0
00000000FE0FF0
00000000FE00F0
00000000FE00F0
00000000FE00F0
00000000FE00F0
00000000FE00F0
00000000FE01E0
00000000FE01E0
00000000FE0FC0
0001FE00FE0F80
000FFFC0FE0F00
003FFFF0FE0C00
00FFFFFCFE0000
01FFFFFEFE0000
03FFFFFEFE0000
07FFFFFFFE0000
0FFE007FFE0000
0FFC003FFE0000
1FF0000FFE0000
1FE00007FE0000
3FE00007FE0000
3FC00003FE0000
3F800003FE0000
7F800001FE0000
7F800001FE0000
7F000001FE0000
7F000000FE0000
7F000000FE0000
FF000000FE0000
FF000000FE0000
FE000000FE0000
FE000000FE0000
FE000000FE0000
FE000000FE0000
FF000000FE0000
FF000000FE0000
FF000000FE0000
7F000000FE0000
7F000000FE0000
7F000001FE0000
7F800001FE0000
7F800001FE0000
3FC00003FE0000
3FC00003FE0000
3FE00007FE0000
1FF00007FE0000
1FF0000FFE0000
0FFC001FFE0000
0FFF007FFE0000
07FFFFFF7E0000
03FFFFFE7E0000
01FFFFFC7E0000
00FFFFF87E0000
003FFFF07E0000
000FFFC0000000
0001FF00000000
ENDCHAR
STARTCHAR 0110
ENCODING 272
SWIDTH 720 0
DWIDTH 60 0
BBX 54 61 2 0
BITMAP
07FFFFFFC00000
07FFFFFFFC0000
07FFFFFFFF0000
07FFFFFFFFC000
07FFFFFFFFE000
07FFFFFFFFF800
07FFFFFFFFFC00
07F800007FFE00
07F800000FFE00
07F8000007FF00
07F8000001FF80
07F8000000FF80
07F80000007FC0
07F80000003FC0
07F80000003FE0
07F80000001FE0
07F80000001FF0
07F80000000FF0
07F80000000FF0
07F800000007F0
07F800000007F8
07F800000007F8
07F800000007F8
07F800000007F8
07F800000003F8
07F800000003F8
07F800000003F8
FFFFFFE00003FC
FFFFFFE00003FC
FFFFFFE00003FC
FFFFFFE00003FC
FFFFFFE00003FC
FFFFFFE00003FC
07F800000003FC
07F800000003F8
07F800000003F8
07F800000003F8
07F800000007F8
07F800000007F8
07F800000007F8
07F800000007F8
07F80000000FF0
07F80000000FF0
07F80000000FF0
07F80000001FE0
07F80000001FE0
07F80000003FE0
07F80000003FC0
07F80000007FC0
07F8000000FF80
07F8000001FF80
07F8000003FF00
07F800000FFE00
07F800007FFC00
07FFFFFFFFFC00
07FFFFFFFFF000
07FFFFFFFFE000
07FFFFFFFFC000
07FFFFFFFF0000
07FFFFFFFC0000
07FFFFFFC00000
ENDCHAR
STARTCHAR 0111
ENCODING 273
SWIDTH 552 0
DWIDTH 46 0
BBX 44 63 2 -2
BITMAP
00000000FE00
00000000FE00
00000000FE00
00000000FE00
00000000FE00
00000000FE00
00000000FE00
00000FFFFFF0
00000FFFFFF0
00000FFFFFF0
00000FFFFFF0
00000000FE00
00000000FE00
00000000FE00
00000000FE00
00000000FE00
0001FE00FE00
000FFFC0FE00
003FFFF0FE00
00FFFFF8FE00
01FFFFFCFE00
03FFFFFEFE00
07FFFFFFFE00
0FFF00FFFE00
0FFC003FFE00
1FF8001FFE00
1FF0000FFE00
3FE00007FE00
3FC00003FE00
3FC00003FE00
7F800001FE00
7F800001FE00
7F000001FE00
7F000000FE00
FF000000FE00
FF000000FE00
FF000000FE00
FE000000FE00
FE000000FE00
FE000000FE00
FE000000FE00
FF000000FE00
FF000000FE00
FF000000FE00
7F000000FE00
7F000000FE00
7F000001FE00
7F800001FE00
7F800001FE00
3FC00003FE00
3FC00003FE00
3FE00007FE00
1FF0000FFE00
1FF8001FFE00
0FFC003FFE00
07FF00FFFE00
07FFFFFFFE00
03FFFFFF7E00
01FFFFFE7E00
00FFFFF87E00
003FFFF07E00
000FFFC00000
0001FE000000
ENDCHAR
STARTCHAR 0112
ENCODING 274
SWIDTH 672 0
DWIDTH 56 0
BBX 44 75 7 0
BITMAP
003FFFFF8000
003FFFFF8000
003FFFFF8000
003FFFFF8000
003FFFFF8000
003FFFFF8000
000000000000
000000000000
000000000000
000000000000
000000000000
000000000000
000000000000
000000000000
FFFFFFFFFFE0
FFFFFFFFFFE0
FFFFFFFFFFE0
FFFFFFFFFFE0
FFFFFFFFFFE0
FFFFFFFFFFE0
FFFFFFFFFFE0
FF0000000000
FF0000000000
FF0000000000
FF0000000000
FF0000000000
FF0000000000
FF0000000000
FF0000000000
FF0000000000
FF0000000000
FF0000000000
FF0000000000
FF0000000000
FF0000000000
FF0000000000
FF0000000000
FF0000000000
FF0000000000
FF0000000000
FFFFFFFFFF80
FFFFFFFFFF80
FFFFFFFFFF80
FFFFFFFFFF80
FFFFFFFFFF80
FFFFFFFFFF80
FFFFFFFFFF80
FF0000000000
FF0000000000
FF0000000000
FF0000000000
FF0000000000
FF0000000000
FF0000000000
FF0000000000
FF0000000000
FF0000000000
FF0000000000
FF0000000000
FF0000000000
FF0000000000
FF0000000000
FF0000000000
FF0000000000
FF0000000000
FF0000000000
FF0000000000
FF0000000000
FFFFFFFFFFF0
FFFFFFFFFFF0
FFFFFFFFFFF0
FFFFFFFFFFF0
FFFFFFFFFFF0
FFFFFFFFFFF0
FFFFFFFFFFF0
ENDCHAR
STARTCHAR 0113
ENCODING 275
SWIDTH 552 0
DWIDTH 46 0
BBX 40 61 3 -2
BITMAP
007FFFFF00
007FFFFF00
007FFFFF00
007FFFFF00
007FFFFF00
007FFFFF00
0000000000
0000000000
0000000000
0000000000
0000000000
0000000000
0000000000
0000000000
0000FF8000
0007FFF000
001FFFFC00
007FFFFF00
00FFFFFF80
01FFFFFFC0
03FFE7FFE0
07FE007FF0
0FF8001FF8
0FF0000FF8
1FE00007FC
1FE00003FC
3FC00003FC
3F800001FE
3F800001FE
7F800000FE
7F000000FE
7F000000FE
7F000000FE
7F000000FF
7FFFFFFFFF
FFFFFFFFFF
FFFFFFFFFF
FFFFFFFFFF
FFFFFFFFFF
FFFFFFFFFF
FF00000000
7F00000000
7F00000000
7F00000000
7F00000000
7F00000000
7F800000FE
3F800001FC
3FC00001FC
3FC00003FC
1FE00007F8
1FF00007F8
0FF8001FF0
07FE003FF0
07FFF3FFE0
03FFFFFFC0
01FFFFFF80
00FFFFFF00
003FFFFC00
000FFFF000
0001FF8000
ENDCHAR
STARTCHAR 0114
ENCODING 276
SWIDTH 672 0
DWIDTH 56 0
BBX 44 77 7 0
BITMAP
007C0007C000
007E0007C000
007E000FC000
003F001F8000
003FC07F8000
001FFFFF8000
001FFFFF0000
000FFFFE0000
0007FFFC0000
0001FFF00000
00001F800000
000000000000
000000000000
000000000000
000000000000
000000000000
FFFFFFFFFFE0
FFFFFFFFFFE0
FFFFFFFFFFE0
FFFFFFFFFFE0
FFFFFFFFFFE0
FFFFFFFFFFE0
FFFFFFFFFFE0
FF0000000000
FF0000000000
FF0000000000
FF0000000000
FF0000000000
FF0000000000
FF0000000000
FF0000000000
FF0000000000
FF0000000000
FF0000000000
FF0000000000
FF0000000000
FF0000000000
FF0000000000
FF0000000000
FF0000000000
FF0000000000
FF0000000000
FFFFFFFFFF80
FFFFFFFFFF80
FFFFFFFFFF80
FFFFFFFFFF80
FFFFFFFFFF80
FFFFFFFFFF80
FFFFFFFFFF80
FF0000000000
FF0000000000
FF0000000000
FF0000000000
FF0000000000
FF0000000000
FF0000000000
FF0000000000
FF0000000000
FF0000000000
FF0000000000
FF0000000000
FF0000000000
FF0000000000
FF0000000000
FF0000000000
FF0000000000
FF0000000000
FF0000000000
FF0000000000
FF0000000000
FFFFFFFFFFF0
FFFFFFFFFFF0
FFFFFFFFFFF0
FFFFFFFFFFF0
FFFFFFFFFFF0
FFFFFFFFFFF0
FFFFFFFFFFF0
ENDCHAR
STARTCHAR 0115
ENCODING 277
SWIDTH 552 0
DWIDTH 46 0
BBX 40 63 3 -2
BITMAP
00F8000F80
00FC000F80
007C000F80
007E001F80
007F807F00
003FFFFF00
003FFFFE00
001FFFFC00
000FFFF800
0003FFF000
00007F8000
0000000000
0000000000
0000000000
0000000000
0000000000
0000FF8000
0007FFF000
001FFFFC00
007FFFFF00
00FFFFFF80
01FFFFFFC0
03FFE7FFE0
07FE007FF0
0FF8001FF8
0FF0000FF8
1FE00007FC
1FE00003FC
3FC00003FC
3F800001FE
3F800001FE
7F800000FE
7F000000FE
7F000000FE
7F000000FE
7F000000FF
7FFFFFFFFF
FFFFFFFFFF
FFFFFFFFFF
FFFFFFFFFF
FFFFFFFFFF
FFFFFFFFFF
FF00000000
7F00000000
7F00000000
7F00000000
7F00000000
7F00000000
7F800000FE
3F800001FC
3FC00001FC
3FC00003FC
1FE00007F8
1FF00007F8
0FF8001FF0
07FE003FF0
07FFF3FFE0
03FFFFFFC0
01FFFFFF80
00FFFFFF00
003FFFFC00
000FFFF000
0001FF8000
ENDCHAR
STARTCHAR 0116
ENCODING 278
SWIDTH 672 0
DWIDTH 56 0
BBX 44 77 7 0
BITMAP
00007FC00000
00007FC00000
00007FC00000
00007FC00000
00007FC00000
00007FC00000
00007FC00000
00007FC00000
00007FC00000
000000000000
000000000000
000000000000
000000000000
000000000000
000000000000
000000000000
FFFFFFFFFFE0
FFFFFFFFFFE0
FFFFFFFFFFE0
FFFFFFFFFFE0
FFFFFFFFFFE0
FFFFFFFFFFE0
FFFFFFFFFFE0
FF0000000000
FF0000000000
FF0000000000
FF0000000000
FF0000000000
FF0000000000
FF0000000000
FF0000000000
FF0000000000
FF0000000000
FF0000000000
FF0000000000
FF0000000000
FF0000000000
FF0000000000
FF0000000000
FF0000000000
FF0000000000
FF0000000000
FFFFFFFFFF80
FFFFFFFFFF80
FFFFFFFFFF80
FFFFFFFFFF80
FFFFFFFFFF80
FFFFFFFFFF80
FFFFFFFFFF80
FF0000000000
FF0000000000
FF0000000000
FF0000000000
FF0000000000
FF0000000000
FF0000000000
FF0000000000
FF0000000000
FF0000000000
FF0000000000
FF0000000000
FF0000000000
FF0000000000
FF0000000000
FF0000000000
FF0000000000
FF0000000000
FF0000000000
FF0000000000
FF0000000000
FFFFFFFFFFF0
FFFFFFFFFFF0
FFFFFFFFFFF0
FFFFFFFFFFF0
FFFFFFFFFFF0
FFFFFFFFFFF0
FFFFFFFFFFF0
ENDCHAR
STARTCHAR 0117
ENCODING 279
SWIDTH 552 0
DWIDTH 46 0
BBX 40 62 3 -2
BITMAP
0000FF8000
0000FF8000
0000FF8000
0000FF8000
0000FF8000
0000FF8000
0000FF8000
0000FF8000
0000FF8000
0000000000
0000000000
0000000000
0000000000
0000000000
0000000000
0000FF8000
0007FFF000
001FFFFC00
007FFFFF00
00FFFFFF80
01FFFFFFC0
03FFE7FFE0
07FE007FF0
0FF8001FF8
0FF0000FF8
1FE00007FC
1FE00003FC
3FC00003FC
3F800001FE
3F800001FE
7F800000FE
7F000000FE
7F000000FE
7F000000FE
7F000000FF
7FFFFFFFFF
FFFFFFFFFF
FFFFFFFFFF
FFFFFFFFFF
FFFFFFFFFF
FFFFFFFFFF
FF00000000
7F00000000
7F00000000
7F00000000
7F00000000
7F00000000
7F800000FE
3F800001FC
3FC00001FC
3FC00003FC
1FE00007F8
1FF00007F8
0FF8001FF0
07FE003FF0
07FFF3FFE0
03FFFFFFC0
01FFFFFF80
00FFFFFF00
003FFFFC00
000FFFF000
0001FF8000
ENDCHAR
STARTCHAR 0118
ENCODING 280
SWIDTH 672 0
DWIDTH 56 0
BBX 47 78 7 -17
BITMAP
FFFFFFFFFFE0
FFFFFFFFFFE0
FFFFFFFFFFE0
FFFFFFFFFFE0
FFFFFFFFFFE0
FFFFFFFFFFE0
FFFFFFFFFFE0
FF0000000000
FF0000000000
FF0000000000
FF0000000000
FF0000000000
FF0000000000
FF0000000000
FF0000000000
FF0000000000
FF0000000000
FF0000000000
FF0000000000
FF0000000000
FF0000000000
FF0000000000
FF0000000000
FF0000000000
FF0000000000
FF0000000000
FFFFFFFFFF80
FFFFFFFFFF80
FFFFFFFFFF80
FFFFFFFFFF80
FFFFFFFFFF80
FFFFFFFFFF80
FFFFFFFFFF80
FF0000000000
FF0000000000
FF0000000000
FF0000000000
FF0000000000
FF0000000000
FF0000000000
FF0000000000
FF0000000000
FF0000000000
FF0000000000
FF0000000000
FF0000000000
FF0000000000
FF0000000000
FF0000000000
FF0000000000
FF0000000000
FF0000000000
FF0000000000
FF0000000000
FFFFFFFFFFF0
FFFFFFFFFFF0
FFFFFFFFFFF0
FFFFFFFFFFF0
FFFFFFFFFFF0
FFFFFFFFFFF0
FFFFFFFFFFF0
0000000007E0
000000001F80
000000003F00
000000007E00
00000000FC00
00000001F800
00000003F800
00000003F000
00000003F000
00000003F000
00000003F000
00000003F800
00000001FC00
00000001FFFE
000000007FFE
000000003FFE
0000000007F8
ENDCHAR
STARTCHAR 0119
ENCODING 281
SWIDTH 552 0
DWIDTH 46 0
BBX 40 62 3 -17
BITMAP
0000FF8000
0007FFF000
001FFFFC00
007FFFFF00
00FFFFFF80
01FFFFFFC0
03FFE7FFE0
07FE007FF0
0FF8001FF8
0FF0000FF8
1FE00007FC
1FE00003FC
3FC00001FC
3F800001FE
3F800001FE
7F800000FE
7F000000FE
7F000000FE
7F000000FF
7F000000FF
7FFFFFFFFF
FFFFFFFFFF
FFFFFFFFFF
FFFFFFFFFF
FFFFFFFFFF
FFFFFFFFFF
FF00000000
7F00000000
7F00000000
7F00000000
7F00000000
7F00000000
7F800000FE
3F800001FE
3FC00001FC
3FC00003FC
1FE00003F8
1FF00007F8
0FF8001FF0
07FE003FF0
07FFE1FFE0
03FFFFFFC0
01FFFFFF80
00FFFFFF80
003FFFFF00
000FFFFE00
0001FFBC00
000000F800
000001F000
000003F000
000003E000
000007E000
000007C000
00000FC000
00000FC000
00000FE000
000007E000
000007F000
000003FFFC
000001FFFC
000000FFFC
0000001FF0
ENDCHAR
STARTCHAR 011A
ENCODING 282
SWIDTH 672 0
DWIDTH 56 0
BBX 44 79 7 0
BITMAP
003E000FC000
003F001F8000
001F801F0000
000FC03F0000
000FC07E0000
0007E0FC0000
0003F1FC0000
0003FBF80000
0001FFF00000
0000FFF00000
0000FFE00000
00007FE00000
00003FC00000
000000000000
000000000000
000000000000
000000000000
000000000000
FFFFFFFFFFE0
FFFFFFFFFFE0
FFFFFFFFFFE0
FFFFFFFFFFE0
FFFFFFFFFFE0
FFFFFFFFFFE0
FFFFFFFFFFE0
FF0000000000
FF0000000000
FF0000000000
FF0000000000
FF0000000000
FF0000000000
FF0000000000
FF0000000000
FF0000000000
FF0000000000
FF0000000000
FF0000000000
FF0000000000
FF0000000000
FF0000000000
FF0000000000
FF0000000000
FF0000000000
FF0000000000
FFFFFFFFFF80
FFFFFFFFFF80
FFFFFFFFFF80
FFFFFFFFFF80
FFFFFFFFFF80
FFFFFFFFFF80
FFFFFFFFFF80
FF0000000000
FF0000000000
FF0000000000
FF0000000000
FF0000000000
FF0000000000
FF0000000000
FF0000000000
FF0000000000
FF0000000000
FF0000000000
FF0000000000
FF0000000000
FF0000000000
FF0000000000
FF0000000000
FF0000000000
FF0000000000
FF0000000000
FF0000000000
FF0000000000
FFFFFFFFFFF0
FFFFFFFFFFF0
FFFFFFFFFFF0
FFFFFFFFFFF0
FFFFFFFFFFF0
FFFFFFFFFFF0
FFFFFFFFFFF0
ENDCHAR
STARTCHAR 011B
ENCODING 283
SWIDTH 552 0
DWIDTH 46 0
BBX 40 64 3 -2
BITMAP
007E001F80
003E003F00
003F007E00
001F807E00
000FC0FC00
000FE1F800
0007F3F800
0003F7F000
0003FFE000
0001FFE000
0000FFC000
0000FFC000
00007F8000
0000000000
0000000000
0000000000
0000000000
0000FF8000
0007FFF000
001FFFFC00
007FFFFF00
00FFFFFF80
01FFFFFFC0
03FFE7FFE0
07FE007FF0
0FF8001FF8
0FF0000FF8
1FE00007FC
1FE00003FC
3FC00003FC
3F800001FE
3F800001FE
7F800000FE
7F000000FE
7F000000FE
7F000000FE
7F000000FF
7FFFFFFFFF
FFFFFFFFFF
FFFFFFFFFF
FFFFFFFFFF
FFFFFFFFFF
FFFFFFFFFF
FF00000000
7F00000000
7F00000000
7F00000000
7F00000000
7F00000000
7F800000FE
3F800001FC
3FC00001FC
3FC00003FC
1FE00007F8
1FF00007F8
0FF8001FF0
07FE003FF0
07FFF3FFE0
03FFFFFFC0
01FFFFFF80
00FFFFFF00
003FFFFC00
000FFFF000
0001FF8000
ENDCHAR
STARTCHAR 011C
ENCODING 284
SWIDTH 780 0
DWIDTH 65 0
BBX 55 81 4 -2
BITMAP
000000FF000000
000001FF800000
000001FF800000
000003FFC00000
000003FFE00000
000007F7E00000
00000FE7F00000
00000FC3F80000
00001F81F80000
00003F00FC0000
00003F007E0000
00007E003E0000
0000FC003F0000
00000000000000
00000000000000
00000000000000
00000000000000
000001FFE00000
00001FFFFE0000
0000FFFFFFC000
0003FFFFFFF000
000FFFFFFFF800
001FFFFFFFFE00
003FFFFFFFFF00
007FFE003FFF80
00FFF00007FF80
01FFC00001FFC0
03FF8000007FE0
03FE0000003FF0
07FC0000001FF0
0FF80000000FF8
0FF80000000FF8
1FF000000007F8
1FE000000007FC
3FE000000003FC
3FC000000003FC
3FC000000003FC
7F800000000000
7F800000000000
7F800000000000
7F000000000000
FF000000000000
FF000000000000
FF000000000000
FF000000000000
FF000000000000
FF000000000000
FE000003FFFFFE
FE000003FFFFFE
FE000003FFFFFE
FE000003FFFFFE
FF000003FFFFFE
FF000003FFFFFE
FF000003FFFFFE
FF0000000000FE
FF0000000000FE
FF0000000000FE
FF8000000000FE
7F8000000000FE
7F8000000000FE
7F8000000000FE
7FC000000001FE
3FC000000001FE
3FE000000001FE
1FE000000003FE
1FF000000003FE
0FF800000007FE
0FF80000000FFE
07FC0000001FFE
07FE0000003FFE
03FF8000007FFE
01FFC00000FFFE
00FFF00003FEFE
007FFF001FFC7E
003FFFFFFFF87E
001FFFFFFFF07E
000FFFFFFFC07E
0003FFFFFF803E
0000FFFFFE003E
00003FFFF80000
000003FF800000
ENDCHAR
STARTCHAR 011D
ENCODING 285
SWIDTH 552 0
DWIDTH 46 0
BBX 37 80 3 -18
BITMAP
0001FF0000
0001FF8000
0003FF8000
0007FFC000
0007FFE000
000FEFE000
000FC7F000
001F83F000
003F01F800
003F00FC00
007E007C00
00FC003E00
0000000000
0000000000
0000000000
0000000000
0000000000
0003FC0000
001FFF81F8
007FFFC1F8
00FFFFE1F8
01FFFFF1F8
03FFFFF9F8
07FFDFFDF8
0FFC01FFF8
0FF0007FF8
1FE0003FF8
1FC0001FF8
3FC0001FF8
3F80000FF8
3F80000FF8
7F000007F8
7F000007F8
7F000007F8
7F000007F8
FF000003F8
FE000003F8
FE000003F8
FE000003F8
FE000003F8
FE000003F8
FE000003F8
FE000003F8
FE000003F8
FE000003F8
FF000003F8
FF000003F8
FF000007F8
7F000007F8
7F000007F8
7F80000FF8
3F80000FF8
3FC0001FF8
3FC0001FF8
1FE0003FF8
1FF0007FF8
0FFC01FFF8
07FFDFFBF8
03FFFFF3F8
01FFFFE3F8
00FFFFC3F8
007FFF83F8
001FFF03F8
0003F803F8
00000003F8
00000007F0
00000007F0
7F800007F0
3F800007F0
3F80000FE0
3FC0001FE0
3FC0001FC0
1FE0007FC0
0FF801FF80
0FFFFFFF00
07FFFFFE00
03FFFFFC00
00FFFFF800
003FFFE000
0007FE0000
ENDCHAR
STARTCHAR 011E
ENCODING 286
SWIDTH 780 0
DWIDTH 65 0
BBX 55 79 4 -2
BITMAP
00007C0007C000
00007C000FC000
00007E000F8000
00007F001F8000
00003FC07F8000
00003FFFFF0000
00001FFFFE0000
00000FFFFE0000
000007FFF80000
000001FFF00000
0000003F000000
00000000000000
00000000000000
00000000000000
00000000000000
000001FFE00000
00001FFFFE0000
0000FFFFFFC000
0003FFFFFFF000
000FFFFFFFF800
001FFFFFFFFE00
003FFFFFFFFF00
007FFE003FFF80
00FFF00007FF80
01FFC00001FFC0
03FF8000007FE0
03FE0000003FF0
07FC0000001FF0
0FF80000000FF8
0FF80000000FF8
1FF000000007F8
1FE000000007FC
3FE000000003FC
3FC000000003FC
3FC000000003FC
7F800000000000
7F800000000000
7F800000000000
7F000000000000
FF000000000000
FF000000000000
FF000000000000
FF000000000000
FF000000000000
FF000000000000
FE000003FFFFFE
FE000003FFFFFE
FE000003FFFFFE
FE000003FFFFFE
FF000003FFFFFE
FF000003FFFFFE
FF000003FFFFFE
FF0000000000FE
FF0000000000FE
FF0000000000FE
FF8000000000FE
7F8000000000FE
7F8000000000FE
7F8000000000FE
7FC000000001FE
3FC000000001FE
3FE000000001FE
1FE000000003FE
1FF000000003FE
0FF800000007FE
0FF80000000FFE
07FC0000001FFE
07FE0000003FFE
03FF8000007FFE
01FFC00000FFFE
00FFF00003FEFE
007FFF001FFC7E
003FFFFFFFF87E
001FFFFFFFF07E
000FFFFFFFC07E
0003FFFFFF803E
0000FFFFFE003E
00003FFFF80000
000003FF800000
ENDCHAR
STARTCHAR 011F
ENCODING 287
SWIDTH 552 0
DWIDTH 46 0
BBX 37 79 3 -18
BITMAP
01F0001F00
01F0001F00
01F8003F00
01FC007E00
00FE00FE00
00FFFFFE00
007FFFFC00
003FFFF800
001FFFF000
000FFFC000
0001FF0000
0000000000
0000000000
0000000000
0000000000
0000000000
0003FC0000
001FFF81F8
007FFFC1F8
00FFFFE1F8
01FFFFF1F8
03FFFFF9F8
07FFDFFDF8
0FFC01FFF8
0FF0007FF8
1FE0003FF8
1FC0001FF8
3FC0001FF8
3F80000FF8
3F80000FF8
7F000007F8
7F000007F8
7F000007F8
7F000007F8
FF000003F8
FE000003F8
FE000003F8
FE000003F8
FE000003F8
FE000003F8
FE000003F8
FE000003F8
FE000003F8
FE000003F8
FF000003F8
FF000003F8
FF000007F8
7F000007F8
7F000007F8
7F80000FF8
3F80000FF8
3FC0001FF8
3FC0001FF8
1FE0003FF8
1FF0007FF8
0FFC01FFF8
07FFDFFBF8
03FFFFF3F8
01FFFFE3F8
00FFFFC3F8
007FFF83F8
001FFF03F8
0003F803F8
00000003F8
00000007F0
00000007F0
7F800007F0
3F800007F0
3F80000FE0
3FC0001FE0
3FC0001FC0
1FE0007FC0
0FF801FF80
0FFFFFFF00
07FFFFFE00
03FFFFFC00
00FFFFF800
003FFFE000
0007FE0000
ENDCHAR
STARTCHAR 0120
ENCODING 288
SWIDTH 780 0
DWIDTH 65 0
BBX 55 79 4 -2
BITMAP
000000FF800000
000000FF800000
000000FF800000
000000FF800000
000000FF800000
000000FF800000
000000FF800000
000000FF800000
000000FF800000
00000000000000
00000000000000
00000000000000
00000000000000
00000000000000
00000000000000
000001FFE00000
00001FFFFE0000
0000FFFFFFC000
0003FFFFFFF000
000FFFFFFFF800
001FFFFFFFFE00
003FFFFFFFFF00
007FFE003FFF80
00FFF00007FF80
01FFC00001FFC0
03FF8000007FE0
03FE0000003FF0
07FC0000001FF0
0FF80000000FF8
0FF80000000FF8
1FF000000007F8
1FE000000007FC
3FE000000003FC
3FC000000003FC
3FC000000003FC
7F800000000000
7F800000000000
7F800000000000
7F000000000000
FF000000000000
FF000000000000
FF000000000000
FF000000000000
FF000000000000
FF000000000000
FE000003FFFFFE
FE000003FFFFFE
FE000003FFFFFE
FE000003FFFFFE
FF000003FFFFFE
FF000003FFFFFE
FF000003FFFFFE
FF0000000000FE
FF0000000000FE
FF0000000000FE
FF8000000000FE
7F8000000000FE
7F8000000000FE
7F8000000000FE
7FC000000001FE
3FC000000001FE
3FE000000001FE
1FE000000003FE
1FF000000003FE
0FF800000007FE
0FF80000000FFE
07FC0000001FFE
07FE0000003FFE
03FF8000007FFE
01FFC00000FFFE
00FFF00003FEFE
007FFF001FFC7E
003FFFFFFFF87E
001FFFFFFFF07E
000FFFFFFFC07E
0003FFFFFF803E
0000FFFFFE003E
00003FFFF80000
000003FF800000
ENDCHAR
STARTCHAR 0121
ENCODING 289
SWIDTH 552 0
DWIDTH 46 0
BBX 37 78 3 -18
BITMAP
0001FE0000
0001FE0000
0001FE0000
0001FE0000
0001FE0000
0001FE0000
0001FE0000
0001FE0000
0001FE0000
0000000000
0000000000
0000000000
0000000000
0000000000
0000000000
0003FC0000
001FFF81F8
007FFFC1F8
00FFFFE1F8
01FFFFF1F8
03FFFFF9F8
07FFDFFDF8
0FFC01FFF8
0FF0007FF8
1FE0003FF8
1FC0001FF8
3FC0001FF8
3F80000FF8
3F80000FF8
7F000007F8
7F000007F8
7F000007F8
7F000007F8
FF000003F8
FE000003F8
FE000003F8
FE000003F8
FE000003F8
FE000003F8
FE000003F8
FE000003F8
FE000003F8
FE000003F8
FF000003F8
FF000003F8
FF000007F8
7F000007F8
7F000007F8
7F80000FF8
3F80000FF8
3FC0001FF8
3FC0001FF8
1FE0003FF8
1FF0007FF8
0FFC01FFF8
07FFDFFBF8
03FFFFF3F8
01FFFFE3F8
00FFFFC3F8
007FFF83F8
001FFF03F8
0003F803F8
00000003F8
00000007F0
00000007F0
7F800007F0
3F800007F0
3F80000FE0
3FC0001FE0
3FC0001FC0
1FE0007FC0
0FF801FF80
0FFFFFFF00
07FFFFFE00
03FFFFFC00
00FFFFF800
003FFFE000
0007FE0000
ENDCHAR
STARTCHAR 0122
ENCODING 290
SWIDTH 780 0
DWIDTH 65 0
BBX 55 86 4 -24
BITMAP
000001FFE00000
00001FFFFE0000
0000FFFFFFC000
0003FFFFFFF000
000FFFFFFFF800
001FFFFFFFFE00
003FFFFFFFFF00
007FFE003FFF80
00FFF00007FF80
01FFC00001FFC0
03FF8000007FE0
03FE0000003FF0
07FC0000001FF0
0FF80000000FF8
0FF80000000FF8
1FF000000007F8
1FE000000007FC
3FE000000003FC
3FC000000003FC
3FC000000003FC
7F800000000000
7F800000000000
7F800000000000
7F000000000000
FF000000000000
FF000000000000
FF000000000000
FF000000000000
FF000000000000
FF000000000000
FE000003FFFFFE
FE000003FFFFFE
FE000003FFFFFE
FE000003FFFFFE
FF000003FFFFFE
FF000003FFFFFE
FF000003FFFFFE
FF0000000000FE
FF0000000000FE
FF0000000000FE
FF8000000000FE
7F8000000000FE
7F8000000000FE
7F8000000000FE
7FC000000001FE
3FC000000001FE
3FE000000001FE
1FE000000003FE
1FF000000003FE
0FF800000007FE
0FF80000000FFE
07FC0000001FFE
07FE0000003FFE
03FF8000007FFE
01FFC00000FFFE
00FFF00003FEFE
007FFF001FFC7E
003FFFFFFFF87E
001FFFFFFFF07E
000FFFFFFFC07E
0003FFFFFF803E
0000FFFFFE003E
00003FFFF80000
000003FF800000
00000000000000
00000000000000
00000000000000
000000FF000000
000000FF000000
000000FF000000
000000FF000000
000000FF000000
000000FF000000
000000FF000000
000000FF000000
00000007000000
00000007000000
00000007000000
0000000F000000
0000000F000000
0000000F000000
0000001E000000
000000FE000000
000000FC000000
000000F0000000
000000C0000000
ENDCHAR
STARTCHAR 0123
ENCODING 291
SWIDTH 552 0
DWIDTH 46 0
BBX 37 86 3 -18
BITMAP
00001E0000
00003E0000
00007E0000
0000F80000
0000F00000
0000E00000
0001E00000
0001E00000
0001E00000
0001E00000
0001FE0000
0001FE0000
0001FE0000
0001FE0000
0001FE0000
0001FE0000
0001FE0000
0001FE0000
0000000000
0000000000
0000000000
0000000000
0000000000
0003FC0000
001FFF81F8
007FFFC1F8
00FFFFE1F8
01FFFFF1F8
03FFFFF9F8
07FFDFFDF8
0FFC01FFF8
0FF0007FF8
1FE0003FF8
1FC0001FF8
3FC0001FF8
3F80000FF8
3F80000FF8
7F000007F8
7F000007F8
7F000007F8
7F000007F8
FF000003F8
FE000003F8
FE000003F8
FE000003F8
FE000003F8
FE000003F8
FE000003F8
FE000003F8
FE000003F8
FE000003F8
FF000003F8
FF000003F8
FF000007F8
7F000007F8
7F000007F8
7F80000FF8
3F80000FF8
3FC0001FF8
3FC0001FF8
1FE0003FF8
1FF0007FF8
0FFC01FFF8
07FFDFFBF8
03FFFFF3F8
01FFFFE3F8
00FFFFC3F8
007FFF83F8
001FFF03F8
0003F803F8
00000003F8
00000007F0
00000007F0
7F800007F0
3F800007F0
3F80000FE0
3FC0001FE0
3FC0001FC0
1FE0007FC0
0FF801FF80
0FFFFFFF00
07FFFFFE00
03FFFFFC00
00FFFFF800
003FFFE000
0007FE0000
ENDCHAR
STARTCHAR 0124
ENCODING 292
SWIDTH 720 0
DWIDTH 60 0
BBX 47 79 7 0
BITMAP
00000FF00000
00001FF80000
00001FF80000
00003FFC0000
00007FFE0000
00007EFE0000
0000FE7F0000
0001FC3F0000
0001F81F8000
0003F00FC000
0003E007C000
0007C007E000
000FC003F000
000000000000
000000000000
000000000000
000000000000
000000000000
FF00000001FE
FF00000001FE
FF00000001FE
FF00000001FE
FF00000001FE
FF00000001FE
FF00000001FE
FF00000001FE
FF00000001FE
FF00000001FE
FF00000001FE
FF00000001FE
FF00000001FE
FF00000001FE
FF00000001FE
FF00000001FE
FF00000001FE
FF00000001FE
FF00000001FE
FF00000001FE
FF00000001FE
FF00000001FE
FF00000001FE
FF00000001FE
FF00000001FE
FF00000001FE
FFFFFFFFFFFE
FFFFFFFFFFFE
FFFFFFFFFFFE
FFFFFFFFFFFE
FFFFFFFFFFFE
FFFFFFFFFFFE
FFFFFFFFFFFE
FF00000001FE
FF00000001FE
FF00000001FE
FF00000001FE
FF00000001FE
FF00000001FE
FF00000001FE
FF00000001FE
FF00000001FE
FF00000001FE
FF00000001FE
FF00000001FE
FF00000001FE
FF00000001FE
FF00000001FE
FF00000001FE
FF00000001FE
FF00000001FE
FF00000001FE
FF00000001FE
FF00000001FE
FF00000001FE
FF00000001FE
FF00000001FE
FF00000001FE
FF00000001FE
FF00000001FE
FF00000001FE
ENDCHAR
STARTCHAR 0125
ENCODING 293
SWIDTH 552 0
DWIDTH 46 0
BBX 42 79 -2 0
BITMAP
01FE00000000
01FF00000000
03FF80000000
03FF80000000
07FFC0000000
0FEFE0000000
0FC7E0000000
1F83F0000000
3F03F8000000
3F01F8000000
7E00FC000000
FC007E000000
F8003E000000
000000000000
000000000000
000000000000
000000000000
000000000000
00FE00000000
00FE00000000
00FE00000000
00FE00000000
00FE00000000
00FE00000000
00FE00000000
00FE00000000
00FE00000000
00FE00000000
00FE00000000
00FE00000000
00FE00000000
00FE00000000
00FE00000000
00FE00000000
00FE00FF8000
00FE07FFF000
00FE0FFFFC00
00FE3FFFFE00
00FE7FFFFF00
00FEFFFFFF80
00FFFE07FF80
00FFF800FFC0
00FFF0007FC0
00FFE0003FC0
00FFC0001FC0
00FF80001FC0
00FF80001FC0
00FF00000FC0
00FF00000FC0
00FE00000FC0
00FE00000FC0
00FE00000FC0
00FE00000FC0
00FE00000FC0
00FE00000FC0
00FE00000FC0
00FE00000FC0
00FE00000FC0
00FE00000FC0
00FE00000FC0
00FE00000FC0
00FE00000FC0
00FE00000FC0
00FE00000FC0
00FE00000FC0
00FE00000FC0
00FE00000FC0
00FE00000FC0
00FE00000FC0
00FE00000FC0
00FE00000FC0
00FE00000FC0
00FE00000FC0
00FE00000FC0
00FE00000FC0
00FE00000FC0
00FE00000FC0
00FE00000FC0
00FE00000FC0
ENDCHAR
STARTCHAR 0126
ENCODING 294
SWIDTH 720 0
DWIDTH 60 0
BBX 59 61 1 0
BITMAP
03FC00000007F800
03FC00000007F800
03FC00000007F800
03FC00000007F800
03FC00000007F800
03FC00000007F800
03FC00000007F800
03FC00000007F800
03FC00000007F800
03FC00000007F800
03FC00000007F800
03FC00000007F800
03FC00000007F800
FFFFFFFFFFFFFFE0
FFFFFFFFFFFFFFE0
FFFFFFFFFFFFFFE0
FFFFFFFFFFFFFFE0
FFFFFFFFFFFFFFE0
FFFFFFFFFFFFFFE0
03FC00000007F800
03FC00000007F800
03FC00000007F800
03FC00000007F800
03FC00000007F800
03FC00000007F800
03FC00000007F800
03FFFFFFFFFFF800
03FFFFFFFFFFF800
03FFFFFFFFFFF800
03FFFFFFFFFFF800
03FFFFFFFFFFF800
03FFFFFFFFFFF800
03FFFFFFFFFFF800
03FC00000007F800
03FC00000007F800
03FC00000007F800
03FC00000007F800
03FC00000007F800
03FC00000007F800
03FC00000007F800
03FC00000007F800
03FC00000007F800
03FC00000007F800
03FC00000007F800
03FC00000007F800
03FC00000007F800
03FC00000007F800
03FC00000007F800
03FC00000007F800
03FC00000007F800
03FC00000007F800
03FC00000007F800
03FC00000007F800
03FC00000007F800
03FC00000007F800
03FC00000007F800
03FC00000007F800
03FC00000007F800
03FC00000007F800
03FC00000007F800
03FC00000007F800
ENDCHAR
STARTCHAR 0127
ENCODING 295
SWIDTH 552 0
DWIDTH 46 0
BBX 39 61 1 0
BITMAP
07F0000000
07F0000000
07F0000000
07F0000000
07F0000000
07F0000000
07F0000000
FFFFFFF800
FFFFFFF800
FFFFFFF800
FFFFFFF800
07F0000000
07F0000000
07F0000000
07F0000000
07F0000000
07F007FC00
07F03FFF80
07F07FFFE0
07F1FFFFF0
07F3FFFFF8
07F7FFFFFC
07FFF03FFC
07FFC007FE
07FF8003FE
07FF0001FE
07FE0000FE
07FC0000FE
07FC0000FE
07F800007E
07F800007E
07F000007E
07F000007E
07F000007E
07F000007E
07F000007E
07F000007E
07F000007E
07F000007E
07F000007E
07F000007E
07F000007E
07F000007E
07F000007E
07F000007E
07F000007E
07F000007E
07F000007E
07F000007E
07F000007E
07F000007E
07F000007E
07F000007E
07F000007E
07F000007E
07F000007E
07F000007E
07F000007E
07F000007E
07F000007E
07F000007E
ENDCHAR
STARTCHAR 0128
ENCODING 296
SWIDTH 276 0
DWIDTH 23 0
BBX 26 77 -2 0
BITMAP
010007C0
0FF007C0
1FFE0FC0
3FFFFFC0
3FFFFF80
7FFFFF80
7C3FFF00
FC07FE00
F800FC00
00000000
00000000
00000000
00000000
00000000
00000000
00000000
003FC000
003FC000
003FC000
003FC000
003FC000
003FC000
003FC000
003FC000
003FC000
003FC000
003FC000
003FC000
003FC000
003FC000
003FC000
003FC000
003FC000
003FC000
003FC000
003FC000
003FC000
003FC000
003FC000
003FC000
003FC000
003FC000
003FC000
003FC000
003FC000
003FC000
003FC000
003FC000
003FC000
003FC000
003FC000
003FC000
003FC000
003FC000
003FC000
003FC000
003FC000
003FC000
003FC000
003FC000
003FC000
003FC000
003FC000
003FC000
003FC000
003FC000
003FC000
003FC000
003FC000
003FC000
003FC000
003FC000
003FC000
003FC000
003FC000
003FC000
003FC000
ENDCHAR
STARTCHAR 0129
ENCODING 297
SWIDTH 276 0
DWIDTH 23 0
BBX 26 60 -2 0
BITMAP
07C007C0
1FF807C0
3FFF0FC0
3FFFFF80
7FFFFF80
7FFFFF00
7C1FFF00
F803FE00
F8007000
00000000
00000000
00000000
00000000
00000000
00000000
00000000
003F8000
003F8000
003F8000
003F8000
003F8000
003F8000
003F8000
003F8000
003F8000
003F8000
003F8000
003F8000
003F8000
003F8000
003F8000
003F8000
003F8000
003F8000
003F8000
003F8000
003F8000
003F8000
003F8000
003F8000
003F8000
003F8000
003F8000
003F8000
003F8000
003F8000
003F8000
003F8000
003F8000
003F8000
003F8000
003F8000
003F8000
003F8000
003F8000
003F8000
003F8000
003F8000
003F8000
003F8000
ENDCHAR
STARTCHAR 012A
ENCODING 298
SWIDTH 276 0
DWIDTH 23 0
BBX 21 75 2 0
BITMAP
FFFFF8
FFFFF8
FFFFF8
FFFFF8
FFFFF8
FFFFF8
000000
000000
000000
000000
000000
000000
000000
000000
03FC00
03FC00
03FC00
03FC00
03FC00
03FC00
03FC00
03FC00
03FC00
03FC00
03FC00
03FC00
03FC00
03FC00
03FC00
03FC00
03FC00
03FC00
03FC00
03FC00
03FC00
03FC00
03FC00
03FC00
03FC00
03FC00
03FC00
03FC00
03FC00
03FC00
03FC00
03FC00
03FC00
03FC00
03FC00
03FC00
03FC00
03FC00
03FC00
03FC00
03FC00
03FC00
03FC00
03FC00
03FC00
03FC00
03FC00
03FC00
03FC00
03FC00
03FC00
03FC00
03FC00
03FC00
03FC00
03FC00
03FC00
03FC00
03FC00
03FC00
03FC00
ENDCHAR
STARTCHAR 012B
ENCODING 299
SWIDTH 276 0
DWIDTH 23 0
BBX 21 59 1 0
BITMAP
FFFFF8
FFFFF8
FFFFF8
FFFFF8
FFFFF8
FFFFF8
000000
000000
000000
000000
000000
000000
000000
000000
000000
01FC00
01FC00
01FC00
01FC00
01FC00
01FC00
01FC00
01FC00
01FC00
01FC00
01FC00
01FC00
01FC00
01FC00
01FC00
01FC00
01FC00
01FC00
01FC00
01FC00
01FC00
01FC00
01FC00
01FC00
01FC00
01FC00
01FC00
01FC00
01FC00
01FC00
01FC00
01FC00
01FC00
01FC00
01FC00
01FC00
01FC00
01FC00
01FC00
01FC00
01FC00
01FC00
01FC00
01FC00
ENDCHAR
STARTCHAR 012C
ENCODING 300
SWIDTH 276 0
DWIDTH 23 0
BBX 25 77 -1 0
BITMAP
F8000F80
F8000F80
FC001F80
FE003F00
7F80FF00
7FFFFE00
3FFFFE00
1FFFFC00
0FFFF800
03FFE000
003F0000
00000000
00000000
00000000
00000000
00000000
007F8000
007F8000
007F8000
007F8000
007F8000
007F8000
007F8000
007F8000
007F8000
007F8000
007F8000
007F8000
007F8000
007F8000
007F8000
007F8000
007F8000
007F8000
007F8000
007F8000
007F8000
007F8000
007F8000
007F8000
007F8000
007F8000
007F8000
007F8000
007F8000
007F8000
007F8000
007F8000
007F8000
007F8000
007F8000
007F8000
007F8000
007F8000
007F8000
007F8000
007F8000
007F8000
007F8000
007F8000
007F8000
007F8000
007F8000
007F8000
007F8000
007F8000
007F8000
007F8000
007F8000
007F8000
007F8000
007F8000
007F8000
007F8000
007F8000
007F8000
007F8000
ENDCHAR
STARTCHAR 012D
ENCODING 301
SWIDTH 276 0
DWIDTH 23 0
BBX 25 61 -1 0
BITMAP
F8000F80
F8000F80
FC001F80
FE001F00
7F007F00
7FFFFF00
3FFFFE00
1FFFFC00
0FFFF800
03FFE000
00FF8000
00000000
00000000
00000000
00000000
00000000
00000000
007F0000
007F0000
007F0000
007F0000
007F0000
007F0000
007F0000
007F0000
007F0000
007F0000
007F0000
007F0000
007F0000
007F0000
007F0000
007F0000
007F0000
007F0000
007F0000
007F0000
007F0000
007F0000
007F0000
007F0000
007F0000
007F0000
007F0000
007F0000
007F0000
007F0000
007F0000
007F0000
007F0000
007F0000
007F0000
007F0000
007F0000
007F0000
007F0000
007F0000
007F0000
007F0000
007F0000
007F0000
ENDCHAR
STARTCHAR 012E
ENCODING 302
SWIDTH 276 0
DWIDTH 23 0
BBX 13 78 6 -17
BITMAP
3FC0
3FC0
3FC0
3FC0
3FC0
3FC0
3FC0
3FC0
3FC0
3FC0
3FC0
3FC0
3FC0
3FC0
3FC0
3FC0
3FC0
3FC0
3FC0
3FC0
3FC0
3FC0
3FC0
3FC0
3FC0
3FC0
3FC0
3FC0
3FC0
3FC0
3FC0
3FC0
3FC0
3FC0
3FC0
3FC0
3FC0
3FC0
3FC0
3FC0
3FC0
3FC0
3FC0
3FC0
3FC0
3FC0
3FC0
3FC0
3FC0
3FC0
3FC0
3FC0
3FC0
3FC0
3FC0
3FC0
3FC0
3FC0
3FC0
3FC0
3FC0
07C0
0F80
1F00
3E00
7E00
7C00
FC00
FC00
FC00
FC00
FC00
FC00
FE00
7FF8
7FF8
1FF8
07F0
ENDCHAR
STARTCHAR 012F
ENCODING 303
SWIDTH 228 0
DWIDTH 19 0
BBX 14 78 2 -17
BITMAP
1FC0
1FC0
1FC0
1FC0
1FC0
1FC0
1FC0
1FC0
1FC0
0000
0000
0000
0000
0000
0000
0000
0000
0FC0
0FC0
0FC0
0FC0
0FC0
0FC0
0FC0
0FC0
0FC0
0FC0
0FC0
0FC0
0FC0
0FC0
0FC0
0FC0
0FC0
0FC0
0FC0
0FC0
0FC0
0FC0
0FC0
0FC0
0FC0
0FC0
0FC0
0FC0
0FC0
0FC0
0FC0
0FC0
0FC0
0FC0
0FC0
0FC0
0FC0
0FC0
0FC0
0FC0
0FC0
0FC0
0FC0
0FC0
03C0
0780
1F00
1F00
3E00
7E00
7C00
FC00
FC00
FC00
FC00
FE00
7F00
7FFC
3FFC
1FFC
07F8
ENDCHAR
STARTCHAR 0130
ENCODING 304
SWIDTH 276 0
DWIDTH 23 0
BBX 8 77 8 0
BITMAP
FF
FF
FF
FF
FF
FF
FF
FF
FF
00
00
00
00
00
00
00
FF
FF
FF
FF
FF
FF
FF
FF
FF
FF
FF
FF
FF
FF
FF
FF
FF
FF
FF
FF
FF
FF
FF
FF
FF
FF
FF
FF
FF
FF
FF
FF
FF
FF
FF
FF
FF
FF
FF
FF
FF
FF
FF
FF
FF
FF
FF
FF
FF
FF
FF
FF
FF
FF
FF
FF
FF
FF
FF
FF
FF
ENDCHAR
STARTCHAR 0131
ENCODING 305
SWIDTH 276 0
DWIDTH 23 0
BBX 7 44 8 0
BITMAP
FE
FE
FE
FE
FE
FE
FE
FE
FE
FE
FE
FE
FE
FE
FE
FE
FE
FE
FE
FE
FE
FE
FE
FE
FE
FE
FE
FE
FE
FE
FE
FE
FE
FE
FE
FE
FE
FE
FE
FE
FE
FE
FE
FE
ENDCHAR
STARTCHAR 0132
ENCODING 306
SWIDTH 732 0
DWIDTH 61 0
BBX 47 63 8 -2
BITMAP
FF00000001FE
FF00000001FE
FF00000001FE
FF00000001FE
FF00000001FE
FF00000001FE
FF00000001FE
FF00000001FE
FF00000001FE
FF00000001FE
FF00000001FE
FF00000001FE
FF00000001FE
FF00000001FE
FF00000001FE
FF00000001FE
FF00000001FE
FF00000001FE
FF00000001FE
FF00000001FE
FF00000001FE
FF00000001FE
FF00000001FE
FF00000001FE
FF00000001FE
FF00000001FE
FF00000001FE
FF00000001FE
FF00000001FE
FF00000001FE
FF00000001FE
FF00000001FE
FF00000001FE
FF00000001FE
FF00000001FE
FF00000001FE
FF00000001FE
FF00000001FE
FF00000001FE
FF00000001FE
FF00000001FE
FF07F00001FE
FF07F00001FE
FF07F00001FE
FF07F00001FE
FF07F80001FE
FF07F80001FE
FF07F80001FE
FF07F80001FE
FF07F80003FC
FF07F80003FC
FF07FC0003FC
FF07FC0007FC
FF03FE000FF8
FF03FF001FF8
FF01FF803FF0
FF01FFFBFFF0
FF00FFFFFFE0
FF007FFFFFC0
FF003FFFFF80
FF000FFFFE00
000007FFF800
0000007FC000
ENDCHAR
STARTCHAR 0133
ENCODING 307
SWIDTH 444 0
DWIDTH 37 0
BBX 23 79 7 -18
BITMAP
FE00FE
FE00FE
FE00FE
FE00FE
FE00FE
FE00FE
FE00FE
FE00FE
FE00FE
000000
000000
000000
000000
000000
000000
000000
000000
FE00FE
FE00FE
FE00FE
FE00FE
FE00FE
FE00FE
FE00FE
FE00FE
FE00FE
FE00FE
FE00FE
FE00FE
FE00FE
FE00FE
FE00FE
FE00FE
FE00FE
FE00FE
FE00FE
FE00FE
FE00FE
FE00FE
FE00FE
FE00FE
FE00FE
FE00FE
FE00FE
FE00FE
FE00FE
FE00FE
FE00FE
FE00FE
FE00FE
FE00FE
FE00FE
FE00FE
FE00FE
FE00FE
FE00FE
FE00FE
FE00FE
FE00FE
FE00FE
FE00FE
0000FE
0000FE
0000FE
0000FE
0000FE
0000FE
0000FE
0000FE
0000FE
0000FE
0001FE
0003FE
007FFE
007FFC
007FFC
007FF8
007FE0
007F80
ENDCHAR
STARTCHAR 0134
ENCODING 308
SWIDTH 504 0
DWIDTH 42 0
BBX 41 81 1 -2
BITMAP
0000003F8000
0000007FC000
000000FFE000
000000FFE000
000001FFF000
000003FBF800
000003F1F800
000007E0FC00
00000FE0FE00
00000FC07E00
00001F803F00
00003F001F80
00003E000F80
000000000000
000000000000
000000000000
000000000000
000000000000
0000001FC000
0000001FC000
0000001FC000
0000001FC000
0000001FC000
0000001FC000
0000001FC000
0000001FC000
0000001FC000
0000001FC000
0000001FC000
0000001FC000
0000001FC000
0000001FC000
0000001FC000
0000001FC000
0000001FC000
0000001FC000
0000001FC000
0000001FC000
0000001FC000
0000001FC000
0000001FC000
0000001FC000
0000001FC000
0000001FC000
0000001FC000
0000001FC000
0000001FC000
0000001FC000
0000001FC000
0000001FC000
0000001FC000
0000001FC000
0000001FC000
0000001FC000
0000001FC000
0000001FC000
0000001FC000
0000001FC000
0000001FC000
FF00001FC000
FF00001FC000
FF00001FC000
FF00001FC000
FF00001FC000
FF00001FC000
FF00001FC000
FF80003FC000
7F80003FC000
7F80003FC000
7F80003FC000
7FC0007F8000
3FE000FF8000
3FF001FF8000
1FF803FF0000
1FFFBFFE0000
0FFFFFFE0000
07FFFFFC0000
03FFFFF80000
01FFFFE00000
007FFF800000
000FFC000000
ENDCHAR
STARTCHAR 0135
ENCODING 309
SWIDTH 228 0
DWIDTH 19 0
BBX 23 80 -3 -18
BITMAP
00FF00
01FF80
03FFC0
03FFC0
07FFE0
0FE7E0
0FC3F0
1F83F8
1F81F8
3F00FC
7E007E
7C003E
800000
000000
000000
000000
000000
000000
007F00
007F00
007F00
007F00
007F00
007F00
007F00
007F00
007F00
007F00
007F00
007F00
007F00
007F00
007F00
007F00
007F00
007F00
007F00
007F00
007F00
007F00
007F00
007F00
007F00
007F00
007F00
007F00
007F00
007F00
007F00
007F00
007F00
007F00
007F00
007F00
007F00
007F00
007F00
007F00
007F00
007F00
007F00
007F00
007F00
007F00
007F00
007F00
007F00
007F00
007F00
007F00
007F00
00FF00
00FF00
01FE00
7FFE00
7FFE00
7FFC00
7FF800
7FF000
7F8000
ENDCHAR
STARTCHAR 0136
ENCODING 310
SWIDTH 672 0
DWIDTH 56 0
BBX 47 85 7 -24
BITMAP
FE00000007FE
FE0000000FFC
FE0000001FF8
FE0000003FF0
FE0000007FE0
FE000000FFC0
FE000001FF80
FE000003FF00
FE000007FE00
FE00000FFC00
FE00001FF800
FE00003FF000
FE00007FE000
FE0000FFC000
FE0001FF8000
FE0003FF0000
FE0007FE0000
FE000FFC0000
FE001FF80000
FE003FF00000
FE003FE00000
FE007FC00000
FE00FF800000
FE01FF000000
FE03FE000000
FE07FE000000
FE0FFF000000
FE1FFF800000
FE3FFF800000
FE7FFFC00000
FEFF3FE00000
FFFE3FE00000
FFFC1FF00000
FFF80FF80000
FFF00FFC0000
FFE007FC0000
FFC003FE0000
FF8001FF0000
FF0001FF0000
FF0000FF8000
FE00007FC000
FE00007FC000
FE00003FE000
FE00001FF000
FE00001FF000
FE00000FF800
FE000007FC00
FE000007FE00
FE000003FE00
FE000001FF00
FE000001FF80
FE000000FF80
FE0000007FC0
FE0000003FE0
FE0000003FE0
FE0000001FF0
FE0000000FF8
FE0000000FF8
FE00000007FC
FE00000003FE
FE00000003FE
000000000000
000000000000
000000000000
000000000000
000000000000
00003FC00000
00003FC00000
00003FC00000
00003FC00000
00003FC00000
00003FC00000
00003FC00000
00003FC00000
000003C00000
000001C00000
000003C00000
000003C00000
000003C00000
000003800000
000007800000
00003F000000
00003F000000
00003C000000
000030000000
ENDCHAR
STARTCHAR 0137
ENCODING 311
SWIDTH 504 0
DWIDTH 42 0
BBX 37 85 5 -24
BITMAP
FE00000000
FE00000000
FE00000000
FE00000000
FE00000000
FE00000000
FE00000000
FE00000000
FE00000000
FE00000000
FE00000000
FE00000000
FE00000000
FE00000000
FE00000000
FE00000000
FE00000000
FE00007FC0
FE0000FF80
FE0001FF00
FE0003FE00
FE0007FC00
FE000FF800
FE001FF000
FE003FE000
FE007FC000
FE00FF8000
FE01FF0000
FE03FE0000
FE07FC0000
FE0FF80000
FE1FF00000
FE3FE00000
FE7FF00000
FEFFF00000
FFFFF80000
FFFFFC0000
FFFBFC0000
FFF3FE0000
FFE1FF0000
FFC0FF0000
FF80FF8000
FF007F8000
FE007FC000
FE003FE000
FE001FE000
FE001FF000
FE000FF000
FE000FF800
FE0007FC00
FE0003FC00
FE0003FE00
FE0001FF00
FE0000FF00
FE0000FF80
FE00007F80
FE00007FC0
FE00003FE0
FE00001FE0
FE00001FF0
FE00000FF8
0000000000
0000000000
0000000000
0000000000
0000000000
0007F80000
0007F80000
0007F80000
0007F80000
0007F80000
0007F80000
0007F80000
0007F80000
0000380000
0000380000
0000380000
0000780000
0000780000
0000780000
0000F00000
0007F00000
0007E00000
0007800000
0006000000
ENDCHAR
STARTCHAR 0138
ENCODING 312
SWIDTH 504 0
DWIDTH 42 0
BBX 34 42 3 0
BITMAP
FC00003F80
FC00007F00
FC0000FE00
FC0001FC00
FC0003F800
FC0007F000
FC000FE000
FC001FC000
FC003F8000
FC007F0000
FC00FE0000
FC01FC0000
FC03F80000
FC07F00000
FC0FE00000
FC1FC00000
FC3F800000
FC7F800000
FCFFC00000
FDFFE00000
FFF7E00000
FFE3F00000
FFC3F80000
FF81F80000
FF00FC0000
FE00FE0000
FC007E0000
FC003F0000
FC003F8000
FC001F8000
FC000FC000
FC000FE000
FC0007F000
FC0003F000
FC0001F800
FC0001FC00
FC0000FC00
FC00007E00
FC00007F00
FC00003F00
FC00001F80
FC00001FC0
ENDCHAR
STARTCHAR 0139
ENCODING 313
SWIDTH 552 0
DWIDTH 46 0
BBX 38 78 6 0
BITMAP
01FF800000
01FE000000
03FC000000
07F8000000
07F0000000
0FE0000000
1FC0000000
1F80000000
3F00000000
7E00000000
7C00000000
F800000000
0000000000
0000000000
0000000000
0000000000
0000000000
7F00000000
7F00000000
7F00000000
7F00000000
7F00000000
7F00000000
7F00000000
7F00000000
7F00000000
7F00000000
7F00000000
7F00000000
7F00000000
7F00000000
7F00000000
7F00000000
7F00000000
7F00000000
7F00000000
7F00000000
7F00000000
7F00000000
7F00000000
7F00000000
7F00000000
7F00000000
7F00000000
7F00000000
7F00000000
7F00000000
7F00000000
7F00000000
7F00000000
7F00000000
7F00000000
7F00000000
7F00000000
7F00000000
7F00000000
7F00000000
7F00000000
7F00000000
7F00000000
7F00000000
7F00000000
7F00000000
7F00000000
7F00000000
7F00000000
7F00000000
7F00000000
7F00000000
7F00000000
7F00000000
7FFFFFFFFC
7FFFFFFFFC
7FFFFFFFFC
7FFFFFFFFC
7FFFFFFFFC
7FFFFFFFFC
7FFFFFFFFC
ENDCHAR
STARTCHAR 013A
ENCODING 314
SWIDTH 228 0
DWIDTH 19 0
BBX 17 78 5 0
BITMAP
00FF80
01FF00
03FE00
03FC00
07F800
0FF000
0FE000
1FC000
3F8000
3F0000
7E0000
FC0000
000000
000000
000000
000000
000000
7F0000
7F0000
7F0000
7F0000
7F0000
7F0000
7F0000
7F0000
7F0000
7F0000
7F0000
7F0000
7F0000
7F0000
7F0000
7F0000
7F0000
7F0000
7F0000
7F0000
7F0000
7F0000
7F0000
7F0000
7F0000
7F0000
7F0000
7F0000
7F0000
7F0000
7F0000
7F0000
7F0000
7F0000
7F0000
7F0000
7F0000
7F0000
7F0000
7F0000
7F0000
7F0000
7F0000
7F0000
7F0000
7F0000
7F0000
7F0000
7F0000
7F0000
7F0000
7F0000
7F0000
7F0000
7F0000
7F0000
7F0000
7F0000
7F0000
7F0000
7F0000
ENDCHAR
STARTCHAR 013B
ENCODING 315
SWIDTH 552 0
DWIDTH 46 0
BBX 37 85 7 -24
BITMAP
FE00000000
FE00000000
FE00000000
FE00000000
FE00000000
FE00000000
FE00000000
FE00000000
FE00000000
FE00000000
FE00000000
FE00000000
FE00000000
FE00000000
FE00000000
FE00000000
FE00000000
FE00000000
FE00000000
FE00000000
FE00000000
FE00000000
FE00000000
FE00000000
FE00000000
FE00000000
FE00000000
FE00000000
FE00000000
FE00000000
FE00000000
FE00000000
FE00000000
FE00000000
FE00000000
FE00000000
FE00000000
FE00000000
FE00000000
FE00000000
FE00000000
FE00000000
FE00000000
FE00000000
FE00000000
FE00000000
FE00000000
FE00000000
FE00000000
FE00000000
FE00000000
FE00000000
FE00000000
FE00000000
FFFFFFFFF8
FFFFFFFFF8
FFFFFFFFF8
FFFFFFFFF8
FFFFFFFFF8
FFFFFFFFF8
FFFFFFFFF8
0000000000
0000000000
0000000000
0000000000
0000000000
0003FE0000
0003FE0000
0003FE0000
0003FE0000
0003FE0000
0003FE0000
0003FE0000
0003FE0000
00001E0000
00001E0000
00001E0000
00001C0000
00001C0000
00003C0000
0000780000
0003F80000
0003F00000
0003E00000
0003000000
ENDCHAR
STARTCHAR 013C
ENCODING 316
SWIDTH 228 0
DWIDTH 19 0
BBX 9 85 5 -24
BITMAP
7F00
7F00
7F00
7F00
7F00
7F00
7F00
7F00
7F00
7F00
7F00
7F00
7F00
7F00
7F00
7F00
7F00
7F00
7F00
7F00
7F00
7F00
7F00
7F00
7F00
7F00
7F00
7F00
7F00
7F00
7F00
7F00
7F00
7F00
7F00
7F00
7F00
7F00
7F00
7F00
7F00
7F00
7F00
7F00
7F00
7F00
7F00
7F00
7F00
7F00
7F00
7F00
7F00
7F00
7F00
7F00
7F00
7F00
7F00
7F00
7F00
0000
0000
0000
0000
0000
FF80
FF80
FF80
FF80
FF80
FF80
FF80
FF80
0780
0780
0700
0700
0F00
0F00
1E00
FE00
FC00
F800
C000
ENDCHAR
STARTCHAR 013D
ENCODING 317
SWIDTH 552 0
DWIDTH 46 0
BBX 37 61 7 0
BITMAP
FE00FF0000
FE00FF0000
FE00FF0000
FE00FF0000
FE00FF0000
FE00FF0000
FE00FF0000
FE00FF0000
FE000F0000
FE000F0000
FE000F0000
FE000F0000
FE000F0000
FE001E0000
FE001E0000
FE00FC0000
FE00F80000
FE00F00000
FE00C00000
FE00000000
FE00000000
FE00000000
FE00000000
FE00000000
FE00000000
FE00000000
FE00000000
FE00000000
FE00000000
FE00000000
FE00000000
FE00000000
FE00000000
FE00000000
FE00000000
FE00000000
FE00000000
FE00000000
FE00000000
FE00000000
FE00000000
FE00000000
FE00000000
FE00000000
FE00000000
FE00000000
FE00000000
FE00000000
FE00000000
FE00000000
FE00000000
FE00000000
FE00000000
FE00000000
FFFFFFFFF8
FFFFFFFFF8
FFFFFFFFF8
FFFFFFFFF8
FFFFFFFFF8
FFFFFFFFF8
FFFFFFFFF8
ENDCHAR
ENDFONT
